# S7 controlled synthetic mesh
v 0.000000 0.000000 0.000000
v 0.000000 0.000000 1.000000
v 0.000000 1.000000 1.000000
v 0.000000 1.000000 0.000000
v 1.000000 0.000000 0.000000
v 1.000000 0.000000 1.000000
v 1.000000 1.000000 0.000000
v 0.000000 0.000000 2.000000
v 0.000000 1.000000 2.000000
v 1.000000 0.000000 2.000000
v 0.000000 0.000000 3.000000
v 0.000000 1.000000 3.000000
v 1.000000 0.000000 3.000000
v 0.000000 0.000000 4.000000
v 0.000000 1.000000 4.000000
v 1.000000 0.000000 4.000000
v 0.000000 0.000000 5.000000
v 0.000000 1.000000 5.000000
v 1.000000 0.000000 5.000000
v 0.000000 0.000000 6.000000
v 0.000000 1.000000 6.000000
v 1.000000 0.000000 6.000000
v 0.000000 0.000000 7.000000
v 0.000000 1.000000 7.000000
v 1.000000 0.000000 7.000000
v 0.000000 0.000000 8.000000
v 0.000000 1.000000 8.000000
v 1.000000 0.000000 8.000000
v 0.000000 0.000000 9.000000
v 0.000000 1.000000 9.000000
v 1.000000 0.000000 9.000000
v 0.000000 0.000000 10.000000
v 0.000000 1.000000 10.000000
v 1.000000 0.000000 10.000000
v 0.000000 0.000000 11.000000
v 0.000000 1.000000 11.000000
v 1.000000 0.000000 11.000000
v 0.000000 0.000000 12.000000
v 0.000000 1.000000 12.000000
v 1.000000 0.000000 12.000000
v 1.000000 1.000000 12.000000
v 0.000000 2.000000 1.000000
v 0.000000 2.000000 0.000000
v 1.000000 2.000000 0.000000
v 0.000000 2.000000 2.000000
v 0.000000 2.000000 3.000000
v 0.000000 2.000000 4.000000
v 0.000000 2.000000 5.000000
v 0.000000 2.000000 6.000000
v 0.000000 2.000000 7.000000
v 0.000000 2.000000 8.000000
v 0.000000 2.000000 9.000000
v 0.000000 2.000000 10.000000
v 0.000000 2.000000 11.000000
v 0.000000 2.000000 12.000000
v 1.000000 2.000000 12.000000
v 0.000000 3.000000 1.000000
v 0.000000 3.000000 0.000000
v 1.000000 3.000000 0.000000
v 0.000000 3.000000 2.000000
v 0.000000 3.000000 3.000000
v 0.000000 3.000000 4.000000
v 0.000000 3.000000 5.000000
v 0.000000 3.000000 6.000000
v 0.000000 3.000000 7.000000
v 0.000000 3.000000 8.000000
v 0.000000 3.000000 9.000000
v 0.000000 3.000000 10.000000
v 0.000000 3.000000 11.000000
v 0.000000 3.000000 12.000000
v 1.000000 3.000000 12.000000
v 0.000000 4.000000 1.000000
v 0.000000 4.000000 0.000000
v 1.000000 4.000000 0.000000
v 0.000000 4.000000 2.000000
v 0.000000 4.000000 3.000000
v 0.000000 4.000000 4.000000
v 0.000000 4.000000 5.000000
v 0.000000 4.000000 6.000000
v 0.000000 4.000000 7.000000
v 0.000000 4.000000 8.000000
v 0.000000 4.000000 9.000000
v 0.000000 4.000000 10.000000
v 0.000000 4.000000 11.000000
v 0.000000 4.000000 12.000000
v 1.000000 4.000000 12.000000
v 0.000000 5.000000 1.000000
v 0.000000 5.000000 0.000000
v 1.000000 5.000000 0.000000
v 0.000000 5.000000 2.000000
v 0.000000 5.000000 3.000000
v 0.000000 5.000000 4.000000
v 0.000000 5.000000 5.000000
v 0.000000 5.000000 6.000000
v 0.000000 5.000000 7.000000
v 0.000000 5.000000 8.000000
v 0.000000 5.000000 9.000000
v 0.000000 5.000000 10.000000
v 0.000000 5.000000 11.000000
v 0.000000 5.000000 12.000000
v 1.000000 5.000000 12.000000
v 0.000000 6.000000 1.000000
v 0.000000 6.000000 0.000000
v 1.000000 6.000000 0.000000
v 0.000000 6.000000 2.000000
v 0.000000 6.000000 3.000000
v 0.000000 6.000000 4.000000
v 0.000000 6.000000 5.000000
v 0.000000 6.000000 6.000000
v 0.000000 6.000000 7.000000
v 0.000000 6.000000 8.000000
v 0.000000 6.000000 9.000000
v 0.000000 6.000000 10.000000
v 0.000000 6.000000 11.000000
v 0.000000 6.000000 12.000000
v 1.000000 6.000000 12.000000
v 0.000000 7.000000 1.000000
v 0.000000 7.000000 0.000000
v 1.000000 7.000000 0.000000
v 0.000000 7.000000 2.000000
v 0.000000 7.000000 3.000000
v 0.000000 7.000000 4.000000
v 0.000000 7.000000 5.000000
v 0.000000 7.000000 6.000000
v 0.000000 7.000000 7.000000
v 0.000000 7.000000 8.000000
v 0.000000 7.000000 9.000000
v 0.000000 7.000000 10.000000
v 0.000000 7.000000 11.000000
v 0.000000 7.000000 12.000000
v 1.000000 7.000000 12.000000
v 0.000000 8.000000 1.000000
v 0.000000 8.000000 0.000000
v 1.000000 8.000000 0.000000
v 0.000000 8.000000 2.000000
v 0.000000 8.000000 3.000000
v 0.000000 8.000000 4.000000
v 0.000000 8.000000 5.000000
v 0.000000 8.000000 6.000000
v 0.000000 8.000000 7.000000
v 0.000000 8.000000 8.000000
v 0.000000 8.000000 9.000000
v 0.000000 8.000000 10.000000
v 0.000000 8.000000 11.000000
v 0.000000 8.000000 12.000000
v 1.000000 8.000000 12.000000
v 0.000000 9.000000 1.000000
v 0.000000 9.000000 0.000000
v 1.000000 9.000000 0.000000
v 0.000000 9.000000 2.000000
v 0.000000 9.000000 3.000000
v 0.000000 9.000000 4.000000
v 0.000000 9.000000 5.000000
v 0.000000 9.000000 6.000000
v 0.000000 9.000000 7.000000
v 0.000000 9.000000 8.000000
v 0.000000 9.000000 9.000000
v 0.000000 9.000000 10.000000
v 0.000000 9.000000 11.000000
v 0.000000 9.000000 12.000000
v 1.000000 9.000000 12.000000
v 0.000000 10.000000 1.000000
v 0.000000 10.000000 0.000000
v 1.000000 10.000000 0.000000
v 0.000000 10.000000 2.000000
v 0.000000 10.000000 3.000000
v 0.000000 10.000000 4.000000
v 0.000000 10.000000 5.000000
v 0.000000 10.000000 6.000000
v 0.000000 10.000000 7.000000
v 0.000000 10.000000 8.000000
v 0.000000 10.000000 9.000000
v 0.000000 10.000000 10.000000
v 0.000000 10.000000 11.000000
v 0.000000 10.000000 12.000000
v 1.000000 10.000000 12.000000
v 0.000000 11.000000 1.000000
v 0.000000 11.000000 0.000000
v 1.000000 11.000000 0.000000
v 0.000000 11.000000 2.000000
v 0.000000 11.000000 3.000000
v 0.000000 11.000000 4.000000
v 0.000000 11.000000 5.000000
v 0.000000 11.000000 6.000000
v 0.000000 11.000000 7.000000
v 0.000000 11.000000 8.000000
v 0.000000 11.000000 9.000000
v 0.000000 11.000000 10.000000
v 0.000000 11.000000 11.000000
v 0.000000 11.000000 12.000000
v 1.000000 11.000000 12.000000
v 0.000000 12.000000 1.000000
v 0.000000 12.000000 0.000000
v 1.000000 12.000000 1.000000
v 1.000000 12.000000 0.000000
v 0.000000 12.000000 2.000000
v 1.000000 12.000000 2.000000
v 0.000000 12.000000 3.000000
v 1.000000 12.000000 3.000000
v 0.000000 12.000000 4.000000
v 1.000000 12.000000 4.000000
v 0.000000 12.000000 5.000000
v 1.000000 12.000000 5.000000
v 0.000000 12.000000 6.000000
v 1.000000 12.000000 6.000000
v 0.000000 12.000000 7.000000
v 1.000000 12.000000 7.000000
v 0.000000 12.000000 8.000000
v 1.000000 12.000000 8.000000
v 0.000000 12.000000 9.000000
v 1.000000 12.000000 9.000000
v 0.000000 12.000000 10.000000
v 1.000000 12.000000 10.000000
v 0.000000 12.000000 11.000000
v 1.000000 12.000000 11.000000
v 0.000000 12.000000 12.000000
v 1.000000 12.000000 12.000000
v 2.000000 0.000000 0.000000
v 2.000000 0.000000 1.000000
v 2.000000 1.000000 0.000000
v 2.000000 0.000000 2.000000
v 2.000000 0.000000 3.000000
v 2.000000 0.000000 4.000000
v 2.000000 0.000000 5.000000
v 2.000000 0.000000 6.000000
v 2.000000 0.000000 7.000000
v 2.000000 0.000000 8.000000
v 2.000000 0.000000 9.000000
v 2.000000 0.000000 10.000000
v 2.000000 0.000000 11.000000
v 2.000000 0.000000 12.000000
v 2.000000 1.000000 12.000000
v 2.000000 2.000000 0.000000
v 2.000000 2.000000 12.000000
v 2.000000 3.000000 0.000000
v 2.000000 3.000000 12.000000
v 2.000000 4.000000 0.000000
v 2.000000 4.000000 12.000000
v 2.000000 5.000000 0.000000
v 2.000000 5.000000 12.000000
v 2.000000 6.000000 0.000000
v 2.000000 6.000000 12.000000
v 2.000000 7.000000 0.000000
v 2.000000 7.000000 12.000000
v 2.000000 8.000000 0.000000
v 2.000000 8.000000 12.000000
v 2.000000 9.000000 0.000000
v 2.000000 9.000000 12.000000
v 2.000000 10.000000 0.000000
v 2.000000 10.000000 12.000000
v 2.000000 11.000000 0.000000
v 2.000000 11.000000 12.000000
v 2.000000 12.000000 1.000000
v 2.000000 12.000000 0.000000
v 2.000000 12.000000 2.000000
v 2.000000 12.000000 3.000000
v 2.000000 12.000000 4.000000
v 2.000000 12.000000 5.000000
v 2.000000 12.000000 6.000000
v 2.000000 12.000000 7.000000
v 2.000000 12.000000 8.000000
v 2.000000 12.000000 9.000000
v 2.000000 12.000000 10.000000
v 2.000000 12.000000 11.000000
v 2.000000 12.000000 12.000000
v 3.000000 0.000000 0.000000
v 3.000000 0.000000 1.000000
v 3.000000 1.000000 0.000000
v 3.000000 0.000000 2.000000
v 3.000000 0.000000 3.000000
v 3.000000 0.000000 4.000000
v 3.000000 0.000000 5.000000
v 3.000000 0.000000 6.000000
v 3.000000 0.000000 7.000000
v 3.000000 0.000000 8.000000
v 3.000000 0.000000 9.000000
v 3.000000 0.000000 10.000000
v 3.000000 0.000000 11.000000
v 3.000000 0.000000 12.000000
v 3.000000 1.000000 12.000000
v 3.000000 2.000000 0.000000
v 3.000000 2.000000 12.000000
v 3.000000 3.000000 0.000000
v 3.000000 3.000000 12.000000
v 3.000000 4.000000 0.000000
v 3.000000 4.000000 12.000000
v 3.000000 5.000000 0.000000
v 3.000000 5.000000 12.000000
v 3.000000 6.000000 0.000000
v 3.000000 6.000000 12.000000
v 3.000000 7.000000 0.000000
v 3.000000 7.000000 12.000000
v 3.000000 8.000000 0.000000
v 3.000000 8.000000 12.000000
v 3.000000 9.000000 0.000000
v 3.000000 9.000000 12.000000
v 3.000000 10.000000 0.000000
v 3.000000 10.000000 12.000000
v 3.000000 11.000000 0.000000
v 3.000000 11.000000 12.000000
v 3.000000 12.000000 1.000000
v 3.000000 12.000000 0.000000
v 3.000000 12.000000 2.000000
v 3.000000 12.000000 3.000000
v 3.000000 12.000000 4.000000
v 3.000000 12.000000 5.000000
v 3.000000 12.000000 6.000000
v 3.000000 12.000000 7.000000
v 3.000000 12.000000 8.000000
v 3.000000 12.000000 9.000000
v 3.000000 12.000000 10.000000
v 3.000000 12.000000 11.000000
v 3.000000 12.000000 12.000000
v 4.000000 0.000000 0.000000
v 4.000000 0.000000 1.000000
v 4.000000 1.000000 0.000000
v 4.000000 0.000000 2.000000
v 4.000000 0.000000 3.000000
v 4.000000 0.000000 4.000000
v 4.000000 0.000000 5.000000
v 4.000000 0.000000 6.000000
v 4.000000 0.000000 7.000000
v 4.000000 0.000000 8.000000
v 4.000000 0.000000 9.000000
v 4.000000 0.000000 10.000000
v 4.000000 0.000000 11.000000
v 4.000000 0.000000 12.000000
v 4.000000 1.000000 12.000000
v 4.000000 2.000000 0.000000
v 4.000000 2.000000 12.000000
v 4.000000 3.000000 0.000000
v 4.000000 3.000000 12.000000
v 4.000000 4.000000 0.000000
v 4.000000 4.000000 12.000000
v 4.000000 5.000000 0.000000
v 4.000000 5.000000 12.000000
v 4.000000 6.000000 0.000000
v 4.000000 6.000000 12.000000
v 4.000000 7.000000 0.000000
v 4.000000 7.000000 12.000000
v 4.000000 8.000000 0.000000
v 4.000000 8.000000 12.000000
v 4.000000 9.000000 0.000000
v 4.000000 9.000000 12.000000
v 4.000000 10.000000 0.000000
v 4.000000 10.000000 12.000000
v 4.000000 11.000000 0.000000
v 4.000000 11.000000 12.000000
v 4.000000 12.000000 1.000000
v 4.000000 12.000000 0.000000
v 4.000000 12.000000 2.000000
v 4.000000 12.000000 3.000000
v 4.000000 12.000000 4.000000
v 4.000000 12.000000 5.000000
v 4.000000 12.000000 6.000000
v 4.000000 12.000000 7.000000
v 4.000000 12.000000 8.000000
v 4.000000 12.000000 9.000000
v 4.000000 12.000000 10.000000
v 4.000000 12.000000 11.000000
v 4.000000 12.000000 12.000000
v 5.000000 0.000000 0.000000
v 5.000000 0.000000 1.000000
v 5.000000 1.000000 0.000000
v 5.000000 0.000000 2.000000
v 5.000000 0.000000 3.000000
v 5.000000 0.000000 4.000000
v 5.000000 0.000000 5.000000
v 5.000000 0.000000 6.000000
v 5.000000 0.000000 7.000000
v 5.000000 0.000000 8.000000
v 5.000000 0.000000 9.000000
v 5.000000 0.000000 10.000000
v 5.000000 0.000000 11.000000
v 5.000000 0.000000 12.000000
v 5.000000 1.000000 12.000000
v 5.000000 2.000000 0.000000
v 5.000000 2.000000 12.000000
v 5.000000 3.000000 0.000000
v 5.000000 3.000000 12.000000
v 5.000000 4.000000 0.000000
v 5.000000 4.000000 12.000000
v 5.000000 5.000000 0.000000
v 5.000000 5.000000 12.000000
v 5.000000 6.000000 0.000000
v 5.000000 6.000000 12.000000
v 5.000000 7.000000 0.000000
v 5.000000 7.000000 12.000000
v 5.000000 8.000000 0.000000
v 5.000000 8.000000 12.000000
v 5.000000 9.000000 0.000000
v 5.000000 9.000000 12.000000
v 5.000000 10.000000 0.000000
v 5.000000 10.000000 12.000000
v 5.000000 11.000000 0.000000
v 5.000000 11.000000 12.000000
v 5.000000 12.000000 1.000000
v 5.000000 12.000000 0.000000
v 5.000000 12.000000 2.000000
v 5.000000 12.000000 3.000000
v 5.000000 12.000000 4.000000
v 5.000000 12.000000 5.000000
v 5.000000 12.000000 6.000000
v 5.000000 12.000000 7.000000
v 5.000000 12.000000 8.000000
v 5.000000 12.000000 9.000000
v 5.000000 12.000000 10.000000
v 5.000000 12.000000 11.000000
v 5.000000 12.000000 12.000000
v 6.000000 0.000000 0.000000
v 6.000000 0.000000 1.000000
v 6.000000 1.000000 0.000000
v 6.000000 0.000000 2.000000
v 6.000000 0.000000 3.000000
v 6.000000 0.000000 4.000000
v 6.000000 0.000000 5.000000
v 6.000000 0.000000 6.000000
v 6.000000 0.000000 7.000000
v 6.000000 0.000000 8.000000
v 6.000000 0.000000 9.000000
v 6.000000 0.000000 10.000000
v 6.000000 0.000000 11.000000
v 6.000000 0.000000 12.000000
v 6.000000 1.000000 12.000000
v 6.000000 2.000000 0.000000
v 6.000000 2.000000 12.000000
v 6.000000 3.000000 0.000000
v 6.000000 3.000000 12.000000
v 6.000000 4.000000 0.000000
v 6.000000 4.000000 12.000000
v 6.000000 5.000000 0.000000
v 6.000000 5.000000 12.000000
v 6.000000 6.000000 0.000000
v 6.000000 6.000000 12.000000
v 6.000000 7.000000 0.000000
v 6.000000 7.000000 12.000000
v 6.000000 8.000000 0.000000
v 6.000000 8.000000 12.000000
v 6.000000 9.000000 0.000000
v 6.000000 9.000000 12.000000
v 6.000000 10.000000 0.000000
v 6.000000 10.000000 12.000000
v 6.000000 11.000000 0.000000
v 6.000000 11.000000 12.000000
v 6.000000 12.000000 1.000000
v 6.000000 12.000000 0.000000
v 6.000000 12.000000 2.000000
v 6.000000 12.000000 3.000000
v 6.000000 12.000000 4.000000
v 6.000000 12.000000 5.000000
v 6.000000 12.000000 6.000000
v 6.000000 12.000000 7.000000
v 6.000000 12.000000 8.000000
v 6.000000 12.000000 9.000000
v 6.000000 12.000000 10.000000
v 6.000000 12.000000 11.000000
v 6.000000 12.000000 12.000000
v 7.000000 0.000000 0.000000
v 7.000000 0.000000 1.000000
v 7.000000 1.000000 0.000000
v 7.000000 0.000000 2.000000
v 7.000000 0.000000 3.000000
v 7.000000 0.000000 4.000000
v 7.000000 0.000000 5.000000
v 7.000000 0.000000 6.000000
v 7.000000 0.000000 7.000000
v 7.000000 0.000000 8.000000
v 7.000000 0.000000 9.000000
v 7.000000 0.000000 10.000000
v 7.000000 0.000000 11.000000
v 7.000000 0.000000 12.000000
v 7.000000 1.000000 12.000000
v 7.000000 2.000000 0.000000
v 7.000000 2.000000 12.000000
v 7.000000 3.000000 0.000000
v 7.000000 3.000000 12.000000
v 7.000000 4.000000 0.000000
v 7.000000 4.000000 12.000000
v 7.000000 5.000000 0.000000
v 7.000000 5.000000 12.000000
v 7.000000 6.000000 0.000000
v 7.000000 6.000000 12.000000
v 7.000000 7.000000 0.000000
v 7.000000 7.000000 12.000000
v 7.000000 8.000000 0.000000
v 7.000000 8.000000 12.000000
v 7.000000 9.000000 0.000000
v 7.000000 9.000000 12.000000
v 7.000000 10.000000 0.000000
v 7.000000 10.000000 12.000000
v 7.000000 11.000000 0.000000
v 7.000000 11.000000 12.000000
v 7.000000 12.000000 1.000000
v 7.000000 12.000000 0.000000
v 7.000000 12.000000 2.000000
v 7.000000 12.000000 3.000000
v 7.000000 12.000000 4.000000
v 7.000000 12.000000 5.000000
v 7.000000 12.000000 6.000000
v 7.000000 12.000000 7.000000
v 7.000000 12.000000 8.000000
v 7.000000 12.000000 9.000000
v 7.000000 12.000000 10.000000
v 7.000000 12.000000 11.000000
v 7.000000 12.000000 12.000000
v 8.000000 0.000000 0.000000
v 8.000000 0.000000 1.000000
v 8.000000 1.000000 0.000000
v 8.000000 0.000000 2.000000
v 8.000000 0.000000 3.000000
v 8.000000 0.000000 4.000000
v 8.000000 0.000000 5.000000
v 8.000000 0.000000 6.000000
v 8.000000 0.000000 7.000000
v 8.000000 0.000000 8.000000
v 8.000000 0.000000 9.000000
v 8.000000 0.000000 10.000000
v 8.000000 0.000000 11.000000
v 8.000000 0.000000 12.000000
v 8.000000 1.000000 12.000000
v 8.000000 2.000000 0.000000
v 8.000000 2.000000 12.000000
v 8.000000 3.000000 0.000000
v 8.000000 3.000000 12.000000
v 8.000000 4.000000 0.000000
v 8.000000 4.000000 12.000000
v 8.000000 5.000000 0.000000
v 8.000000 5.000000 12.000000
v 8.000000 6.000000 0.000000
v 8.000000 6.000000 12.000000
v 8.000000 7.000000 0.000000
v 8.000000 7.000000 12.000000
v 8.000000 8.000000 0.000000
v 8.000000 8.000000 12.000000
v 8.000000 9.000000 0.000000
v 8.000000 9.000000 12.000000
v 8.000000 10.000000 0.000000
v 8.000000 10.000000 12.000000
v 8.000000 11.000000 0.000000
v 8.000000 11.000000 12.000000
v 8.000000 12.000000 1.000000
v 8.000000 12.000000 0.000000
v 8.000000 12.000000 2.000000
v 8.000000 12.000000 3.000000
v 8.000000 12.000000 4.000000
v 8.000000 12.000000 5.000000
v 8.000000 12.000000 6.000000
v 8.000000 12.000000 7.000000
v 8.000000 12.000000 8.000000
v 8.000000 12.000000 9.000000
v 8.000000 12.000000 10.000000
v 8.000000 12.000000 11.000000
v 8.000000 12.000000 12.000000
v 9.000000 0.000000 0.000000
v 9.000000 0.000000 1.000000
v 9.000000 1.000000 0.000000
v 9.000000 0.000000 2.000000
v 9.000000 0.000000 3.000000
v 9.000000 0.000000 4.000000
v 9.000000 0.000000 5.000000
v 9.000000 0.000000 6.000000
v 9.000000 0.000000 7.000000
v 9.000000 0.000000 8.000000
v 9.000000 0.000000 9.000000
v 9.000000 0.000000 10.000000
v 9.000000 0.000000 11.000000
v 9.000000 0.000000 12.000000
v 9.000000 1.000000 12.000000
v 9.000000 2.000000 0.000000
v 9.000000 2.000000 12.000000
v 9.000000 3.000000 0.000000
v 9.000000 3.000000 12.000000
v 9.000000 4.000000 0.000000
v 9.000000 4.000000 12.000000
v 9.000000 5.000000 0.000000
v 9.000000 5.000000 12.000000
v 9.000000 6.000000 0.000000
v 9.000000 6.000000 12.000000
v 9.000000 7.000000 0.000000
v 9.000000 7.000000 12.000000
v 9.000000 8.000000 0.000000
v 9.000000 8.000000 12.000000
v 9.000000 9.000000 0.000000
v 9.000000 9.000000 12.000000
v 9.000000 10.000000 0.000000
v 9.000000 10.000000 12.000000
v 9.000000 11.000000 0.000000
v 9.000000 11.000000 12.000000
v 9.000000 12.000000 1.000000
v 9.000000 12.000000 0.000000
v 9.000000 12.000000 2.000000
v 9.000000 12.000000 3.000000
v 9.000000 12.000000 4.000000
v 9.000000 12.000000 5.000000
v 9.000000 12.000000 6.000000
v 9.000000 12.000000 7.000000
v 9.000000 12.000000 8.000000
v 9.000000 12.000000 9.000000
v 9.000000 12.000000 10.000000
v 9.000000 12.000000 11.000000
v 9.000000 12.000000 12.000000
v 10.000000 0.000000 0.000000
v 10.000000 0.000000 1.000000
v 10.000000 1.000000 0.000000
v 10.000000 0.000000 2.000000
v 10.000000 0.000000 3.000000
v 10.000000 0.000000 4.000000
v 10.000000 0.000000 5.000000
v 10.000000 0.000000 6.000000
v 10.000000 0.000000 7.000000
v 10.000000 0.000000 8.000000
v 10.000000 0.000000 9.000000
v 10.000000 0.000000 10.000000
v 10.000000 0.000000 11.000000
v 10.000000 0.000000 12.000000
v 10.000000 1.000000 12.000000
v 10.000000 2.000000 0.000000
v 10.000000 2.000000 12.000000
v 10.000000 3.000000 0.000000
v 10.000000 3.000000 12.000000
v 10.000000 4.000000 0.000000
v 10.000000 4.000000 12.000000
v 10.000000 5.000000 0.000000
v 10.000000 5.000000 12.000000
v 10.000000 6.000000 0.000000
v 10.000000 6.000000 12.000000
v 10.000000 7.000000 0.000000
v 10.000000 7.000000 12.000000
v 10.000000 8.000000 0.000000
v 10.000000 8.000000 12.000000
v 10.000000 9.000000 0.000000
v 10.000000 9.000000 12.000000
v 10.000000 10.000000 0.000000
v 10.000000 10.000000 12.000000
v 10.000000 11.000000 0.000000
v 10.000000 11.000000 12.000000
v 10.000000 12.000000 1.000000
v 10.000000 12.000000 0.000000
v 10.000000 12.000000 2.000000
v 10.000000 12.000000 3.000000
v 10.000000 12.000000 4.000000
v 10.000000 12.000000 5.000000
v 10.000000 12.000000 6.000000
v 10.000000 12.000000 7.000000
v 10.000000 12.000000 8.000000
v 10.000000 12.000000 9.000000
v 10.000000 12.000000 10.000000
v 10.000000 12.000000 11.000000
v 10.000000 12.000000 12.000000
v 11.000000 0.000000 0.000000
v 11.000000 0.000000 1.000000
v 11.000000 1.000000 0.000000
v 11.000000 0.000000 2.000000
v 11.000000 0.000000 3.000000
v 11.000000 0.000000 4.000000
v 11.000000 0.000000 5.000000
v 11.000000 0.000000 6.000000
v 11.000000 0.000000 7.000000
v 11.000000 0.000000 8.000000
v 11.000000 0.000000 9.000000
v 11.000000 0.000000 10.000000
v 11.000000 0.000000 11.000000
v 11.000000 0.000000 12.000000
v 11.000000 1.000000 12.000000
v 11.000000 2.000000 0.000000
v 11.000000 2.000000 12.000000
v 11.000000 3.000000 0.000000
v 11.000000 3.000000 12.000000
v 11.000000 4.000000 0.000000
v 11.000000 4.000000 12.000000
v 11.000000 5.000000 0.000000
v 11.000000 5.000000 12.000000
v 11.000000 6.000000 0.000000
v 11.000000 6.000000 12.000000
v 11.000000 7.000000 0.000000
v 11.000000 7.000000 12.000000
v 11.000000 8.000000 0.000000
v 11.000000 8.000000 12.000000
v 11.000000 9.000000 0.000000
v 11.000000 9.000000 12.000000
v 11.000000 10.000000 0.000000
v 11.000000 10.000000 12.000000
v 11.000000 11.000000 0.000000
v 11.000000 11.000000 12.000000
v 11.000000 12.000000 1.000000
v 11.000000 12.000000 0.000000
v 11.000000 12.000000 2.000000
v 11.000000 12.000000 3.000000
v 11.000000 12.000000 4.000000
v 11.000000 12.000000 5.000000
v 11.000000 12.000000 6.000000
v 11.000000 12.000000 7.000000
v 11.000000 12.000000 8.000000
v 11.000000 12.000000 9.000000
v 11.000000 12.000000 10.000000
v 11.000000 12.000000 11.000000
v 11.000000 12.000000 12.000000
v 12.000000 0.000000 0.000000
v 12.000000 1.000000 0.000000
v 12.000000 1.000000 1.000000
v 12.000000 0.000000 1.000000
v 12.000000 1.000000 2.000000
v 12.000000 0.000000 2.000000
v 12.000000 1.000000 3.000000
v 12.000000 0.000000 3.000000
v 12.000000 1.000000 4.000000
v 12.000000 0.000000 4.000000
v 12.000000 1.000000 5.000000
v 12.000000 0.000000 5.000000
v 12.000000 1.000000 6.000000
v 12.000000 0.000000 6.000000
v 12.000000 1.000000 7.000000
v 12.000000 0.000000 7.000000
v 12.000000 1.000000 8.000000
v 12.000000 0.000000 8.000000
v 12.000000 1.000000 9.000000
v 12.000000 0.000000 9.000000
v 12.000000 1.000000 10.000000
v 12.000000 0.000000 10.000000
v 12.000000 1.000000 11.000000
v 12.000000 0.000000 11.000000
v 12.000000 1.000000 12.000000
v 12.000000 0.000000 12.000000
v 12.000000 2.000000 0.000000
v 12.000000 2.000000 1.000000
v 12.000000 2.000000 2.000000
v 12.000000 2.000000 3.000000
v 12.000000 2.000000 4.000000
v 12.000000 2.000000 5.000000
v 12.000000 2.000000 6.000000
v 12.000000 2.000000 7.000000
v 12.000000 2.000000 8.000000
v 12.000000 2.000000 9.000000
v 12.000000 2.000000 10.000000
v 12.000000 2.000000 11.000000
v 12.000000 2.000000 12.000000
v 12.000000 3.000000 0.000000
v 12.000000 3.000000 1.000000
v 12.000000 3.000000 2.000000
v 12.000000 3.000000 3.000000
v 12.000000 3.000000 4.000000
v 12.000000 3.000000 5.000000
v 12.000000 3.000000 6.000000
v 12.000000 3.000000 7.000000
v 12.000000 3.000000 8.000000
v 12.000000 3.000000 9.000000
v 12.000000 3.000000 10.000000
v 12.000000 3.000000 11.000000
v 12.000000 3.000000 12.000000
v 12.000000 4.000000 0.000000
v 12.000000 4.000000 1.000000
v 12.000000 4.000000 2.000000
v 12.000000 4.000000 3.000000
v 12.000000 4.000000 4.000000
v 12.000000 4.000000 5.000000
v 12.000000 4.000000 6.000000
v 12.000000 4.000000 7.000000
v 12.000000 4.000000 8.000000
v 12.000000 4.000000 9.000000
v 12.000000 4.000000 10.000000
v 12.000000 4.000000 11.000000
v 12.000000 4.000000 12.000000
v 12.000000 5.000000 0.000000
v 12.000000 5.000000 1.000000
v 12.000000 5.000000 2.000000
v 12.000000 5.000000 3.000000
v 12.000000 5.000000 4.000000
v 12.000000 5.000000 5.000000
v 12.000000 5.000000 6.000000
v 12.000000 5.000000 7.000000
v 12.000000 5.000000 8.000000
v 12.000000 5.000000 9.000000
v 12.000000 5.000000 10.000000
v 12.000000 5.000000 11.000000
v 12.000000 5.000000 12.000000
v 12.000000 6.000000 0.000000
v 12.000000 6.000000 1.000000
v 12.000000 6.000000 2.000000
v 12.000000 6.000000 3.000000
v 12.000000 6.000000 4.000000
v 12.000000 6.000000 5.000000
v 12.000000 6.000000 6.000000
v 12.000000 6.000000 7.000000
v 12.000000 6.000000 8.000000
v 12.000000 6.000000 9.000000
v 12.000000 6.000000 10.000000
v 12.000000 6.000000 11.000000
v 12.000000 6.000000 12.000000
v 12.000000 7.000000 0.000000
v 12.000000 7.000000 1.000000
v 12.000000 7.000000 2.000000
v 12.000000 7.000000 3.000000
v 12.000000 7.000000 4.000000
v 12.000000 7.000000 5.000000
v 12.000000 7.000000 6.000000
v 12.000000 7.000000 7.000000
v 12.000000 7.000000 8.000000
v 12.000000 7.000000 9.000000
v 12.000000 7.000000 10.000000
v 12.000000 7.000000 11.000000
v 12.000000 7.000000 12.000000
v 12.000000 8.000000 0.000000
v 12.000000 8.000000 1.000000
v 12.000000 8.000000 2.000000
v 12.000000 8.000000 3.000000
v 12.000000 8.000000 4.000000
v 12.000000 8.000000 5.000000
v 12.000000 8.000000 6.000000
v 12.000000 8.000000 7.000000
v 12.000000 8.000000 8.000000
v 12.000000 8.000000 9.000000
v 12.000000 8.000000 10.000000
v 12.000000 8.000000 11.000000
v 12.000000 8.000000 12.000000
v 12.000000 9.000000 0.000000
v 12.000000 9.000000 1.000000
v 12.000000 9.000000 2.000000
v 12.000000 9.000000 3.000000
v 12.000000 9.000000 4.000000
v 12.000000 9.000000 5.000000
v 12.000000 9.000000 6.000000
v 12.000000 9.000000 7.000000
v 12.000000 9.000000 8.000000
v 12.000000 9.000000 9.000000
v 12.000000 9.000000 10.000000
v 12.000000 9.000000 11.000000
v 12.000000 9.000000 12.000000
v 12.000000 10.000000 0.000000
v 12.000000 10.000000 1.000000
v 12.000000 10.000000 2.000000
v 12.000000 10.000000 3.000000
v 12.000000 10.000000 4.000000
v 12.000000 10.000000 5.000000
v 12.000000 10.000000 6.000000
v 12.000000 10.000000 7.000000
v 12.000000 10.000000 8.000000
v 12.000000 10.000000 9.000000
v 12.000000 10.000000 10.000000
v 12.000000 10.000000 11.000000
v 12.000000 10.000000 12.000000
v 12.000000 11.000000 0.000000
v 12.000000 11.000000 1.000000
v 12.000000 11.000000 2.000000
v 12.000000 11.000000 3.000000
v 12.000000 11.000000 4.000000
v 12.000000 11.000000 5.000000
v 12.000000 11.000000 6.000000
v 12.000000 11.000000 7.000000
v 12.000000 11.000000 8.000000
v 12.000000 11.000000 9.000000
v 12.000000 11.000000 10.000000
v 12.000000 11.000000 11.000000
v 12.000000 11.000000 12.000000
v 12.000000 12.000000 0.000000
v 12.000000 12.000000 1.000000
v 12.000000 12.000000 2.000000
v 12.000000 12.000000 3.000000
v 12.000000 12.000000 4.000000
v 12.000000 12.000000 5.000000
v 12.000000 12.000000 6.000000
v 12.000000 12.000000 7.000000
v 12.000000 12.000000 8.000000
v 12.000000 12.000000 9.000000
v 12.000000 12.000000 10.000000
v 12.000000 12.000000 11.000000
v 12.000000 12.000000 12.000000
v 13.000000 6.000000 6.000000
v 13.000000 6.000000 7.000000
v 13.000000 7.000000 7.000000
v 13.000000 7.000000 6.000000
v 14.000000 6.000000 6.000000
v 14.000000 6.000000 7.000000
v 14.000000 7.000000 7.000000
v 14.000000 7.000000 6.000000
v 15.000000 6.000000 6.000000
v 15.000000 6.000000 7.000000
v 15.000000 7.000000 7.000000
v 15.000000 7.000000 6.000000
v 16.000000 6.000000 6.000000
v 16.000000 6.000000 7.000000
v 16.000000 7.000000 7.000000
v 16.000000 7.000000 6.000000
v 17.000000 6.000000 6.000000
v 17.000000 6.000000 7.000000
v 17.000000 7.000000 7.000000
v 17.000000 7.000000 6.000000
v 18.000000 6.000000 6.000000
v 18.000000 6.000000 7.000000
v 18.000000 7.000000 7.000000
v 18.000000 7.000000 6.000000
v 19.000000 6.000000 6.000000
v 19.000000 6.000000 7.000000
v 19.000000 7.000000 7.000000
v 19.000000 7.000000 6.000000
v 20.000000 6.000000 6.000000
v 20.000000 6.000000 7.000000
v 20.000000 7.000000 7.000000
v 20.000000 7.000000 6.000000
v 21.000000 6.000000 6.000000
v 21.000000 6.000000 7.000000
v 21.000000 7.000000 7.000000
v 21.000000 7.000000 6.000000
v 22.000000 6.000000 6.000000
v 22.000000 6.000000 7.000000
v 22.000000 7.000000 7.000000
v 22.000000 7.000000 6.000000
v 23.000000 6.000000 6.000000
v 23.000000 6.000000 7.000000
v 23.000000 7.000000 7.000000
v 23.000000 7.000000 6.000000
v 24.000000 6.000000 6.000000
v 24.000000 6.000000 7.000000
v 24.000000 7.000000 7.000000
v 24.000000 7.000000 6.000000
v 25.000000 6.000000 6.000000
v 25.000000 6.000000 7.000000
v 25.000000 7.000000 7.000000
v 25.000000 7.000000 6.000000
v 26.000000 6.000000 6.000000
v 26.000000 6.000000 7.000000
v 26.000000 7.000000 7.000000
v 26.000000 7.000000 6.000000
v 27.000000 6.000000 6.000000
v 27.000000 6.000000 7.000000
v 27.000000 7.000000 7.000000
v 27.000000 7.000000 6.000000
v 28.000000 6.000000 6.000000
v 28.000000 6.000000 7.000000
v 28.000000 7.000000 7.000000
v 28.000000 7.000000 6.000000
v 29.000000 6.000000 6.000000
v 29.000000 6.000000 7.000000
v 29.000000 7.000000 7.000000
v 29.000000 7.000000 6.000000
v 30.000000 6.000000 6.000000
v 30.000000 7.000000 6.000000
v 30.000000 7.000000 7.000000
v 30.000000 6.000000 7.000000
f 1 2 3
f 1 3 4
f 1 5 6
f 1 6 2
f 1 4 7
f 1 7 5
f 2 8 9
f 2 9 3
f 2 6 10
f 2 10 8
f 8 11 12
f 8 12 9
f 8 10 13
f 8 13 11
f 11 14 15
f 11 15 12
f 11 13 16
f 11 16 14
f 14 17 18
f 14 18 15
f 14 16 19
f 14 19 17
f 17 20 21
f 17 21 18
f 17 19 22
f 17 22 20
f 20 23 24
f 20 24 21
f 20 22 25
f 20 25 23
f 23 26 27
f 23 27 24
f 23 25 28
f 23 28 26
f 26 29 30
f 26 30 27
f 26 28 31
f 26 31 29
f 29 32 33
f 29 33 30
f 29 31 34
f 29 34 32
f 32 35 36
f 32 36 33
f 32 34 37
f 32 37 35
f 35 38 39
f 35 39 36
f 35 37 40
f 35 40 38
f 38 40 41
f 38 41 39
f 4 3 42
f 4 42 43
f 4 43 44
f 4 44 7
f 3 9 45
f 3 45 42
f 9 12 46
f 9 46 45
f 12 15 47
f 12 47 46
f 15 18 48
f 15 48 47
f 18 21 49
f 18 49 48
f 21 24 50
f 21 50 49
f 24 27 51
f 24 51 50
f 27 30 52
f 27 52 51
f 30 33 53
f 30 53 52
f 33 36 54
f 33 54 53
f 36 39 55
f 36 55 54
f 39 41 56
f 39 56 55
f 43 42 57
f 43 57 58
f 43 58 59
f 43 59 44
f 42 45 60
f 42 60 57
f 45 46 61
f 45 61 60
f 46 47 62
f 46 62 61
f 47 48 63
f 47 63 62
f 48 49 64
f 48 64 63
f 49 50 65
f 49 65 64
f 50 51 66
f 50 66 65
f 51 52 67
f 51 67 66
f 52 53 68
f 52 68 67
f 53 54 69
f 53 69 68
f 54 55 70
f 54 70 69
f 55 56 71
f 55 71 70
f 58 57 72
f 58 72 73
f 58 73 74
f 58 74 59
f 57 60 75
f 57 75 72
f 60 61 76
f 60 76 75
f 61 62 77
f 61 77 76
f 62 63 78
f 62 78 77
f 63 64 79
f 63 79 78
f 64 65 80
f 64 80 79
f 65 66 81
f 65 81 80
f 66 67 82
f 66 82 81
f 67 68 83
f 67 83 82
f 68 69 84
f 68 84 83
f 69 70 85
f 69 85 84
f 70 71 86
f 70 86 85
f 73 72 87
f 73 87 88
f 73 88 89
f 73 89 74
f 72 75 90
f 72 90 87
f 75 76 91
f 75 91 90
f 76 77 92
f 76 92 91
f 77 78 93
f 77 93 92
f 78 79 94
f 78 94 93
f 79 80 95
f 79 95 94
f 80 81 96
f 80 96 95
f 81 82 97
f 81 97 96
f 82 83 98
f 82 98 97
f 83 84 99
f 83 99 98
f 84 85 100
f 84 100 99
f 85 86 101
f 85 101 100
f 88 87 102
f 88 102 103
f 88 103 104
f 88 104 89
f 87 90 105
f 87 105 102
f 90 91 106
f 90 106 105
f 91 92 107
f 91 107 106
f 92 93 108
f 92 108 107
f 93 94 109
f 93 109 108
f 94 95 110
f 94 110 109
f 95 96 111
f 95 111 110
f 96 97 112
f 96 112 111
f 97 98 113
f 97 113 112
f 98 99 114
f 98 114 113
f 99 100 115
f 99 115 114
f 100 101 116
f 100 116 115
f 103 102 117
f 103 117 118
f 103 118 119
f 103 119 104
f 102 105 120
f 102 120 117
f 105 106 121
f 105 121 120
f 106 107 122
f 106 122 121
f 107 108 123
f 107 123 122
f 108 109 124
f 108 124 123
f 109 110 125
f 109 125 124
f 110 111 126
f 110 126 125
f 111 112 127
f 111 127 126
f 112 113 128
f 112 128 127
f 113 114 129
f 113 129 128
f 114 115 130
f 114 130 129
f 115 116 131
f 115 131 130
f 118 117 132
f 118 132 133
f 118 133 134
f 118 134 119
f 117 120 135
f 117 135 132
f 120 121 136
f 120 136 135
f 121 122 137
f 121 137 136
f 122 123 138
f 122 138 137
f 123 124 139
f 123 139 138
f 124 125 140
f 124 140 139
f 125 126 141
f 125 141 140
f 126 127 142
f 126 142 141
f 127 128 143
f 127 143 142
f 128 129 144
f 128 144 143
f 129 130 145
f 129 145 144
f 130 131 146
f 130 146 145
f 133 132 147
f 133 147 148
f 133 148 149
f 133 149 134
f 132 135 150
f 132 150 147
f 135 136 151
f 135 151 150
f 136 137 152
f 136 152 151
f 137 138 153
f 137 153 152
f 138 139 154
f 138 154 153
f 139 140 155
f 139 155 154
f 140 141 156
f 140 156 155
f 141 142 157
f 141 157 156
f 142 143 158
f 142 158 157
f 143 144 159
f 143 159 158
f 144 145 160
f 144 160 159
f 145 146 161
f 145 161 160
f 148 147 162
f 148 162 163
f 148 163 164
f 148 164 149
f 147 150 165
f 147 165 162
f 150 151 166
f 150 166 165
f 151 152 167
f 151 167 166
f 152 153 168
f 152 168 167
f 153 154 169
f 153 169 168
f 154 155 170
f 154 170 169
f 155 156 171
f 155 171 170
f 156 157 172
f 156 172 171
f 157 158 173
f 157 173 172
f 158 159 174
f 158 174 173
f 159 160 175
f 159 175 174
f 160 161 176
f 160 176 175
f 163 162 177
f 163 177 178
f 163 178 179
f 163 179 164
f 162 165 180
f 162 180 177
f 165 166 181
f 165 181 180
f 166 167 182
f 166 182 181
f 167 168 183
f 167 183 182
f 168 169 184
f 168 184 183
f 169 170 185
f 169 185 184
f 170 171 186
f 170 186 185
f 171 172 187
f 171 187 186
f 172 173 188
f 172 188 187
f 173 174 189
f 173 189 188
f 174 175 190
f 174 190 189
f 175 176 191
f 175 191 190
f 178 177 192
f 178 192 193
f 193 192 194
f 193 194 195
f 178 193 195
f 178 195 179
f 177 180 196
f 177 196 192
f 192 196 197
f 192 197 194
f 180 181 198
f 180 198 196
f 196 198 199
f 196 199 197
f 181 182 200
f 181 200 198
f 198 200 201
f 198 201 199
f 182 183 202
f 182 202 200
f 200 202 203
f 200 203 201
f 183 184 204
f 183 204 202
f 202 204 205
f 202 205 203
f 184 185 206
f 184 206 204
f 204 206 207
f 204 207 205
f 185 186 208
f 185 208 206
f 206 208 209
f 206 209 207
f 186 187 210
f 186 210 208
f 208 210 211
f 208 211 209
f 187 188 212
f 187 212 210
f 210 212 213
f 210 213 211
f 188 189 214
f 188 214 212
f 212 214 215
f 212 215 213
f 189 190 216
f 189 216 214
f 214 216 217
f 214 217 215
f 190 191 217
f 190 217 216
f 5 218 219
f 5 219 6
f 5 7 220
f 5 220 218
f 6 219 221
f 6 221 10
f 10 221 222
f 10 222 13
f 13 222 223
f 13 223 16
f 16 223 224
f 16 224 19
f 19 224 225
f 19 225 22
f 22 225 226
f 22 226 25
f 25 226 227
f 25 227 28
f 28 227 228
f 28 228 31
f 31 228 229
f 31 229 34
f 34 229 230
f 34 230 37
f 37 230 231
f 37 231 40
f 40 231 232
f 40 232 41
f 7 44 233
f 7 233 220
f 41 232 234
f 41 234 56
f 44 59 235
f 44 235 233
f 56 234 236
f 56 236 71
f 59 74 237
f 59 237 235
f 71 236 238
f 71 238 86
f 74 89 239
f 74 239 237
f 86 238 240
f 86 240 101
f 89 104 241
f 89 241 239
f 101 240 242
f 101 242 116
f 104 119 243
f 104 243 241
f 116 242 244
f 116 244 131
f 119 134 245
f 119 245 243
f 131 244 246
f 131 246 146
f 134 149 247
f 134 247 245
f 146 246 248
f 146 248 161
f 149 164 249
f 149 249 247
f 161 248 250
f 161 250 176
f 164 179 251
f 164 251 249
f 176 250 252
f 176 252 191
f 195 194 253
f 195 253 254
f 179 195 254
f 179 254 251
f 194 197 255
f 194 255 253
f 197 199 256
f 197 256 255
f 199 201 257
f 199 257 256
f 201 203 258
f 201 258 257
f 203 205 259
f 203 259 258
f 205 207 260
f 205 260 259
f 207 209 261
f 207 261 260
f 209 211 262
f 209 262 261
f 211 213 263
f 211 263 262
f 213 215 264
f 213 264 263
f 215 217 265
f 215 265 264
f 191 252 265
f 191 265 217
f 218 266 267
f 218 267 219
f 218 220 268
f 218 268 266
f 219 267 269
f 219 269 221
f 221 269 270
f 221 270 222
f 222 270 271
f 222 271 223
f 223 271 272
f 223 272 224
f 224 272 273
f 224 273 225
f 225 273 274
f 225 274 226
f 226 274 275
f 226 275 227
f 227 275 276
f 227 276 228
f 228 276 277
f 228 277 229
f 229 277 278
f 229 278 230
f 230 278 279
f 230 279 231
f 231 279 280
f 231 280 232
f 220 233 281
f 220 281 268
f 232 280 282
f 232 282 234
f 233 235 283
f 233 283 281
f 234 282 284
f 234 284 236
f 235 237 285
f 235 285 283
f 236 284 286
f 236 286 238
f 237 239 287
f 237 287 285
f 238 286 288
f 238 288 240
f 239 241 289
f 239 289 287
f 240 288 290
f 240 290 242
f 241 243 291
f 241 291 289
f 242 290 292
f 242 292 244
f 243 245 293
f 243 293 291
f 244 292 294
f 244 294 246
f 245 247 295
f 245 295 293
f 246 294 296
f 246 296 248
f 247 249 297
f 247 297 295
f 248 296 298
f 248 298 250
f 249 251 299
f 249 299 297
f 250 298 300
f 250 300 252
f 254 253 301
f 254 301 302
f 251 254 302
f 251 302 299
f 253 255 303
f 253 303 301
f 255 256 304
f 255 304 303
f 256 257 305
f 256 305 304
f 257 258 306
f 257 306 305
f 258 259 307
f 258 307 306
f 259 260 308
f 259 308 307
f 260 261 309
f 260 309 308
f 261 262 310
f 261 310 309
f 262 263 311
f 262 311 310
f 263 264 312
f 263 312 311
f 264 265 313
f 264 313 312
f 252 300 313
f 252 313 265
f 266 314 315
f 266 315 267
f 266 268 316
f 266 316 314
f 267 315 317
f 267 317 269
f 269 317 318
f 269 318 270
f 270 318 319
f 270 319 271
f 271 319 320
f 271 320 272
f 272 320 321
f 272 321 273
f 273 321 322
f 273 322 274
f 274 322 323
f 274 323 275
f 275 323 324
f 275 324 276
f 276 324 325
f 276 325 277
f 277 325 326
f 277 326 278
f 278 326 327
f 278 327 279
f 279 327 328
f 279 328 280
f 268 281 329
f 268 329 316
f 280 328 330
f 280 330 282
f 281 283 331
f 281 331 329
f 282 330 332
f 282 332 284
f 283 285 333
f 283 333 331
f 284 332 334
f 284 334 286
f 285 287 335
f 285 335 333
f 286 334 336
f 286 336 288
f 287 289 337
f 287 337 335
f 288 336 338
f 288 338 290
f 289 291 339
f 289 339 337
f 290 338 340
f 290 340 292
f 291 293 341
f 291 341 339
f 292 340 342
f 292 342 294
f 293 295 343
f 293 343 341
f 294 342 344
f 294 344 296
f 295 297 345
f 295 345 343
f 296 344 346
f 296 346 298
f 297 299 347
f 297 347 345
f 298 346 348
f 298 348 300
f 302 301 349
f 302 349 350
f 299 302 350
f 299 350 347
f 301 303 351
f 301 351 349
f 303 304 352
f 303 352 351
f 304 305 353
f 304 353 352
f 305 306 354
f 305 354 353
f 306 307 355
f 306 355 354
f 307 308 356
f 307 356 355
f 308 309 357
f 308 357 356
f 309 310 358
f 309 358 357
f 310 311 359
f 310 359 358
f 311 312 360
f 311 360 359
f 312 313 361
f 312 361 360
f 300 348 361
f 300 361 313
f 314 362 363
f 314 363 315
f 314 316 364
f 314 364 362
f 315 363 365
f 315 365 317
f 317 365 366
f 317 366 318
f 318 366 367
f 318 367 319
f 319 367 368
f 319 368 320
f 320 368 369
f 320 369 321
f 321 369 370
f 321 370 322
f 322 370 371
f 322 371 323
f 323 371 372
f 323 372 324
f 324 372 373
f 324 373 325
f 325 373 374
f 325 374 326
f 326 374 375
f 326 375 327
f 327 375 376
f 327 376 328
f 316 329 377
f 316 377 364
f 328 376 378
f 328 378 330
f 329 331 379
f 329 379 377
f 330 378 380
f 330 380 332
f 331 333 381
f 331 381 379
f 332 380 382
f 332 382 334
f 333 335 383
f 333 383 381
f 334 382 384
f 334 384 336
f 335 337 385
f 335 385 383
f 336 384 386
f 336 386 338
f 337 339 387
f 337 387 385
f 338 386 388
f 338 388 340
f 339 341 389
f 339 389 387
f 340 388 390
f 340 390 342
f 341 343 391
f 341 391 389
f 342 390 392
f 342 392 344
f 343 345 393
f 343 393 391
f 344 392 394
f 344 394 346
f 345 347 395
f 345 395 393
f 346 394 396
f 346 396 348
f 350 349 397
f 350 397 398
f 347 350 398
f 347 398 395
f 349 351 399
f 349 399 397
f 351 352 400
f 351 400 399
f 352 353 401
f 352 401 400
f 353 354 402
f 353 402 401
f 354 355 403
f 354 403 402
f 355 356 404
f 355 404 403
f 356 357 405
f 356 405 404
f 357 358 406
f 357 406 405
f 358 359 407
f 358 407 406
f 359 360 408
f 359 408 407
f 360 361 409
f 360 409 408
f 348 396 409
f 348 409 361
f 362 410 411
f 362 411 363
f 362 364 412
f 362 412 410
f 363 411 413
f 363 413 365
f 365 413 414
f 365 414 366
f 366 414 415
f 366 415 367
f 367 415 416
f 367 416 368
f 368 416 417
f 368 417 369
f 369 417 418
f 369 418 370
f 370 418 419
f 370 419 371
f 371 419 420
f 371 420 372
f 372 420 421
f 372 421 373
f 373 421 422
f 373 422 374
f 374 422 423
f 374 423 375
f 375 423 424
f 375 424 376
f 364 377 425
f 364 425 412
f 376 424 426
f 376 426 378
f 377 379 427
f 377 427 425
f 378 426 428
f 378 428 380
f 379 381 429
f 379 429 427
f 380 428 430
f 380 430 382
f 381 383 431
f 381 431 429
f 382 430 432
f 382 432 384
f 383 385 433
f 383 433 431
f 384 432 434
f 384 434 386
f 385 387 435
f 385 435 433
f 386 434 436
f 386 436 388
f 387 389 437
f 387 437 435
f 388 436 438
f 388 438 390
f 389 391 439
f 389 439 437
f 390 438 440
f 390 440 392
f 391 393 441
f 391 441 439
f 392 440 442
f 392 442 394
f 393 395 443
f 393 443 441
f 394 442 444
f 394 444 396
f 398 397 445
f 398 445 446
f 395 398 446
f 395 446 443
f 397 399 447
f 397 447 445
f 399 400 448
f 399 448 447
f 400 401 449
f 400 449 448
f 401 402 450
f 401 450 449
f 402 403 451
f 402 451 450
f 403 404 452
f 403 452 451
f 404 405 453
f 404 453 452
f 405 406 454
f 405 454 453
f 406 407 455
f 406 455 454
f 407 408 456
f 407 456 455
f 408 409 457
f 408 457 456
f 396 444 457
f 396 457 409
f 410 458 459
f 410 459 411
f 410 412 460
f 410 460 458
f 411 459 461
f 411 461 413
f 413 461 462
f 413 462 414
f 414 462 463
f 414 463 415
f 415 463 464
f 415 464 416
f 416 464 465
f 416 465 417
f 417 465 466
f 417 466 418
f 418 466 467
f 418 467 419
f 419 467 468
f 419 468 420
f 420 468 469
f 420 469 421
f 421 469 470
f 421 470 422
f 422 470 471
f 422 471 423
f 423 471 472
f 423 472 424
f 412 425 473
f 412 473 460
f 424 472 474
f 424 474 426
f 425 427 475
f 425 475 473
f 426 474 476
f 426 476 428
f 427 429 477
f 427 477 475
f 428 476 478
f 428 478 430
f 429 431 479
f 429 479 477
f 430 478 480
f 430 480 432
f 431 433 481
f 431 481 479
f 432 480 482
f 432 482 434
f 433 435 483
f 433 483 481
f 434 482 484
f 434 484 436
f 435 437 485
f 435 485 483
f 436 484 486
f 436 486 438
f 437 439 487
f 437 487 485
f 438 486 488
f 438 488 440
f 439 441 489
f 439 489 487
f 440 488 490
f 440 490 442
f 441 443 491
f 441 491 489
f 442 490 492
f 442 492 444
f 446 445 493
f 446 493 494
f 443 446 494
f 443 494 491
f 445 447 495
f 445 495 493
f 447 448 496
f 447 496 495
f 448 449 497
f 448 497 496
f 449 450 498
f 449 498 497
f 450 451 499
f 450 499 498
f 451 452 500
f 451 500 499
f 452 453 501
f 452 501 500
f 453 454 502
f 453 502 501
f 454 455 503
f 454 503 502
f 455 456 504
f 455 504 503
f 456 457 505
f 456 505 504
f 444 492 505
f 444 505 457
f 458 506 507
f 458 507 459
f 458 460 508
f 458 508 506
f 459 507 509
f 459 509 461
f 461 509 510
f 461 510 462
f 462 510 511
f 462 511 463
f 463 511 512
f 463 512 464
f 464 512 513
f 464 513 465
f 465 513 514
f 465 514 466
f 466 514 515
f 466 515 467
f 467 515 516
f 467 516 468
f 468 516 517
f 468 517 469
f 469 517 518
f 469 518 470
f 470 518 519
f 470 519 471
f 471 519 520
f 471 520 472
f 460 473 521
f 460 521 508
f 472 520 522
f 472 522 474
f 473 475 523
f 473 523 521
f 474 522 524
f 474 524 476
f 475 477 525
f 475 525 523
f 476 524 526
f 476 526 478
f 477 479 527
f 477 527 525
f 478 526 528
f 478 528 480
f 479 481 529
f 479 529 527
f 480 528 530
f 480 530 482
f 481 483 531
f 481 531 529
f 482 530 532
f 482 532 484
f 483 485 533
f 483 533 531
f 484 532 534
f 484 534 486
f 485 487 535
f 485 535 533
f 486 534 536
f 486 536 488
f 487 489 537
f 487 537 535
f 488 536 538
f 488 538 490
f 489 491 539
f 489 539 537
f 490 538 540
f 490 540 492
f 494 493 541
f 494 541 542
f 491 494 542
f 491 542 539
f 493 495 543
f 493 543 541
f 495 496 544
f 495 544 543
f 496 497 545
f 496 545 544
f 497 498 546
f 497 546 545
f 498 499 547
f 498 547 546
f 499 500 548
f 499 548 547
f 500 501 549
f 500 549 548
f 501 502 550
f 501 550 549
f 502 503 551
f 502 551 550
f 503 504 552
f 503 552 551
f 504 505 553
f 504 553 552
f 492 540 553
f 492 553 505
f 506 554 555
f 506 555 507
f 506 508 556
f 506 556 554
f 507 555 557
f 507 557 509
f 509 557 558
f 509 558 510
f 510 558 559
f 510 559 511
f 511 559 560
f 511 560 512
f 512 560 561
f 512 561 513
f 513 561 562
f 513 562 514
f 514 562 563
f 514 563 515
f 515 563 564
f 515 564 516
f 516 564 565
f 516 565 517
f 517 565 566
f 517 566 518
f 518 566 567
f 518 567 519
f 519 567 568
f 519 568 520
f 508 521 569
f 508 569 556
f 520 568 570
f 520 570 522
f 521 523 571
f 521 571 569
f 522 570 572
f 522 572 524
f 523 525 573
f 523 573 571
f 524 572 574
f 524 574 526
f 525 527 575
f 525 575 573
f 526 574 576
f 526 576 528
f 527 529 577
f 527 577 575
f 528 576 578
f 528 578 530
f 529 531 579
f 529 579 577
f 530 578 580
f 530 580 532
f 531 533 581
f 531 581 579
f 532 580 582
f 532 582 534
f 533 535 583
f 533 583 581
f 534 582 584
f 534 584 536
f 535 537 585
f 535 585 583
f 536 584 586
f 536 586 538
f 537 539 587
f 537 587 585
f 538 586 588
f 538 588 540
f 542 541 589
f 542 589 590
f 539 542 590
f 539 590 587
f 541 543 591
f 541 591 589
f 543 544 592
f 543 592 591
f 544 545 593
f 544 593 592
f 545 546 594
f 545 594 593
f 546 547 595
f 546 595 594
f 547 548 596
f 547 596 595
f 548 549 597
f 548 597 596
f 549 550 598
f 549 598 597
f 550 551 599
f 550 599 598
f 551 552 600
f 551 600 599
f 552 553 601
f 552 601 600
f 540 588 601
f 540 601 553
f 554 602 603
f 554 603 555
f 554 556 604
f 554 604 602
f 555 603 605
f 555 605 557
f 557 605 606
f 557 606 558
f 558 606 607
f 558 607 559
f 559 607 608
f 559 608 560
f 560 608 609
f 560 609 561
f 561 609 610
f 561 610 562
f 562 610 611
f 562 611 563
f 563 611 612
f 563 612 564
f 564 612 613
f 564 613 565
f 565 613 614
f 565 614 566
f 566 614 615
f 566 615 567
f 567 615 616
f 567 616 568
f 556 569 617
f 556 617 604
f 568 616 618
f 568 618 570
f 569 571 619
f 569 619 617
f 570 618 620
f 570 620 572
f 571 573 621
f 571 621 619
f 572 620 622
f 572 622 574
f 573 575 623
f 573 623 621
f 574 622 624
f 574 624 576
f 575 577 625
f 575 625 623
f 576 624 626
f 576 626 578
f 577 579 627
f 577 627 625
f 578 626 628
f 578 628 580
f 579 581 629
f 579 629 627
f 580 628 630
f 580 630 582
f 581 583 631
f 581 631 629
f 582 630 632
f 582 632 584
f 583 585 633
f 583 633 631
f 584 632 634
f 584 634 586
f 585 587 635
f 585 635 633
f 586 634 636
f 586 636 588
f 590 589 637
f 590 637 638
f 587 590 638
f 587 638 635
f 589 591 639
f 589 639 637
f 591 592 640
f 591 640 639
f 592 593 641
f 592 641 640
f 593 594 642
f 593 642 641
f 594 595 643
f 594 643 642
f 595 596 644
f 595 644 643
f 596 597 645
f 596 645 644
f 597 598 646
f 597 646 645
f 598 599 647
f 598 647 646
f 599 600 648
f 599 648 647
f 600 601 649
f 600 649 648
f 588 636 649
f 588 649 601
f 602 650 651
f 602 651 603
f 602 604 652
f 602 652 650
f 603 651 653
f 603 653 605
f 605 653 654
f 605 654 606
f 606 654 655
f 606 655 607
f 607 655 656
f 607 656 608
f 608 656 657
f 608 657 609
f 609 657 658
f 609 658 610
f 610 658 659
f 610 659 611
f 611 659 660
f 611 660 612
f 612 660 661
f 612 661 613
f 613 661 662
f 613 662 614
f 614 662 663
f 614 663 615
f 615 663 664
f 615 664 616
f 604 617 665
f 604 665 652
f 616 664 666
f 616 666 618
f 617 619 667
f 617 667 665
f 618 666 668
f 618 668 620
f 619 621 669
f 619 669 667
f 620 668 670
f 620 670 622
f 621 623 671
f 621 671 669
f 622 670 672
f 622 672 624
f 623 625 673
f 623 673 671
f 624 672 674
f 624 674 626
f 625 627 675
f 625 675 673
f 626 674 676
f 626 676 628
f 627 629 677
f 627 677 675
f 628 676 678
f 628 678 630
f 629 631 679
f 629 679 677
f 630 678 680
f 630 680 632
f 631 633 681
f 631 681 679
f 632 680 682
f 632 682 634
f 633 635 683
f 633 683 681
f 634 682 684
f 634 684 636
f 638 637 685
f 638 685 686
f 635 638 686
f 635 686 683
f 637 639 687
f 637 687 685
f 639 640 688
f 639 688 687
f 640 641 689
f 640 689 688
f 641 642 690
f 641 690 689
f 642 643 691
f 642 691 690
f 643 644 692
f 643 692 691
f 644 645 693
f 644 693 692
f 645 646 694
f 645 694 693
f 646 647 695
f 646 695 694
f 647 648 696
f 647 696 695
f 648 649 697
f 648 697 696
f 636 684 697
f 636 697 649
f 698 699 700
f 698 700 701
f 650 698 701
f 650 701 651
f 650 652 699
f 650 699 698
f 701 700 702
f 701 702 703
f 651 701 703
f 651 703 653
f 703 702 704
f 703 704 705
f 653 703 705
f 653 705 654
f 705 704 706
f 705 706 707
f 654 705 707
f 654 707 655
f 707 706 708
f 707 708 709
f 655 707 709
f 655 709 656
f 709 708 710
f 709 710 711
f 656 709 711
f 656 711 657
f 711 710 712
f 711 712 713
f 657 711 713
f 657 713 658
f 713 712 714
f 713 714 715
f 658 713 715
f 658 715 659
f 715 714 716
f 715 716 717
f 659 715 717
f 659 717 660
f 717 716 718
f 717 718 719
f 660 717 719
f 660 719 661
f 719 718 720
f 719 720 721
f 661 719 721
f 661 721 662
f 721 720 722
f 721 722 723
f 662 721 723
f 662 723 663
f 663 723 722
f 663 722 664
f 699 724 725
f 699 725 700
f 652 665 724
f 652 724 699
f 700 725 726
f 700 726 702
f 702 726 727
f 702 727 704
f 704 727 728
f 704 728 706
f 706 728 729
f 706 729 708
f 708 729 730
f 708 730 710
f 710 730 731
f 710 731 712
f 712 731 732
f 712 732 714
f 714 732 733
f 714 733 716
f 716 733 734
f 716 734 718
f 718 734 735
f 718 735 720
f 720 735 736
f 720 736 722
f 664 722 736
f 664 736 666
f 724 737 738
f 724 738 725
f 665 667 737
f 665 737 724
f 725 738 739
f 725 739 726
f 726 739 740
f 726 740 727
f 727 740 741
f 727 741 728
f 728 741 742
f 728 742 729
f 729 742 743
f 729 743 730
f 730 743 744
f 730 744 731
f 731 744 745
f 731 745 732
f 732 745 746
f 732 746 733
f 733 746 747
f 733 747 734
f 734 747 748
f 734 748 735
f 735 748 749
f 735 749 736
f 666 736 749
f 666 749 668
f 737 750 751
f 737 751 738
f 667 669 750
f 667 750 737
f 738 751 752
f 738 752 739
f 739 752 753
f 739 753 740
f 740 753 754
f 740 754 741
f 741 754 755
f 741 755 742
f 742 755 756
f 742 756 743
f 743 756 757
f 743 757 744
f 744 757 758
f 744 758 745
f 745 758 759
f 745 759 746
f 746 759 760
f 746 760 747
f 747 760 761
f 747 761 748
f 748 761 762
f 748 762 749
f 668 749 762
f 668 762 670
f 750 763 764
f 750 764 751
f 669 671 763
f 669 763 750
f 751 764 765
f 751 765 752
f 752 765 766
f 752 766 753
f 753 766 767
f 753 767 754
f 754 767 768
f 754 768 755
f 755 768 769
f 755 769 756
f 756 769 770
f 756 770 757
f 757 770 771
f 757 771 758
f 758 771 772
f 758 772 759
f 759 772 773
f 759 773 760
f 760 773 774
f 760 774 761
f 761 774 775
f 761 775 762
f 670 762 775
f 670 775 672
f 763 776 777
f 763 777 764
f 671 673 776
f 671 776 763
f 764 777 778
f 764 778 765
f 765 778 779
f 765 779 766
f 766 779 780
f 766 780 767
f 767 780 781
f 767 781 768
f 768 781 782
f 768 782 769
f 769 782 783
f 769 783 770
f 770 783 784
f 770 784 771
f 771 784 785
f 771 785 772
f 772 785 786
f 772 786 773
f 773 786 787
f 773 787 774
f 774 787 788
f 774 788 775
f 672 775 788
f 672 788 674
f 776 789 790
f 776 790 777
f 673 675 789
f 673 789 776
f 777 790 791
f 777 791 778
f 778 791 792
f 778 792 779
f 779 792 793
f 779 793 780
f 780 793 794
f 780 794 781
f 781 794 795
f 781 795 782
f 783 796 797
f 783 797 784
f 784 797 798
f 784 798 785
f 785 798 799
f 785 799 786
f 786 799 800
f 786 800 787
f 787 800 801
f 787 801 788
f 674 788 801
f 674 801 676
f 789 802 803
f 789 803 790
f 675 677 802
f 675 802 789
f 790 803 804
f 790 804 791
f 791 804 805
f 791 805 792
f 792 805 806
f 792 806 793
f 793 806 807
f 793 807 794
f 794 807 808
f 794 808 795
f 795 808 809
f 795 809 796
f 796 809 810
f 796 810 797
f 797 810 811
f 797 811 798
f 798 811 812
f 798 812 799
f 799 812 813
f 799 813 800
f 800 813 814
f 800 814 801
f 676 801 814
f 676 814 678
f 802 815 816
f 802 816 803
f 677 679 815
f 677 815 802
f 803 816 817
f 803 817 804
f 804 817 818
f 804 818 805
f 805 818 819
f 805 819 806
f 806 819 820
f 806 820 807
f 807 820 821
f 807 821 808
f 808 821 822
f 808 822 809
f 809 822 823
f 809 823 810
f 810 823 824
f 810 824 811
f 811 824 825
f 811 825 812
f 812 825 826
f 812 826 813
f 813 826 827
f 813 827 814
f 678 814 827
f 678 827 680
f 815 828 829
f 815 829 816
f 679 681 828
f 679 828 815
f 816 829 830
f 816 830 817
f 817 830 831
f 817 831 818
f 818 831 832
f 818 832 819
f 819 832 833
f 819 833 820
f 820 833 834
f 820 834 821
f 821 834 835
f 821 835 822
f 822 835 836
f 822 836 823
f 823 836 837
f 823 837 824
f 824 837 838
f 824 838 825
f 825 838 839
f 825 839 826
f 826 839 840
f 826 840 827
f 680 827 840
f 680 840 682
f 828 841 842
f 828 842 829
f 681 683 841
f 681 841 828
f 829 842 843
f 829 843 830
f 830 843 844
f 830 844 831
f 831 844 845
f 831 845 832
f 832 845 846
f 832 846 833
f 833 846 847
f 833 847 834
f 834 847 848
f 834 848 835
f 835 848 849
f 835 849 836
f 836 849 850
f 836 850 837
f 837 850 851
f 837 851 838
f 838 851 852
f 838 852 839
f 839 852 853
f 839 853 840
f 682 840 853
f 682 853 684
f 841 854 855
f 841 855 842
f 686 685 855
f 686 855 854
f 683 686 854
f 683 854 841
f 842 855 856
f 842 856 843
f 685 687 856
f 685 856 855
f 843 856 857
f 843 857 844
f 687 688 857
f 687 857 856
f 844 857 858
f 844 858 845
f 688 689 858
f 688 858 857
f 845 858 859
f 845 859 846
f 689 690 859
f 689 859 858
f 846 859 860
f 846 860 847
f 690 691 860
f 690 860 859
f 847 860 861
f 847 861 848
f 691 692 861
f 691 861 860
f 848 861 862
f 848 862 849
f 692 693 862
f 692 862 861
f 849 862 863
f 849 863 850
f 693 694 863
f 693 863 862
f 850 863 864
f 850 864 851
f 694 695 864
f 694 864 863
f 851 864 865
f 851 865 852
f 695 696 865
f 695 865 864
f 852 865 866
f 852 866 853
f 696 697 866
f 696 866 865
f 684 853 866
f 684 866 697
f 782 867 868
f 782 868 783
f 795 796 869
f 795 869 870
f 782 795 870
f 782 870 867
f 783 868 869
f 783 869 796
f 867 871 872
f 867 872 868
f 870 869 873
f 870 873 874
f 867 870 874
f 867 874 871
f 868 872 873
f 868 873 869
f 871 875 876
f 871 876 872
f 874 873 877
f 874 877 878
f 871 874 878
f 871 878 875
f 872 876 877
f 872 877 873
f 875 879 880
f 875 880 876
f 878 877 881
f 878 881 882
f 875 878 882
f 875 882 879
f 876 880 881
f 876 881 877
f 879 883 884
f 879 884 880
f 882 881 885
f 882 885 886
f 879 882 886
f 879 886 883
f 880 884 885
f 880 885 881
f 883 887 888
f 883 888 884
f 886 885 889
f 886 889 890
f 883 886 890
f 883 890 887
f 884 888 889
f 884 889 885
f 887 891 892
f 887 892 888
f 890 889 893
f 890 893 894
f 887 890 894
f 887 894 891
f 888 892 893
f 888 893 889
f 891 895 896
f 891 896 892
f 894 893 897
f 894 897 898
f 891 894 898
f 891 898 895
f 892 896 897
f 892 897 893
f 895 899 900
f 895 900 896
f 898 897 901
f 898 901 902
f 895 898 902
f 895 902 899
f 896 900 901
f 896 901 897
f 899 903 904
f 899 904 900
f 902 901 905
f 902 905 906
f 899 902 906
f 899 906 903
f 900 904 905
f 900 905 901
f 903 907 908
f 903 908 904
f 906 905 909
f 906 909 910
f 903 906 910
f 903 910 907
f 904 908 909
f 904 909 905
f 907 911 912
f 907 912 908
f 910 909 913
f 910 913 914
f 907 910 914
f 907 914 911
f 908 912 913
f 908 913 909
f 911 915 916
f 911 916 912
f 914 913 917
f 914 917 918
f 911 914 918
f 911 918 915
f 912 916 917
f 912 917 913
f 915 919 920
f 915 920 916
f 918 917 921
f 918 921 922
f 915 918 922
f 915 922 919
f 916 920 921
f 916 921 917
f 919 923 924
f 919 924 920
f 922 921 925
f 922 925 926
f 919 922 926
f 919 926 923
f 920 924 925
f 920 925 921
f 923 927 928
f 923 928 924
f 926 925 929
f 926 929 930
f 923 926 930
f 923 930 927
f 924 928 929
f 924 929 925
f 927 931 932
f 927 932 928
f 930 929 933
f 930 933 934
f 927 930 934
f 927 934 931
f 928 932 933
f 928 933 929
f 935 936 937
f 935 937 938
f 931 935 938
f 931 938 932
f 934 933 937
f 934 937 936
f 931 934 936
f 931 936 935
f 932 938 937
f 932 937 933
