# Synthetic mesh for S5/S6 experiments
# Baseline 8x8x8 cube; no intended weak bridge.
# occupied_voxels=512

v 0.000000 0.000000 0.000000
v 0.000000 0.000000 1.000000
v 0.000000 1.000000 1.000000
v 0.000000 1.000000 0.000000
v 1.000000 0.000000 0.000000
v 1.000000 0.000000 1.000000
v 1.000000 1.000000 0.000000
v 0.000000 0.000000 2.000000
v 0.000000 1.000000 2.000000
v 1.000000 0.000000 2.000000
v 0.000000 0.000000 3.000000
v 0.000000 1.000000 3.000000
v 1.000000 0.000000 3.000000
v 0.000000 0.000000 4.000000
v 0.000000 1.000000 4.000000
v 1.000000 0.000000 4.000000
v 0.000000 0.000000 5.000000
v 0.000000 1.000000 5.000000
v 1.000000 0.000000 5.000000
v 0.000000 0.000000 6.000000
v 0.000000 1.000000 6.000000
v 1.000000 0.000000 6.000000
v 0.000000 0.000000 7.000000
v 0.000000 1.000000 7.000000
v 1.000000 0.000000 7.000000
v 0.000000 0.000000 8.000000
v 0.000000 1.000000 8.000000
v 1.000000 0.000000 8.000000
v 1.000000 1.000000 8.000000
v 0.000000 2.000000 1.000000
v 0.000000 2.000000 0.000000
v 1.000000 2.000000 0.000000
v 0.000000 2.000000 2.000000
v 0.000000 2.000000 3.000000
v 0.000000 2.000000 4.000000
v 0.000000 2.000000 5.000000
v 0.000000 2.000000 6.000000
v 0.000000 2.000000 7.000000
v 0.000000 2.000000 8.000000
v 1.000000 2.000000 8.000000
v 0.000000 3.000000 1.000000
v 0.000000 3.000000 0.000000
v 1.000000 3.000000 0.000000
v 0.000000 3.000000 2.000000
v 0.000000 3.000000 3.000000
v 0.000000 3.000000 4.000000
v 0.000000 3.000000 5.000000
v 0.000000 3.000000 6.000000
v 0.000000 3.000000 7.000000
v 0.000000 3.000000 8.000000
v 1.000000 3.000000 8.000000
v 0.000000 4.000000 1.000000
v 0.000000 4.000000 0.000000
v 1.000000 4.000000 0.000000
v 0.000000 4.000000 2.000000
v 0.000000 4.000000 3.000000
v 0.000000 4.000000 4.000000
v 0.000000 4.000000 5.000000
v 0.000000 4.000000 6.000000
v 0.000000 4.000000 7.000000
v 0.000000 4.000000 8.000000
v 1.000000 4.000000 8.000000
v 0.000000 5.000000 1.000000
v 0.000000 5.000000 0.000000
v 1.000000 5.000000 0.000000
v 0.000000 5.000000 2.000000
v 0.000000 5.000000 3.000000
v 0.000000 5.000000 4.000000
v 0.000000 5.000000 5.000000
v 0.000000 5.000000 6.000000
v 0.000000 5.000000 7.000000
v 0.000000 5.000000 8.000000
v 1.000000 5.000000 8.000000
v 0.000000 6.000000 1.000000
v 0.000000 6.000000 0.000000
v 1.000000 6.000000 0.000000
v 0.000000 6.000000 2.000000
v 0.000000 6.000000 3.000000
v 0.000000 6.000000 4.000000
v 0.000000 6.000000 5.000000
v 0.000000 6.000000 6.000000
v 0.000000 6.000000 7.000000
v 0.000000 6.000000 8.000000
v 1.000000 6.000000 8.000000
v 0.000000 7.000000 1.000000
v 0.000000 7.000000 0.000000
v 1.000000 7.000000 0.000000
v 0.000000 7.000000 2.000000
v 0.000000 7.000000 3.000000
v 0.000000 7.000000 4.000000
v 0.000000 7.000000 5.000000
v 0.000000 7.000000 6.000000
v 0.000000 7.000000 7.000000
v 0.000000 7.000000 8.000000
v 1.000000 7.000000 8.000000
v 0.000000 8.000000 1.000000
v 0.000000 8.000000 0.000000
v 1.000000 8.000000 1.000000
v 1.000000 8.000000 0.000000
v 0.000000 8.000000 2.000000
v 1.000000 8.000000 2.000000
v 0.000000 8.000000 3.000000
v 1.000000 8.000000 3.000000
v 0.000000 8.000000 4.000000
v 1.000000 8.000000 4.000000
v 0.000000 8.000000 5.000000
v 1.000000 8.000000 5.000000
v 0.000000 8.000000 6.000000
v 1.000000 8.000000 6.000000
v 0.000000 8.000000 7.000000
v 1.000000 8.000000 7.000000
v 0.000000 8.000000 8.000000
v 1.000000 8.000000 8.000000
v 2.000000 0.000000 0.000000
v 2.000000 0.000000 1.000000
v 2.000000 1.000000 0.000000
v 2.000000 0.000000 2.000000
v 2.000000 0.000000 3.000000
v 2.000000 0.000000 4.000000
v 2.000000 0.000000 5.000000
v 2.000000 0.000000 6.000000
v 2.000000 0.000000 7.000000
v 2.000000 0.000000 8.000000
v 2.000000 1.000000 8.000000
v 2.000000 2.000000 0.000000
v 2.000000 2.000000 8.000000
v 2.000000 3.000000 0.000000
v 2.000000 3.000000 8.000000
v 2.000000 4.000000 0.000000
v 2.000000 4.000000 8.000000
v 2.000000 5.000000 0.000000
v 2.000000 5.000000 8.000000
v 2.000000 6.000000 0.000000
v 2.000000 6.000000 8.000000
v 2.000000 7.000000 0.000000
v 2.000000 7.000000 8.000000
v 2.000000 8.000000 1.000000
v 2.000000 8.000000 0.000000
v 2.000000 8.000000 2.000000
v 2.000000 8.000000 3.000000
v 2.000000 8.000000 4.000000
v 2.000000 8.000000 5.000000
v 2.000000 8.000000 6.000000
v 2.000000 8.000000 7.000000
v 2.000000 8.000000 8.000000
v 3.000000 0.000000 0.000000
v 3.000000 0.000000 1.000000
v 3.000000 1.000000 0.000000
v 3.000000 0.000000 2.000000
v 3.000000 0.000000 3.000000
v 3.000000 0.000000 4.000000
v 3.000000 0.000000 5.000000
v 3.000000 0.000000 6.000000
v 3.000000 0.000000 7.000000
v 3.000000 0.000000 8.000000
v 3.000000 1.000000 8.000000
v 3.000000 2.000000 0.000000
v 3.000000 2.000000 8.000000
v 3.000000 3.000000 0.000000
v 3.000000 3.000000 8.000000
v 3.000000 4.000000 0.000000
v 3.000000 4.000000 8.000000
v 3.000000 5.000000 0.000000
v 3.000000 5.000000 8.000000
v 3.000000 6.000000 0.000000
v 3.000000 6.000000 8.000000
v 3.000000 7.000000 0.000000
v 3.000000 7.000000 8.000000
v 3.000000 8.000000 1.000000
v 3.000000 8.000000 0.000000
v 3.000000 8.000000 2.000000
v 3.000000 8.000000 3.000000
v 3.000000 8.000000 4.000000
v 3.000000 8.000000 5.000000
v 3.000000 8.000000 6.000000
v 3.000000 8.000000 7.000000
v 3.000000 8.000000 8.000000
v 4.000000 0.000000 0.000000
v 4.000000 0.000000 1.000000
v 4.000000 1.000000 0.000000
v 4.000000 0.000000 2.000000
v 4.000000 0.000000 3.000000
v 4.000000 0.000000 4.000000
v 4.000000 0.000000 5.000000
v 4.000000 0.000000 6.000000
v 4.000000 0.000000 7.000000
v 4.000000 0.000000 8.000000
v 4.000000 1.000000 8.000000
v 4.000000 2.000000 0.000000
v 4.000000 2.000000 8.000000
v 4.000000 3.000000 0.000000
v 4.000000 3.000000 8.000000
v 4.000000 4.000000 0.000000
v 4.000000 4.000000 8.000000
v 4.000000 5.000000 0.000000
v 4.000000 5.000000 8.000000
v 4.000000 6.000000 0.000000
v 4.000000 6.000000 8.000000
v 4.000000 7.000000 0.000000
v 4.000000 7.000000 8.000000
v 4.000000 8.000000 1.000000
v 4.000000 8.000000 0.000000
v 4.000000 8.000000 2.000000
v 4.000000 8.000000 3.000000
v 4.000000 8.000000 4.000000
v 4.000000 8.000000 5.000000
v 4.000000 8.000000 6.000000
v 4.000000 8.000000 7.000000
v 4.000000 8.000000 8.000000
v 5.000000 0.000000 0.000000
v 5.000000 0.000000 1.000000
v 5.000000 1.000000 0.000000
v 5.000000 0.000000 2.000000
v 5.000000 0.000000 3.000000
v 5.000000 0.000000 4.000000
v 5.000000 0.000000 5.000000
v 5.000000 0.000000 6.000000
v 5.000000 0.000000 7.000000
v 5.000000 0.000000 8.000000
v 5.000000 1.000000 8.000000
v 5.000000 2.000000 0.000000
v 5.000000 2.000000 8.000000
v 5.000000 3.000000 0.000000
v 5.000000 3.000000 8.000000
v 5.000000 4.000000 0.000000
v 5.000000 4.000000 8.000000
v 5.000000 5.000000 0.000000
v 5.000000 5.000000 8.000000
v 5.000000 6.000000 0.000000
v 5.000000 6.000000 8.000000
v 5.000000 7.000000 0.000000
v 5.000000 7.000000 8.000000
v 5.000000 8.000000 1.000000
v 5.000000 8.000000 0.000000
v 5.000000 8.000000 2.000000
v 5.000000 8.000000 3.000000
v 5.000000 8.000000 4.000000
v 5.000000 8.000000 5.000000
v 5.000000 8.000000 6.000000
v 5.000000 8.000000 7.000000
v 5.000000 8.000000 8.000000
v 6.000000 0.000000 0.000000
v 6.000000 0.000000 1.000000
v 6.000000 1.000000 0.000000
v 6.000000 0.000000 2.000000
v 6.000000 0.000000 3.000000
v 6.000000 0.000000 4.000000
v 6.000000 0.000000 5.000000
v 6.000000 0.000000 6.000000
v 6.000000 0.000000 7.000000
v 6.000000 0.000000 8.000000
v 6.000000 1.000000 8.000000
v 6.000000 2.000000 0.000000
v 6.000000 2.000000 8.000000
v 6.000000 3.000000 0.000000
v 6.000000 3.000000 8.000000
v 6.000000 4.000000 0.000000
v 6.000000 4.000000 8.000000
v 6.000000 5.000000 0.000000
v 6.000000 5.000000 8.000000
v 6.000000 6.000000 0.000000
v 6.000000 6.000000 8.000000
v 6.000000 7.000000 0.000000
v 6.000000 7.000000 8.000000
v 6.000000 8.000000 1.000000
v 6.000000 8.000000 0.000000
v 6.000000 8.000000 2.000000
v 6.000000 8.000000 3.000000
v 6.000000 8.000000 4.000000
v 6.000000 8.000000 5.000000
v 6.000000 8.000000 6.000000
v 6.000000 8.000000 7.000000
v 6.000000 8.000000 8.000000
v 7.000000 0.000000 0.000000
v 7.000000 0.000000 1.000000
v 7.000000 1.000000 0.000000
v 7.000000 0.000000 2.000000
v 7.000000 0.000000 3.000000
v 7.000000 0.000000 4.000000
v 7.000000 0.000000 5.000000
v 7.000000 0.000000 6.000000
v 7.000000 0.000000 7.000000
v 7.000000 0.000000 8.000000
v 7.000000 1.000000 8.000000
v 7.000000 2.000000 0.000000
v 7.000000 2.000000 8.000000
v 7.000000 3.000000 0.000000
v 7.000000 3.000000 8.000000
v 7.000000 4.000000 0.000000
v 7.000000 4.000000 8.000000
v 7.000000 5.000000 0.000000
v 7.000000 5.000000 8.000000
v 7.000000 6.000000 0.000000
v 7.000000 6.000000 8.000000
v 7.000000 7.000000 0.000000
v 7.000000 7.000000 8.000000
v 7.000000 8.000000 1.000000
v 7.000000 8.000000 0.000000
v 7.000000 8.000000 2.000000
v 7.000000 8.000000 3.000000
v 7.000000 8.000000 4.000000
v 7.000000 8.000000 5.000000
v 7.000000 8.000000 6.000000
v 7.000000 8.000000 7.000000
v 7.000000 8.000000 8.000000
v 8.000000 0.000000 0.000000
v 8.000000 1.000000 0.000000
v 8.000000 1.000000 1.000000
v 8.000000 0.000000 1.000000
v 8.000000 1.000000 2.000000
v 8.000000 0.000000 2.000000
v 8.000000 1.000000 3.000000
v 8.000000 0.000000 3.000000
v 8.000000 1.000000 4.000000
v 8.000000 0.000000 4.000000
v 8.000000 1.000000 5.000000
v 8.000000 0.000000 5.000000
v 8.000000 1.000000 6.000000
v 8.000000 0.000000 6.000000
v 8.000000 1.000000 7.000000
v 8.000000 0.000000 7.000000
v 8.000000 1.000000 8.000000
v 8.000000 0.000000 8.000000
v 8.000000 2.000000 0.000000
v 8.000000 2.000000 1.000000
v 8.000000 2.000000 2.000000
v 8.000000 2.000000 3.000000
v 8.000000 2.000000 4.000000
v 8.000000 2.000000 5.000000
v 8.000000 2.000000 6.000000
v 8.000000 2.000000 7.000000
v 8.000000 2.000000 8.000000
v 8.000000 3.000000 0.000000
v 8.000000 3.000000 1.000000
v 8.000000 3.000000 2.000000
v 8.000000 3.000000 3.000000
v 8.000000 3.000000 4.000000
v 8.000000 3.000000 5.000000
v 8.000000 3.000000 6.000000
v 8.000000 3.000000 7.000000
v 8.000000 3.000000 8.000000
v 8.000000 4.000000 0.000000
v 8.000000 4.000000 1.000000
v 8.000000 4.000000 2.000000
v 8.000000 4.000000 3.000000
v 8.000000 4.000000 4.000000
v 8.000000 4.000000 5.000000
v 8.000000 4.000000 6.000000
v 8.000000 4.000000 7.000000
v 8.000000 4.000000 8.000000
v 8.000000 5.000000 0.000000
v 8.000000 5.000000 1.000000
v 8.000000 5.000000 2.000000
v 8.000000 5.000000 3.000000
v 8.000000 5.000000 4.000000
v 8.000000 5.000000 5.000000
v 8.000000 5.000000 6.000000
v 8.000000 5.000000 7.000000
v 8.000000 5.000000 8.000000
v 8.000000 6.000000 0.000000
v 8.000000 6.000000 1.000000
v 8.000000 6.000000 2.000000
v 8.000000 6.000000 3.000000
v 8.000000 6.000000 4.000000
v 8.000000 6.000000 5.000000
v 8.000000 6.000000 6.000000
v 8.000000 6.000000 7.000000
v 8.000000 6.000000 8.000000
v 8.000000 7.000000 0.000000
v 8.000000 7.000000 1.000000
v 8.000000 7.000000 2.000000
v 8.000000 7.000000 3.000000
v 8.000000 7.000000 4.000000
v 8.000000 7.000000 5.000000
v 8.000000 7.000000 6.000000
v 8.000000 7.000000 7.000000
v 8.000000 7.000000 8.000000
v 8.000000 8.000000 0.000000
v 8.000000 8.000000 1.000000
v 8.000000 8.000000 2.000000
v 8.000000 8.000000 3.000000
v 8.000000 8.000000 4.000000
v 8.000000 8.000000 5.000000
v 8.000000 8.000000 6.000000
v 8.000000 8.000000 7.000000
v 8.000000 8.000000 8.000000

f 1 2 3
f 1 3 4
f 1 5 6
f 1 6 2
f 1 4 7
f 1 7 5
f 2 8 9
f 2 9 3
f 2 6 10
f 2 10 8
f 8 11 12
f 8 12 9
f 8 10 13
f 8 13 11
f 11 14 15
f 11 15 12
f 11 13 16
f 11 16 14
f 14 17 18
f 14 18 15
f 14 16 19
f 14 19 17
f 17 20 21
f 17 21 18
f 17 19 22
f 17 22 20
f 20 23 24
f 20 24 21
f 20 22 25
f 20 25 23
f 23 26 27
f 23 27 24
f 23 25 28
f 23 28 26
f 26 28 29
f 26 29 27
f 4 3 30
f 4 30 31
f 4 31 32
f 4 32 7
f 3 9 33
f 3 33 30
f 9 12 34
f 9 34 33
f 12 15 35
f 12 35 34
f 15 18 36
f 15 36 35
f 18 21 37
f 18 37 36
f 21 24 38
f 21 38 37
f 24 27 39
f 24 39 38
f 27 29 40
f 27 40 39
f 31 30 41
f 31 41 42
f 31 42 43
f 31 43 32
f 30 33 44
f 30 44 41
f 33 34 45
f 33 45 44
f 34 35 46
f 34 46 45
f 35 36 47
f 35 47 46
f 36 37 48
f 36 48 47
f 37 38 49
f 37 49 48
f 38 39 50
f 38 50 49
f 39 40 51
f 39 51 50
f 42 41 52
f 42 52 53
f 42 53 54
f 42 54 43
f 41 44 55
f 41 55 52
f 44 45 56
f 44 56 55
f 45 46 57
f 45 57 56
f 46 47 58
f 46 58 57
f 47 48 59
f 47 59 58
f 48 49 60
f 48 60 59
f 49 50 61
f 49 61 60
f 50 51 62
f 50 62 61
f 53 52 63
f 53 63 64
f 53 64 65
f 53 65 54
f 52 55 66
f 52 66 63
f 55 56 67
f 55 67 66
f 56 57 68
f 56 68 67
f 57 58 69
f 57 69 68
f 58 59 70
f 58 70 69
f 59 60 71
f 59 71 70
f 60 61 72
f 60 72 71
f 61 62 73
f 61 73 72
f 64 63 74
f 64 74 75
f 64 75 76
f 64 76 65
f 63 66 77
f 63 77 74
f 66 67 78
f 66 78 77
f 67 68 79
f 67 79 78
f 68 69 80
f 68 80 79
f 69 70 81
f 69 81 80
f 70 71 82
f 70 82 81
f 71 72 83
f 71 83 82
f 72 73 84
f 72 84 83
f 75 74 85
f 75 85 86
f 75 86 87
f 75 87 76
f 74 77 88
f 74 88 85
f 77 78 89
f 77 89 88
f 78 79 90
f 78 90 89
f 79 80 91
f 79 91 90
f 80 81 92
f 80 92 91
f 81 82 93
f 81 93 92
f 82 83 94
f 82 94 93
f 83 84 95
f 83 95 94
f 86 85 96
f 86 96 97
f 97 96 98
f 97 98 99
f 86 97 99
f 86 99 87
f 85 88 100
f 85 100 96
f 96 100 101
f 96 101 98
f 88 89 102
f 88 102 100
f 100 102 103
f 100 103 101
f 89 90 104
f 89 104 102
f 102 104 105
f 102 105 103
f 90 91 106
f 90 106 104
f 104 106 107
f 104 107 105
f 91 92 108
f 91 108 106
f 106 108 109
f 106 109 107
f 92 93 110
f 92 110 108
f 108 110 111
f 108 111 109
f 93 94 112
f 93 112 110
f 110 112 113
f 110 113 111
f 94 95 113
f 94 113 112
f 5 114 115
f 5 115 6
f 5 7 116
f 5 116 114
f 6 115 117
f 6 117 10
f 10 117 118
f 10 118 13
f 13 118 119
f 13 119 16
f 16 119 120
f 16 120 19
f 19 120 121
f 19 121 22
f 22 121 122
f 22 122 25
f 25 122 123
f 25 123 28
f 28 123 124
f 28 124 29
f 7 32 125
f 7 125 116
f 29 124 126
f 29 126 40
f 32 43 127
f 32 127 125
f 40 126 128
f 40 128 51
f 43 54 129
f 43 129 127
f 51 128 130
f 51 130 62
f 54 65 131
f 54 131 129
f 62 130 132
f 62 132 73
f 65 76 133
f 65 133 131
f 73 132 134
f 73 134 84
f 76 87 135
f 76 135 133
f 84 134 136
f 84 136 95
f 99 98 137
f 99 137 138
f 87 99 138
f 87 138 135
f 98 101 139
f 98 139 137
f 101 103 140
f 101 140 139
f 103 105 141
f 103 141 140
f 105 107 142
f 105 142 141
f 107 109 143
f 107 143 142
f 109 111 144
f 109 144 143
f 111 113 145
f 111 145 144
f 95 136 145
f 95 145 113
f 114 146 147
f 114 147 115
f 114 116 148
f 114 148 146
f 115 147 149
f 115 149 117
f 117 149 150
f 117 150 118
f 118 150 151
f 118 151 119
f 119 151 152
f 119 152 120
f 120 152 153
f 120 153 121
f 121 153 154
f 121 154 122
f 122 154 155
f 122 155 123
f 123 155 156
f 123 156 124
f 116 125 157
f 116 157 148
f 124 156 158
f 124 158 126
f 125 127 159
f 125 159 157
f 126 158 160
f 126 160 128
f 127 129 161
f 127 161 159
f 128 160 162
f 128 162 130
f 129 131 163
f 129 163 161
f 130 162 164
f 130 164 132
f 131 133 165
f 131 165 163
f 132 164 166
f 132 166 134
f 133 135 167
f 133 167 165
f 134 166 168
f 134 168 136
f 138 137 169
f 138 169 170
f 135 138 170
f 135 170 167
f 137 139 171
f 137 171 169
f 139 140 172
f 139 172 171
f 140 141 173
f 140 173 172
f 141 142 174
f 141 174 173
f 142 143 175
f 142 175 174
f 143 144 176
f 143 176 175
f 144 145 177
f 144 177 176
f 136 168 177
f 136 177 145
f 146 178 179
f 146 179 147
f 146 148 180
f 146 180 178
f 147 179 181
f 147 181 149
f 149 181 182
f 149 182 150
f 150 182 183
f 150 183 151
f 151 183 184
f 151 184 152
f 152 184 185
f 152 185 153
f 153 185 186
f 153 186 154
f 154 186 187
f 154 187 155
f 155 187 188
f 155 188 156
f 148 157 189
f 148 189 180
f 156 188 190
f 156 190 158
f 157 159 191
f 157 191 189
f 158 190 192
f 158 192 160
f 159 161 193
f 159 193 191
f 160 192 194
f 160 194 162
f 161 163 195
f 161 195 193
f 162 194 196
f 162 196 164
f 163 165 197
f 163 197 195
f 164 196 198
f 164 198 166
f 165 167 199
f 165 199 197
f 166 198 200
f 166 200 168
f 170 169 201
f 170 201 202
f 167 170 202
f 167 202 199
f 169 171 203
f 169 203 201
f 171 172 204
f 171 204 203
f 172 173 205
f 172 205 204
f 173 174 206
f 173 206 205
f 174 175 207
f 174 207 206
f 175 176 208
f 175 208 207
f 176 177 209
f 176 209 208
f 168 200 209
f 168 209 177
f 178 210 211
f 178 211 179
f 178 180 212
f 178 212 210
f 179 211 213
f 179 213 181
f 181 213 214
f 181 214 182
f 182 214 215
f 182 215 183
f 183 215 216
f 183 216 184
f 184 216 217
f 184 217 185
f 185 217 218
f 185 218 186
f 186 218 219
f 186 219 187
f 187 219 220
f 187 220 188
f 180 189 221
f 180 221 212
f 188 220 222
f 188 222 190
f 189 191 223
f 189 223 221
f 190 222 224
f 190 224 192
f 191 193 225
f 191 225 223
f 192 224 226
f 192 226 194
f 193 195 227
f 193 227 225
f 194 226 228
f 194 228 196
f 195 197 229
f 195 229 227
f 196 228 230
f 196 230 198
f 197 199 231
f 197 231 229
f 198 230 232
f 198 232 200
f 202 201 233
f 202 233 234
f 199 202 234
f 199 234 231
f 201 203 235
f 201 235 233
f 203 204 236
f 203 236 235
f 204 205 237
f 204 237 236
f 205 206 238
f 205 238 237
f 206 207 239
f 206 239 238
f 207 208 240
f 207 240 239
f 208 209 241
f 208 241 240
f 200 232 241
f 200 241 209
f 210 242 243
f 210 243 211
f 210 212 244
f 210 244 242
f 211 243 245
f 211 245 213
f 213 245 246
f 213 246 214
f 214 246 247
f 214 247 215
f 215 247 248
f 215 248 216
f 216 248 249
f 216 249 217
f 217 249 250
f 217 250 218
f 218 250 251
f 218 251 219
f 219 251 252
f 219 252 220
f 212 221 253
f 212 253 244
f 220 252 254
f 220 254 222
f 221 223 255
f 221 255 253
f 222 254 256
f 222 256 224
f 223 225 257
f 223 257 255
f 224 256 258
f 224 258 226
f 225 227 259
f 225 259 257
f 226 258 260
f 226 260 228
f 227 229 261
f 227 261 259
f 228 260 262
f 228 262 230
f 229 231 263
f 229 263 261
f 230 262 264
f 230 264 232
f 234 233 265
f 234 265 266
f 231 234 266
f 231 266 263
f 233 235 267
f 233 267 265
f 235 236 268
f 235 268 267
f 236 237 269
f 236 269 268
f 237 238 270
f 237 270 269
f 238 239 271
f 238 271 270
f 239 240 272
f 239 272 271
f 240 241 273
f 240 273 272
f 232 264 273
f 232 273 241
f 242 274 275
f 242 275 243
f 242 244 276
f 242 276 274
f 243 275 277
f 243 277 245
f 245 277 278
f 245 278 246
f 246 278 279
f 246 279 247
f 247 279 280
f 247 280 248
f 248 280 281
f 248 281 249
f 249 281 282
f 249 282 250
f 250 282 283
f 250 283 251
f 251 283 284
f 251 284 252
f 244 253 285
f 244 285 276
f 252 284 286
f 252 286 254
f 253 255 287
f 253 287 285
f 254 286 288
f 254 288 256
f 255 257 289
f 255 289 287
f 256 288 290
f 256 290 258
f 257 259 291
f 257 291 289
f 258 290 292
f 258 292 260
f 259 261 293
f 259 293 291
f 260 292 294
f 260 294 262
f 261 263 295
f 261 295 293
f 262 294 296
f 262 296 264
f 266 265 297
f 266 297 298
f 263 266 298
f 263 298 295
f 265 267 299
f 265 299 297
f 267 268 300
f 267 300 299
f 268 269 301
f 268 301 300
f 269 270 302
f 269 302 301
f 270 271 303
f 270 303 302
f 271 272 304
f 271 304 303
f 272 273 305
f 272 305 304
f 264 296 305
f 264 305 273
f 306 307 308
f 306 308 309
f 274 306 309
f 274 309 275
f 274 276 307
f 274 307 306
f 309 308 310
f 309 310 311
f 275 309 311
f 275 311 277
f 311 310 312
f 311 312 313
f 277 311 313
f 277 313 278
f 313 312 314
f 313 314 315
f 278 313 315
f 278 315 279
f 315 314 316
f 315 316 317
f 279 315 317
f 279 317 280
f 317 316 318
f 317 318 319
f 280 317 319
f 280 319 281
f 319 318 320
f 319 320 321
f 281 319 321
f 281 321 282
f 321 320 322
f 321 322 323
f 282 321 323
f 282 323 283
f 283 323 322
f 283 322 284
f 307 324 325
f 307 325 308
f 276 285 324
f 276 324 307
f 308 325 326
f 308 326 310
f 310 326 327
f 310 327 312
f 312 327 328
f 312 328 314
f 314 328 329
f 314 329 316
f 316 329 330
f 316 330 318
f 318 330 331
f 318 331 320
f 320 331 332
f 320 332 322
f 284 322 332
f 284 332 286
f 324 333 334
f 324 334 325
f 285 287 333
f 285 333 324
f 325 334 335
f 325 335 326
f 326 335 336
f 326 336 327
f 327 336 337
f 327 337 328
f 328 337 338
f 328 338 329
f 329 338 339
f 329 339 330
f 330 339 340
f 330 340 331
f 331 340 341
f 331 341 332
f 286 332 341
f 286 341 288
f 333 342 343
f 333 343 334
f 287 289 342
f 287 342 333
f 334 343 344
f 334 344 335
f 335 344 345
f 335 345 336
f 336 345 346
f 336 346 337
f 337 346 347
f 337 347 338
f 338 347 348
f 338 348 339
f 339 348 349
f 339 349 340
f 340 349 350
f 340 350 341
f 288 341 350
f 288 350 290
f 342 351 352
f 342 352 343
f 289 291 351
f 289 351 342
f 343 352 353
f 343 353 344
f 344 353 354
f 344 354 345
f 345 354 355
f 345 355 346
f 346 355 356
f 346 356 347
f 347 356 357
f 347 357 348
f 348 357 358
f 348 358 349
f 349 358 359
f 349 359 350
f 290 350 359
f 290 359 292
f 351 360 361
f 351 361 352
f 291 293 360
f 291 360 351
f 352 361 362
f 352 362 353
f 353 362 363
f 353 363 354
f 354 363 364
f 354 364 355
f 355 364 365
f 355 365 356
f 356 365 366
f 356 366 357
f 357 366 367
f 357 367 358
f 358 367 368
f 358 368 359
f 292 359 368
f 292 368 294
f 360 369 370
f 360 370 361
f 293 295 369
f 293 369 360
f 361 370 371
f 361 371 362
f 362 371 372
f 362 372 363
f 363 372 373
f 363 373 364
f 364 373 374
f 364 374 365
f 365 374 375
f 365 375 366
f 366 375 376
f 366 376 367
f 367 376 377
f 367 377 368
f 294 368 377
f 294 377 296
f 369 378 379
f 369 379 370
f 298 297 379
f 298 379 378
f 295 298 378
f 295 378 369
f 370 379 380
f 370 380 371
f 297 299 380
f 297 380 379
f 371 380 381
f 371 381 372
f 299 300 381
f 299 381 380
f 372 381 382
f 372 382 373
f 300 301 382
f 300 382 381
f 373 382 383
f 373 383 374
f 301 302 383
f 301 383 382
f 374 383 384
f 374 384 375
f 302 303 384
f 302 384 383
f 375 384 385
f 375 385 376
f 303 304 385
f 303 385 384
f 376 385 386
f 376 386 377
f 304 305 386
f 304 386 385
f 296 377 386
f 296 386 305
