# Synthetic mesh for S5/S6 experiments
# Two 8x8x8 bodies connected by an 8-long 2x2 bridge.
# occupied_voxels=1056

v 0.000000 0.000000 0.000000
v 0.000000 0.000000 1.000000
v 0.000000 1.000000 1.000000
v 0.000000 1.000000 0.000000
v 1.000000 0.000000 0.000000
v 1.000000 0.000000 1.000000
v 1.000000 1.000000 0.000000
v 0.000000 0.000000 2.000000
v 0.000000 1.000000 2.000000
v 1.000000 0.000000 2.000000
v 0.000000 0.000000 3.000000
v 0.000000 1.000000 3.000000
v 1.000000 0.000000 3.000000
v 0.000000 0.000000 4.000000
v 0.000000 1.000000 4.000000
v 1.000000 0.000000 4.000000
v 0.000000 0.000000 5.000000
v 0.000000 1.000000 5.000000
v 1.000000 0.000000 5.000000
v 0.000000 0.000000 6.000000
v 0.000000 1.000000 6.000000
v 1.000000 0.000000 6.000000
v 0.000000 0.000000 7.000000
v 0.000000 1.000000 7.000000
v 1.000000 0.000000 7.000000
v 0.000000 0.000000 8.000000
v 0.000000 1.000000 8.000000
v 1.000000 0.000000 8.000000
v 1.000000 1.000000 8.000000
v 0.000000 2.000000 1.000000
v 0.000000 2.000000 0.000000
v 1.000000 2.000000 0.000000
v 0.000000 2.000000 2.000000
v 0.000000 2.000000 3.000000
v 0.000000 2.000000 4.000000
v 0.000000 2.000000 5.000000
v 0.000000 2.000000 6.000000
v 0.000000 2.000000 7.000000
v 0.000000 2.000000 8.000000
v 1.000000 2.000000 8.000000
v 0.000000 3.000000 1.000000
v 0.000000 3.000000 0.000000
v 1.000000 3.000000 0.000000
v 0.000000 3.000000 2.000000
v 0.000000 3.000000 3.000000
v 0.000000 3.000000 4.000000
v 0.000000 3.000000 5.000000
v 0.000000 3.000000 6.000000
v 0.000000 3.000000 7.000000
v 0.000000 3.000000 8.000000
v 1.000000 3.000000 8.000000
v 0.000000 4.000000 1.000000
v 0.000000 4.000000 0.000000
v 1.000000 4.000000 0.000000
v 0.000000 4.000000 2.000000
v 0.000000 4.000000 3.000000
v 0.000000 4.000000 4.000000
v 0.000000 4.000000 5.000000
v 0.000000 4.000000 6.000000
v 0.000000 4.000000 7.000000
v 0.000000 4.000000 8.000000
v 1.000000 4.000000 8.000000
v 0.000000 5.000000 1.000000
v 0.000000 5.000000 0.000000
v 1.000000 5.000000 0.000000
v 0.000000 5.000000 2.000000
v 0.000000 5.000000 3.000000
v 0.000000 5.000000 4.000000
v 0.000000 5.000000 5.000000
v 0.000000 5.000000 6.000000
v 0.000000 5.000000 7.000000
v 0.000000 5.000000 8.000000
v 1.000000 5.000000 8.000000
v 0.000000 6.000000 1.000000
v 0.000000 6.000000 0.000000
v 1.000000 6.000000 0.000000
v 0.000000 6.000000 2.000000
v 0.000000 6.000000 3.000000
v 0.000000 6.000000 4.000000
v 0.000000 6.000000 5.000000
v 0.000000 6.000000 6.000000
v 0.000000 6.000000 7.000000
v 0.000000 6.000000 8.000000
v 1.000000 6.000000 8.000000
v 0.000000 7.000000 1.000000
v 0.000000 7.000000 0.000000
v 1.000000 7.000000 0.000000
v 0.000000 7.000000 2.000000
v 0.000000 7.000000 3.000000
v 0.000000 7.000000 4.000000
v 0.000000 7.000000 5.000000
v 0.000000 7.000000 6.000000
v 0.000000 7.000000 7.000000
v 0.000000 7.000000 8.000000
v 1.000000 7.000000 8.000000
v 0.000000 8.000000 1.000000
v 0.000000 8.000000 0.000000
v 1.000000 8.000000 1.000000
v 1.000000 8.000000 0.000000
v 0.000000 8.000000 2.000000
v 1.000000 8.000000 2.000000
v 0.000000 8.000000 3.000000
v 1.000000 8.000000 3.000000
v 0.000000 8.000000 4.000000
v 1.000000 8.000000 4.000000
v 0.000000 8.000000 5.000000
v 1.000000 8.000000 5.000000
v 0.000000 8.000000 6.000000
v 1.000000 8.000000 6.000000
v 0.000000 8.000000 7.000000
v 1.000000 8.000000 7.000000
v 0.000000 8.000000 8.000000
v 1.000000 8.000000 8.000000
v 2.000000 0.000000 0.000000
v 2.000000 0.000000 1.000000
v 2.000000 1.000000 0.000000
v 2.000000 0.000000 2.000000
v 2.000000 0.000000 3.000000
v 2.000000 0.000000 4.000000
v 2.000000 0.000000 5.000000
v 2.000000 0.000000 6.000000
v 2.000000 0.000000 7.000000
v 2.000000 0.000000 8.000000
v 2.000000 1.000000 8.000000
v 2.000000 2.000000 0.000000
v 2.000000 2.000000 8.000000
v 2.000000 3.000000 0.000000
v 2.000000 3.000000 8.000000
v 2.000000 4.000000 0.000000
v 2.000000 4.000000 8.000000
v 2.000000 5.000000 0.000000
v 2.000000 5.000000 8.000000
v 2.000000 6.000000 0.000000
v 2.000000 6.000000 8.000000
v 2.000000 7.000000 0.000000
v 2.000000 7.000000 8.000000
v 2.000000 8.000000 1.000000
v 2.000000 8.000000 0.000000
v 2.000000 8.000000 2.000000
v 2.000000 8.000000 3.000000
v 2.000000 8.000000 4.000000
v 2.000000 8.000000 5.000000
v 2.000000 8.000000 6.000000
v 2.000000 8.000000 7.000000
v 2.000000 8.000000 8.000000
v 3.000000 0.000000 0.000000
v 3.000000 0.000000 1.000000
v 3.000000 1.000000 0.000000
v 3.000000 0.000000 2.000000
v 3.000000 0.000000 3.000000
v 3.000000 0.000000 4.000000
v 3.000000 0.000000 5.000000
v 3.000000 0.000000 6.000000
v 3.000000 0.000000 7.000000
v 3.000000 0.000000 8.000000
v 3.000000 1.000000 8.000000
v 3.000000 2.000000 0.000000
v 3.000000 2.000000 8.000000
v 3.000000 3.000000 0.000000
v 3.000000 3.000000 8.000000
v 3.000000 4.000000 0.000000
v 3.000000 4.000000 8.000000
v 3.000000 5.000000 0.000000
v 3.000000 5.000000 8.000000
v 3.000000 6.000000 0.000000
v 3.000000 6.000000 8.000000
v 3.000000 7.000000 0.000000
v 3.000000 7.000000 8.000000
v 3.000000 8.000000 1.000000
v 3.000000 8.000000 0.000000
v 3.000000 8.000000 2.000000
v 3.000000 8.000000 3.000000
v 3.000000 8.000000 4.000000
v 3.000000 8.000000 5.000000
v 3.000000 8.000000 6.000000
v 3.000000 8.000000 7.000000
v 3.000000 8.000000 8.000000
v 4.000000 0.000000 0.000000
v 4.000000 0.000000 1.000000
v 4.000000 1.000000 0.000000
v 4.000000 0.000000 2.000000
v 4.000000 0.000000 3.000000
v 4.000000 0.000000 4.000000
v 4.000000 0.000000 5.000000
v 4.000000 0.000000 6.000000
v 4.000000 0.000000 7.000000
v 4.000000 0.000000 8.000000
v 4.000000 1.000000 8.000000
v 4.000000 2.000000 0.000000
v 4.000000 2.000000 8.000000
v 4.000000 3.000000 0.000000
v 4.000000 3.000000 8.000000
v 4.000000 4.000000 0.000000
v 4.000000 4.000000 8.000000
v 4.000000 5.000000 0.000000
v 4.000000 5.000000 8.000000
v 4.000000 6.000000 0.000000
v 4.000000 6.000000 8.000000
v 4.000000 7.000000 0.000000
v 4.000000 7.000000 8.000000
v 4.000000 8.000000 1.000000
v 4.000000 8.000000 0.000000
v 4.000000 8.000000 2.000000
v 4.000000 8.000000 3.000000
v 4.000000 8.000000 4.000000
v 4.000000 8.000000 5.000000
v 4.000000 8.000000 6.000000
v 4.000000 8.000000 7.000000
v 4.000000 8.000000 8.000000
v 5.000000 0.000000 0.000000
v 5.000000 0.000000 1.000000
v 5.000000 1.000000 0.000000
v 5.000000 0.000000 2.000000
v 5.000000 0.000000 3.000000
v 5.000000 0.000000 4.000000
v 5.000000 0.000000 5.000000
v 5.000000 0.000000 6.000000
v 5.000000 0.000000 7.000000
v 5.000000 0.000000 8.000000
v 5.000000 1.000000 8.000000
v 5.000000 2.000000 0.000000
v 5.000000 2.000000 8.000000
v 5.000000 3.000000 0.000000
v 5.000000 3.000000 8.000000
v 5.000000 4.000000 0.000000
v 5.000000 4.000000 8.000000
v 5.000000 5.000000 0.000000
v 5.000000 5.000000 8.000000
v 5.000000 6.000000 0.000000
v 5.000000 6.000000 8.000000
v 5.000000 7.000000 0.000000
v 5.000000 7.000000 8.000000
v 5.000000 8.000000 1.000000
v 5.000000 8.000000 0.000000
v 5.000000 8.000000 2.000000
v 5.000000 8.000000 3.000000
v 5.000000 8.000000 4.000000
v 5.000000 8.000000 5.000000
v 5.000000 8.000000 6.000000
v 5.000000 8.000000 7.000000
v 5.000000 8.000000 8.000000
v 6.000000 0.000000 0.000000
v 6.000000 0.000000 1.000000
v 6.000000 1.000000 0.000000
v 6.000000 0.000000 2.000000
v 6.000000 0.000000 3.000000
v 6.000000 0.000000 4.000000
v 6.000000 0.000000 5.000000
v 6.000000 0.000000 6.000000
v 6.000000 0.000000 7.000000
v 6.000000 0.000000 8.000000
v 6.000000 1.000000 8.000000
v 6.000000 2.000000 0.000000
v 6.000000 2.000000 8.000000
v 6.000000 3.000000 0.000000
v 6.000000 3.000000 8.000000
v 6.000000 4.000000 0.000000
v 6.000000 4.000000 8.000000
v 6.000000 5.000000 0.000000
v 6.000000 5.000000 8.000000
v 6.000000 6.000000 0.000000
v 6.000000 6.000000 8.000000
v 6.000000 7.000000 0.000000
v 6.000000 7.000000 8.000000
v 6.000000 8.000000 1.000000
v 6.000000 8.000000 0.000000
v 6.000000 8.000000 2.000000
v 6.000000 8.000000 3.000000
v 6.000000 8.000000 4.000000
v 6.000000 8.000000 5.000000
v 6.000000 8.000000 6.000000
v 6.000000 8.000000 7.000000
v 6.000000 8.000000 8.000000
v 7.000000 0.000000 0.000000
v 7.000000 0.000000 1.000000
v 7.000000 1.000000 0.000000
v 7.000000 0.000000 2.000000
v 7.000000 0.000000 3.000000
v 7.000000 0.000000 4.000000
v 7.000000 0.000000 5.000000
v 7.000000 0.000000 6.000000
v 7.000000 0.000000 7.000000
v 7.000000 0.000000 8.000000
v 7.000000 1.000000 8.000000
v 7.000000 2.000000 0.000000
v 7.000000 2.000000 8.000000
v 7.000000 3.000000 0.000000
v 7.000000 3.000000 8.000000
v 7.000000 4.000000 0.000000
v 7.000000 4.000000 8.000000
v 7.000000 5.000000 0.000000
v 7.000000 5.000000 8.000000
v 7.000000 6.000000 0.000000
v 7.000000 6.000000 8.000000
v 7.000000 7.000000 0.000000
v 7.000000 7.000000 8.000000
v 7.000000 8.000000 1.000000
v 7.000000 8.000000 0.000000
v 7.000000 8.000000 2.000000
v 7.000000 8.000000 3.000000
v 7.000000 8.000000 4.000000
v 7.000000 8.000000 5.000000
v 7.000000 8.000000 6.000000
v 7.000000 8.000000 7.000000
v 7.000000 8.000000 8.000000
v 8.000000 0.000000 0.000000
v 8.000000 1.000000 0.000000
v 8.000000 1.000000 1.000000
v 8.000000 0.000000 1.000000
v 8.000000 1.000000 2.000000
v 8.000000 0.000000 2.000000
v 8.000000 1.000000 3.000000
v 8.000000 0.000000 3.000000
v 8.000000 1.000000 4.000000
v 8.000000 0.000000 4.000000
v 8.000000 1.000000 5.000000
v 8.000000 0.000000 5.000000
v 8.000000 1.000000 6.000000
v 8.000000 0.000000 6.000000
v 8.000000 1.000000 7.000000
v 8.000000 0.000000 7.000000
v 8.000000 1.000000 8.000000
v 8.000000 0.000000 8.000000
v 8.000000 2.000000 0.000000
v 8.000000 2.000000 1.000000
v 8.000000 2.000000 2.000000
v 8.000000 2.000000 3.000000
v 8.000000 2.000000 4.000000
v 8.000000 2.000000 5.000000
v 8.000000 2.000000 6.000000
v 8.000000 2.000000 7.000000
v 8.000000 2.000000 8.000000
v 8.000000 3.000000 0.000000
v 8.000000 3.000000 1.000000
v 8.000000 3.000000 2.000000
v 8.000000 3.000000 3.000000
v 8.000000 3.000000 4.000000
v 8.000000 3.000000 5.000000
v 8.000000 3.000000 6.000000
v 8.000000 3.000000 7.000000
v 8.000000 3.000000 8.000000
v 8.000000 4.000000 0.000000
v 8.000000 4.000000 1.000000
v 8.000000 4.000000 2.000000
v 8.000000 4.000000 3.000000
v 8.000000 4.000000 5.000000
v 8.000000 4.000000 6.000000
v 8.000000 4.000000 7.000000
v 8.000000 4.000000 8.000000
v 8.000000 5.000000 0.000000
v 8.000000 5.000000 1.000000
v 8.000000 5.000000 2.000000
v 8.000000 5.000000 3.000000
v 8.000000 5.000000 5.000000
v 8.000000 5.000000 6.000000
v 8.000000 5.000000 7.000000
v 8.000000 5.000000 8.000000
v 8.000000 6.000000 0.000000
v 8.000000 6.000000 1.000000
v 8.000000 6.000000 2.000000
v 8.000000 6.000000 3.000000
v 8.000000 6.000000 4.000000
v 8.000000 5.000000 4.000000
v 8.000000 6.000000 5.000000
v 8.000000 6.000000 6.000000
v 8.000000 6.000000 7.000000
v 8.000000 6.000000 8.000000
v 8.000000 7.000000 0.000000
v 8.000000 7.000000 1.000000
v 8.000000 7.000000 2.000000
v 8.000000 7.000000 3.000000
v 8.000000 7.000000 4.000000
v 8.000000 7.000000 5.000000
v 8.000000 7.000000 6.000000
v 8.000000 7.000000 7.000000
v 8.000000 7.000000 8.000000
v 8.000000 8.000000 0.000000
v 8.000000 8.000000 1.000000
v 8.000000 8.000000 2.000000
v 8.000000 8.000000 3.000000
v 8.000000 8.000000 4.000000
v 8.000000 8.000000 5.000000
v 8.000000 8.000000 6.000000
v 8.000000 8.000000 7.000000
v 8.000000 8.000000 8.000000
v 9.000000 3.000000 3.000000
v 9.000000 3.000000 4.000000
v 9.000000 4.000000 3.000000
v 9.000000 3.000000 5.000000
v 9.000000 4.000000 5.000000
v 9.000000 5.000000 4.000000
v 9.000000 5.000000 3.000000
v 9.000000 5.000000 5.000000
v 10.000000 3.000000 3.000000
v 10.000000 3.000000 4.000000
v 10.000000 4.000000 3.000000
v 10.000000 3.000000 5.000000
v 10.000000 4.000000 5.000000
v 10.000000 5.000000 4.000000
v 10.000000 5.000000 3.000000
v 10.000000 5.000000 5.000000
v 11.000000 3.000000 3.000000
v 11.000000 3.000000 4.000000
v 11.000000 4.000000 3.000000
v 11.000000 3.000000 5.000000
v 11.000000 4.000000 5.000000
v 11.000000 5.000000 4.000000
v 11.000000 5.000000 3.000000
v 11.000000 5.000000 5.000000
v 12.000000 3.000000 3.000000
v 12.000000 3.000000 4.000000
v 12.000000 4.000000 3.000000
v 12.000000 3.000000 5.000000
v 12.000000 4.000000 5.000000
v 12.000000 5.000000 4.000000
v 12.000000 5.000000 3.000000
v 12.000000 5.000000 5.000000
v 13.000000 3.000000 3.000000
v 13.000000 3.000000 4.000000
v 13.000000 4.000000 3.000000
v 13.000000 3.000000 5.000000
v 13.000000 4.000000 5.000000
v 13.000000 5.000000 4.000000
v 13.000000 5.000000 3.000000
v 13.000000 5.000000 5.000000
v 14.000000 3.000000 3.000000
v 14.000000 3.000000 4.000000
v 14.000000 4.000000 3.000000
v 14.000000 3.000000 5.000000
v 14.000000 4.000000 5.000000
v 14.000000 5.000000 4.000000
v 14.000000 5.000000 3.000000
v 14.000000 5.000000 5.000000
v 15.000000 3.000000 3.000000
v 15.000000 3.000000 4.000000
v 15.000000 4.000000 3.000000
v 15.000000 3.000000 5.000000
v 15.000000 4.000000 5.000000
v 15.000000 5.000000 4.000000
v 15.000000 5.000000 3.000000
v 15.000000 5.000000 5.000000
v 16.000000 3.000000 3.000000
v 16.000000 3.000000 4.000000
v 16.000000 4.000000 3.000000
v 16.000000 3.000000 5.000000
v 16.000000 4.000000 5.000000
v 16.000000 5.000000 4.000000
v 16.000000 5.000000 3.000000
v 16.000000 5.000000 5.000000
v 16.000000 0.000000 0.000000
v 16.000000 0.000000 1.000000
v 16.000000 1.000000 1.000000
v 16.000000 1.000000 0.000000
v 17.000000 0.000000 0.000000
v 17.000000 0.000000 1.000000
v 17.000000 1.000000 0.000000
v 16.000000 0.000000 2.000000
v 16.000000 1.000000 2.000000
v 17.000000 0.000000 2.000000
v 16.000000 0.000000 3.000000
v 16.000000 1.000000 3.000000
v 17.000000 0.000000 3.000000
v 16.000000 0.000000 4.000000
v 16.000000 1.000000 4.000000
v 17.000000 0.000000 4.000000
v 16.000000 0.000000 5.000000
v 16.000000 1.000000 5.000000
v 17.000000 0.000000 5.000000
v 16.000000 0.000000 6.000000
v 16.000000 1.000000 6.000000
v 17.000000 0.000000 6.000000
v 16.000000 0.000000 7.000000
v 16.000000 1.000000 7.000000
v 17.000000 0.000000 7.000000
v 16.000000 0.000000 8.000000
v 16.000000 1.000000 8.000000
v 17.000000 0.000000 8.000000
v 17.000000 1.000000 8.000000
v 16.000000 2.000000 1.000000
v 16.000000 2.000000 0.000000
v 17.000000 2.000000 0.000000
v 16.000000 2.000000 2.000000
v 16.000000 2.000000 3.000000
v 16.000000 2.000000 4.000000
v 16.000000 2.000000 5.000000
v 16.000000 2.000000 6.000000
v 16.000000 2.000000 7.000000
v 16.000000 2.000000 8.000000
v 17.000000 2.000000 8.000000
v 16.000000 3.000000 1.000000
v 16.000000 3.000000 0.000000
v 17.000000 3.000000 0.000000
v 16.000000 3.000000 2.000000
v 16.000000 3.000000 6.000000
v 16.000000 3.000000 7.000000
v 16.000000 3.000000 8.000000
v 17.000000 3.000000 8.000000
v 16.000000 4.000000 1.000000
v 16.000000 4.000000 0.000000
v 17.000000 4.000000 0.000000
v 16.000000 4.000000 2.000000
v 16.000000 4.000000 6.000000
v 16.000000 4.000000 7.000000
v 16.000000 4.000000 8.000000
v 17.000000 4.000000 8.000000
v 16.000000 5.000000 1.000000
v 16.000000 5.000000 0.000000
v 17.000000 5.000000 0.000000
v 16.000000 5.000000 2.000000
v 16.000000 5.000000 6.000000
v 16.000000 5.000000 7.000000
v 16.000000 5.000000 8.000000
v 17.000000 5.000000 8.000000
v 16.000000 6.000000 1.000000
v 16.000000 6.000000 0.000000
v 17.000000 6.000000 0.000000
v 16.000000 6.000000 2.000000
v 16.000000 6.000000 3.000000
v 16.000000 6.000000 4.000000
v 16.000000 6.000000 5.000000
v 16.000000 6.000000 6.000000
v 16.000000 6.000000 7.000000
v 16.000000 6.000000 8.000000
v 17.000000 6.000000 8.000000
v 16.000000 7.000000 1.000000
v 16.000000 7.000000 0.000000
v 17.000000 7.000000 0.000000
v 16.000000 7.000000 2.000000
v 16.000000 7.000000 3.000000
v 16.000000 7.000000 4.000000
v 16.000000 7.000000 5.000000
v 16.000000 7.000000 6.000000
v 16.000000 7.000000 7.000000
v 16.000000 7.000000 8.000000
v 17.000000 7.000000 8.000000
v 16.000000 8.000000 1.000000
v 16.000000 8.000000 0.000000
v 17.000000 8.000000 1.000000
v 17.000000 8.000000 0.000000
v 16.000000 8.000000 2.000000
v 17.000000 8.000000 2.000000
v 16.000000 8.000000 3.000000
v 17.000000 8.000000 3.000000
v 16.000000 8.000000 4.000000
v 17.000000 8.000000 4.000000
v 16.000000 8.000000 5.000000
v 17.000000 8.000000 5.000000
v 16.000000 8.000000 6.000000
v 17.000000 8.000000 6.000000
v 16.000000 8.000000 7.000000
v 17.000000 8.000000 7.000000
v 16.000000 8.000000 8.000000
v 17.000000 8.000000 8.000000
v 18.000000 0.000000 0.000000
v 18.000000 0.000000 1.000000
v 18.000000 1.000000 0.000000
v 18.000000 0.000000 2.000000
v 18.000000 0.000000 3.000000
v 18.000000 0.000000 4.000000
v 18.000000 0.000000 5.000000
v 18.000000 0.000000 6.000000
v 18.000000 0.000000 7.000000
v 18.000000 0.000000 8.000000
v 18.000000 1.000000 8.000000
v 18.000000 2.000000 0.000000
v 18.000000 2.000000 8.000000
v 18.000000 3.000000 0.000000
v 18.000000 3.000000 8.000000
v 18.000000 4.000000 0.000000
v 18.000000 4.000000 8.000000
v 18.000000 5.000000 0.000000
v 18.000000 5.000000 8.000000
v 18.000000 6.000000 0.000000
v 18.000000 6.000000 8.000000
v 18.000000 7.000000 0.000000
v 18.000000 7.000000 8.000000
v 18.000000 8.000000 1.000000
v 18.000000 8.000000 0.000000
v 18.000000 8.000000 2.000000
v 18.000000 8.000000 3.000000
v 18.000000 8.000000 4.000000
v 18.000000 8.000000 5.000000
v 18.000000 8.000000 6.000000
v 18.000000 8.000000 7.000000
v 18.000000 8.000000 8.000000
v 19.000000 0.000000 0.000000
v 19.000000 0.000000 1.000000
v 19.000000 1.000000 0.000000
v 19.000000 0.000000 2.000000
v 19.000000 0.000000 3.000000
v 19.000000 0.000000 4.000000
v 19.000000 0.000000 5.000000
v 19.000000 0.000000 6.000000
v 19.000000 0.000000 7.000000
v 19.000000 0.000000 8.000000
v 19.000000 1.000000 8.000000
v 19.000000 2.000000 0.000000
v 19.000000 2.000000 8.000000
v 19.000000 3.000000 0.000000
v 19.000000 3.000000 8.000000
v 19.000000 4.000000 0.000000
v 19.000000 4.000000 8.000000
v 19.000000 5.000000 0.000000
v 19.000000 5.000000 8.000000
v 19.000000 6.000000 0.000000
v 19.000000 6.000000 8.000000
v 19.000000 7.000000 0.000000
v 19.000000 7.000000 8.000000
v 19.000000 8.000000 1.000000
v 19.000000 8.000000 0.000000
v 19.000000 8.000000 2.000000
v 19.000000 8.000000 3.000000
v 19.000000 8.000000 4.000000
v 19.000000 8.000000 5.000000
v 19.000000 8.000000 6.000000
v 19.000000 8.000000 7.000000
v 19.000000 8.000000 8.000000
v 20.000000 0.000000 0.000000
v 20.000000 0.000000 1.000000
v 20.000000 1.000000 0.000000
v 20.000000 0.000000 2.000000
v 20.000000 0.000000 3.000000
v 20.000000 0.000000 4.000000
v 20.000000 0.000000 5.000000
v 20.000000 0.000000 6.000000
v 20.000000 0.000000 7.000000
v 20.000000 0.000000 8.000000
v 20.000000 1.000000 8.000000
v 20.000000 2.000000 0.000000
v 20.000000 2.000000 8.000000
v 20.000000 3.000000 0.000000
v 20.000000 3.000000 8.000000
v 20.000000 4.000000 0.000000
v 20.000000 4.000000 8.000000
v 20.000000 5.000000 0.000000
v 20.000000 5.000000 8.000000
v 20.000000 6.000000 0.000000
v 20.000000 6.000000 8.000000
v 20.000000 7.000000 0.000000
v 20.000000 7.000000 8.000000
v 20.000000 8.000000 1.000000
v 20.000000 8.000000 0.000000
v 20.000000 8.000000 2.000000
v 20.000000 8.000000 3.000000
v 20.000000 8.000000 4.000000
v 20.000000 8.000000 5.000000
v 20.000000 8.000000 6.000000
v 20.000000 8.000000 7.000000
v 20.000000 8.000000 8.000000
v 21.000000 0.000000 0.000000
v 21.000000 0.000000 1.000000
v 21.000000 1.000000 0.000000
v 21.000000 0.000000 2.000000
v 21.000000 0.000000 3.000000
v 21.000000 0.000000 4.000000
v 21.000000 0.000000 5.000000
v 21.000000 0.000000 6.000000
v 21.000000 0.000000 7.000000
v 21.000000 0.000000 8.000000
v 21.000000 1.000000 8.000000
v 21.000000 2.000000 0.000000
v 21.000000 2.000000 8.000000
v 21.000000 3.000000 0.000000
v 21.000000 3.000000 8.000000
v 21.000000 4.000000 0.000000
v 21.000000 4.000000 8.000000
v 21.000000 5.000000 0.000000
v 21.000000 5.000000 8.000000
v 21.000000 6.000000 0.000000
v 21.000000 6.000000 8.000000
v 21.000000 7.000000 0.000000
v 21.000000 7.000000 8.000000
v 21.000000 8.000000 1.000000
v 21.000000 8.000000 0.000000
v 21.000000 8.000000 2.000000
v 21.000000 8.000000 3.000000
v 21.000000 8.000000 4.000000
v 21.000000 8.000000 5.000000
v 21.000000 8.000000 6.000000
v 21.000000 8.000000 7.000000
v 21.000000 8.000000 8.000000
v 22.000000 0.000000 0.000000
v 22.000000 0.000000 1.000000
v 22.000000 1.000000 0.000000
v 22.000000 0.000000 2.000000
v 22.000000 0.000000 3.000000
v 22.000000 0.000000 4.000000
v 22.000000 0.000000 5.000000
v 22.000000 0.000000 6.000000
v 22.000000 0.000000 7.000000
v 22.000000 0.000000 8.000000
v 22.000000 1.000000 8.000000
v 22.000000 2.000000 0.000000
v 22.000000 2.000000 8.000000
v 22.000000 3.000000 0.000000
v 22.000000 3.000000 8.000000
v 22.000000 4.000000 0.000000
v 22.000000 4.000000 8.000000
v 22.000000 5.000000 0.000000
v 22.000000 5.000000 8.000000
v 22.000000 6.000000 0.000000
v 22.000000 6.000000 8.000000
v 22.000000 7.000000 0.000000
v 22.000000 7.000000 8.000000
v 22.000000 8.000000 1.000000
v 22.000000 8.000000 0.000000
v 22.000000 8.000000 2.000000
v 22.000000 8.000000 3.000000
v 22.000000 8.000000 4.000000
v 22.000000 8.000000 5.000000
v 22.000000 8.000000 6.000000
v 22.000000 8.000000 7.000000
v 22.000000 8.000000 8.000000
v 23.000000 0.000000 0.000000
v 23.000000 0.000000 1.000000
v 23.000000 1.000000 0.000000
v 23.000000 0.000000 2.000000
v 23.000000 0.000000 3.000000
v 23.000000 0.000000 4.000000
v 23.000000 0.000000 5.000000
v 23.000000 0.000000 6.000000
v 23.000000 0.000000 7.000000
v 23.000000 0.000000 8.000000
v 23.000000 1.000000 8.000000
v 23.000000 2.000000 0.000000
v 23.000000 2.000000 8.000000
v 23.000000 3.000000 0.000000
v 23.000000 3.000000 8.000000
v 23.000000 4.000000 0.000000
v 23.000000 4.000000 8.000000
v 23.000000 5.000000 0.000000
v 23.000000 5.000000 8.000000
v 23.000000 6.000000 0.000000
v 23.000000 6.000000 8.000000
v 23.000000 7.000000 0.000000
v 23.000000 7.000000 8.000000
v 23.000000 8.000000 1.000000
v 23.000000 8.000000 0.000000
v 23.000000 8.000000 2.000000
v 23.000000 8.000000 3.000000
v 23.000000 8.000000 4.000000
v 23.000000 8.000000 5.000000
v 23.000000 8.000000 6.000000
v 23.000000 8.000000 7.000000
v 23.000000 8.000000 8.000000
v 24.000000 0.000000 0.000000
v 24.000000 1.000000 0.000000
v 24.000000 1.000000 1.000000
v 24.000000 0.000000 1.000000
v 24.000000 1.000000 2.000000
v 24.000000 0.000000 2.000000
v 24.000000 1.000000 3.000000
v 24.000000 0.000000 3.000000
v 24.000000 1.000000 4.000000
v 24.000000 0.000000 4.000000
v 24.000000 1.000000 5.000000
v 24.000000 0.000000 5.000000
v 24.000000 1.000000 6.000000
v 24.000000 0.000000 6.000000
v 24.000000 1.000000 7.000000
v 24.000000 0.000000 7.000000
v 24.000000 1.000000 8.000000
v 24.000000 0.000000 8.000000
v 24.000000 2.000000 0.000000
v 24.000000 2.000000 1.000000
v 24.000000 2.000000 2.000000
v 24.000000 2.000000 3.000000
v 24.000000 2.000000 4.000000
v 24.000000 2.000000 5.000000
v 24.000000 2.000000 6.000000
v 24.000000 2.000000 7.000000
v 24.000000 2.000000 8.000000
v 24.000000 3.000000 0.000000
v 24.000000 3.000000 1.000000
v 24.000000 3.000000 2.000000
v 24.000000 3.000000 3.000000
v 24.000000 3.000000 4.000000
v 24.000000 3.000000 5.000000
v 24.000000 3.000000 6.000000
v 24.000000 3.000000 7.000000
v 24.000000 3.000000 8.000000
v 24.000000 4.000000 0.000000
v 24.000000 4.000000 1.000000
v 24.000000 4.000000 2.000000
v 24.000000 4.000000 3.000000
v 24.000000 4.000000 4.000000
v 24.000000 4.000000 5.000000
v 24.000000 4.000000 6.000000
v 24.000000 4.000000 7.000000
v 24.000000 4.000000 8.000000
v 24.000000 5.000000 0.000000
v 24.000000 5.000000 1.000000
v 24.000000 5.000000 2.000000
v 24.000000 5.000000 3.000000
v 24.000000 5.000000 4.000000
v 24.000000 5.000000 5.000000
v 24.000000 5.000000 6.000000
v 24.000000 5.000000 7.000000
v 24.000000 5.000000 8.000000
v 24.000000 6.000000 0.000000
v 24.000000 6.000000 1.000000
v 24.000000 6.000000 2.000000
v 24.000000 6.000000 3.000000
v 24.000000 6.000000 4.000000
v 24.000000 6.000000 5.000000
v 24.000000 6.000000 6.000000
v 24.000000 6.000000 7.000000
v 24.000000 6.000000 8.000000
v 24.000000 7.000000 0.000000
v 24.000000 7.000000 1.000000
v 24.000000 7.000000 2.000000
v 24.000000 7.000000 3.000000
v 24.000000 7.000000 4.000000
v 24.000000 7.000000 5.000000
v 24.000000 7.000000 6.000000
v 24.000000 7.000000 7.000000
v 24.000000 7.000000 8.000000
v 24.000000 8.000000 0.000000
v 24.000000 8.000000 1.000000
v 24.000000 8.000000 2.000000
v 24.000000 8.000000 3.000000
v 24.000000 8.000000 4.000000
v 24.000000 8.000000 5.000000
v 24.000000 8.000000 6.000000
v 24.000000 8.000000 7.000000
v 24.000000 8.000000 8.000000

f 1 2 3
f 1 3 4
f 1 5 6
f 1 6 2
f 1 4 7
f 1 7 5
f 2 8 9
f 2 9 3
f 2 6 10
f 2 10 8
f 8 11 12
f 8 12 9
f 8 10 13
f 8 13 11
f 11 14 15
f 11 15 12
f 11 13 16
f 11 16 14
f 14 17 18
f 14 18 15
f 14 16 19
f 14 19 17
f 17 20 21
f 17 21 18
f 17 19 22
f 17 22 20
f 20 23 24
f 20 24 21
f 20 22 25
f 20 25 23
f 23 26 27
f 23 27 24
f 23 25 28
f 23 28 26
f 26 28 29
f 26 29 27
f 4 3 30
f 4 30 31
f 4 31 32
f 4 32 7
f 3 9 33
f 3 33 30
f 9 12 34
f 9 34 33
f 12 15 35
f 12 35 34
f 15 18 36
f 15 36 35
f 18 21 37
f 18 37 36
f 21 24 38
f 21 38 37
f 24 27 39
f 24 39 38
f 27 29 40
f 27 40 39
f 31 30 41
f 31 41 42
f 31 42 43
f 31 43 32
f 30 33 44
f 30 44 41
f 33 34 45
f 33 45 44
f 34 35 46
f 34 46 45
f 35 36 47
f 35 47 46
f 36 37 48
f 36 48 47
f 37 38 49
f 37 49 48
f 38 39 50
f 38 50 49
f 39 40 51
f 39 51 50
f 42 41 52
f 42 52 53
f 42 53 54
f 42 54 43
f 41 44 55
f 41 55 52
f 44 45 56
f 44 56 55
f 45 46 57
f 45 57 56
f 46 47 58
f 46 58 57
f 47 48 59
f 47 59 58
f 48 49 60
f 48 60 59
f 49 50 61
f 49 61 60
f 50 51 62
f 50 62 61
f 53 52 63
f 53 63 64
f 53 64 65
f 53 65 54
f 52 55 66
f 52 66 63
f 55 56 67
f 55 67 66
f 56 57 68
f 56 68 67
f 57 58 69
f 57 69 68
f 58 59 70
f 58 70 69
f 59 60 71
f 59 71 70
f 60 61 72
f 60 72 71
f 61 62 73
f 61 73 72
f 64 63 74
f 64 74 75
f 64 75 76
f 64 76 65
f 63 66 77
f 63 77 74
f 66 67 78
f 66 78 77
f 67 68 79
f 67 79 78
f 68 69 80
f 68 80 79
f 69 70 81
f 69 81 80
f 70 71 82
f 70 82 81
f 71 72 83
f 71 83 82
f 72 73 84
f 72 84 83
f 75 74 85
f 75 85 86
f 75 86 87
f 75 87 76
f 74 77 88
f 74 88 85
f 77 78 89
f 77 89 88
f 78 79 90
f 78 90 89
f 79 80 91
f 79 91 90
f 80 81 92
f 80 92 91
f 81 82 93
f 81 93 92
f 82 83 94
f 82 94 93
f 83 84 95
f 83 95 94
f 86 85 96
f 86 96 97
f 97 96 98
f 97 98 99
f 86 97 99
f 86 99 87
f 85 88 100
f 85 100 96
f 96 100 101
f 96 101 98
f 88 89 102
f 88 102 100
f 100 102 103
f 100 103 101
f 89 90 104
f 89 104 102
f 102 104 105
f 102 105 103
f 90 91 106
f 90 106 104
f 104 106 107
f 104 107 105
f 91 92 108
f 91 108 106
f 106 108 109
f 106 109 107
f 92 93 110
f 92 110 108
f 108 110 111
f 108 111 109
f 93 94 112
f 93 112 110
f 110 112 113
f 110 113 111
f 94 95 113
f 94 113 112
f 5 114 115
f 5 115 6
f 5 7 116
f 5 116 114
f 6 115 117
f 6 117 10
f 10 117 118
f 10 118 13
f 13 118 119
f 13 119 16
f 16 119 120
f 16 120 19
f 19 120 121
f 19 121 22
f 22 121 122
f 22 122 25
f 25 122 123
f 25 123 28
f 28 123 124
f 28 124 29
f 7 32 125
f 7 125 116
f 29 124 126
f 29 126 40
f 32 43 127
f 32 127 125
f 40 126 128
f 40 128 51
f 43 54 129
f 43 129 127
f 51 128 130
f 51 130 62
f 54 65 131
f 54 131 129
f 62 130 132
f 62 132 73
f 65 76 133
f 65 133 131
f 73 132 134
f 73 134 84
f 76 87 135
f 76 135 133
f 84 134 136
f 84 136 95
f 99 98 137
f 99 137 138
f 87 99 138
f 87 138 135
f 98 101 139
f 98 139 137
f 101 103 140
f 101 140 139
f 103 105 141
f 103 141 140
f 105 107 142
f 105 142 141
f 107 109 143
f 107 143 142
f 109 111 144
f 109 144 143
f 111 113 145
f 111 145 144
f 95 136 145
f 95 145 113
f 114 146 147
f 114 147 115
f 114 116 148
f 114 148 146
f 115 147 149
f 115 149 117
f 117 149 150
f 117 150 118
f 118 150 151
f 118 151 119
f 119 151 152
f 119 152 120
f 120 152 153
f 120 153 121
f 121 153 154
f 121 154 122
f 122 154 155
f 122 155 123
f 123 155 156
f 123 156 124
f 116 125 157
f 116 157 148
f 124 156 158
f 124 158 126
f 125 127 159
f 125 159 157
f 126 158 160
f 126 160 128
f 127 129 161
f 127 161 159
f 128 160 162
f 128 162 130
f 129 131 163
f 129 163 161
f 130 162 164
f 130 164 132
f 131 133 165
f 131 165 163
f 132 164 166
f 132 166 134
f 133 135 167
f 133 167 165
f 134 166 168
f 134 168 136
f 138 137 169
f 138 169 170
f 135 138 170
f 135 170 167
f 137 139 171
f 137 171 169
f 139 140 172
f 139 172 171
f 140 141 173
f 140 173 172
f 141 142 174
f 141 174 173
f 142 143 175
f 142 175 174
f 143 144 176
f 143 176 175
f 144 145 177
f 144 177 176
f 136 168 177
f 136 177 145
f 146 178 179
f 146 179 147
f 146 148 180
f 146 180 178
f 147 179 181
f 147 181 149
f 149 181 182
f 149 182 150
f 150 182 183
f 150 183 151
f 151 183 184
f 151 184 152
f 152 184 185
f 152 185 153
f 153 185 186
f 153 186 154
f 154 186 187
f 154 187 155
f 155 187 188
f 155 188 156
f 148 157 189
f 148 189 180
f 156 188 190
f 156 190 158
f 157 159 191
f 157 191 189
f 158 190 192
f 158 192 160
f 159 161 193
f 159 193 191
f 160 192 194
f 160 194 162
f 161 163 195
f 161 195 193
f 162 194 196
f 162 196 164
f 163 165 197
f 163 197 195
f 164 196 198
f 164 198 166
f 165 167 199
f 165 199 197
f 166 198 200
f 166 200 168
f 170 169 201
f 170 201 202
f 167 170 202
f 167 202 199
f 169 171 203
f 169 203 201
f 171 172 204
f 171 204 203
f 172 173 205
f 172 205 204
f 173 174 206
f 173 206 205
f 174 175 207
f 174 207 206
f 175 176 208
f 175 208 207
f 176 177 209
f 176 209 208
f 168 200 209
f 168 209 177
f 178 210 211
f 178 211 179
f 178 180 212
f 178 212 210
f 179 211 213
f 179 213 181
f 181 213 214
f 181 214 182
f 182 214 215
f 182 215 183
f 183 215 216
f 183 216 184
f 184 216 217
f 184 217 185
f 185 217 218
f 185 218 186
f 186 218 219
f 186 219 187
f 187 219 220
f 187 220 188
f 180 189 221
f 180 221 212
f 188 220 222
f 188 222 190
f 189 191 223
f 189 223 221
f 190 222 224
f 190 224 192
f 191 193 225
f 191 225 223
f 192 224 226
f 192 226 194
f 193 195 227
f 193 227 225
f 194 226 228
f 194 228 196
f 195 197 229
f 195 229 227
f 196 228 230
f 196 230 198
f 197 199 231
f 197 231 229
f 198 230 232
f 198 232 200
f 202 201 233
f 202 233 234
f 199 202 234
f 199 234 231
f 201 203 235
f 201 235 233
f 203 204 236
f 203 236 235
f 204 205 237
f 204 237 236
f 205 206 238
f 205 238 237
f 206 207 239
f 206 239 238
f 207 208 240
f 207 240 239
f 208 209 241
f 208 241 240
f 200 232 241
f 200 241 209
f 210 242 243
f 210 243 211
f 210 212 244
f 210 244 242
f 211 243 245
f 211 245 213
f 213 245 246
f 213 246 214
f 214 246 247
f 214 247 215
f 215 247 248
f 215 248 216
f 216 248 249
f 216 249 217
f 217 249 250
f 217 250 218
f 218 250 251
f 218 251 219
f 219 251 252
f 219 252 220
f 212 221 253
f 212 253 244
f 220 252 254
f 220 254 222
f 221 223 255
f 221 255 253
f 222 254 256
f 222 256 224
f 223 225 257
f 223 257 255
f 224 256 258
f 224 258 226
f 225 227 259
f 225 259 257
f 226 258 260
f 226 260 228
f 227 229 261
f 227 261 259
f 228 260 262
f 228 262 230
f 229 231 263
f 229 263 261
f 230 262 264
f 230 264 232
f 234 233 265
f 234 265 266
f 231 234 266
f 231 266 263
f 233 235 267
f 233 267 265
f 235 236 268
f 235 268 267
f 236 237 269
f 236 269 268
f 237 238 270
f 237 270 269
f 238 239 271
f 238 271 270
f 239 240 272
f 239 272 271
f 240 241 273
f 240 273 272
f 232 264 273
f 232 273 241
f 242 274 275
f 242 275 243
f 242 244 276
f 242 276 274
f 243 275 277
f 243 277 245
f 245 277 278
f 245 278 246
f 246 278 279
f 246 279 247
f 247 279 280
f 247 280 248
f 248 280 281
f 248 281 249
f 249 281 282
f 249 282 250
f 250 282 283
f 250 283 251
f 251 283 284
f 251 284 252
f 244 253 285
f 244 285 276
f 252 284 286
f 252 286 254
f 253 255 287
f 253 287 285
f 254 286 288
f 254 288 256
f 255 257 289
f 255 289 287
f 256 288 290
f 256 290 258
f 257 259 291
f 257 291 289
f 258 290 292
f 258 292 260
f 259 261 293
f 259 293 291
f 260 292 294
f 260 294 262
f 261 263 295
f 261 295 293
f 262 294 296
f 262 296 264
f 266 265 297
f 266 297 298
f 263 266 298
f 263 298 295
f 265 267 299
f 265 299 297
f 267 268 300
f 267 300 299
f 268 269 301
f 268 301 300
f 269 270 302
f 269 302 301
f 270 271 303
f 270 303 302
f 271 272 304
f 271 304 303
f 272 273 305
f 272 305 304
f 264 296 305
f 264 305 273
f 306 307 308
f 306 308 309
f 274 306 309
f 274 309 275
f 274 276 307
f 274 307 306
f 309 308 310
f 309 310 311
f 275 309 311
f 275 311 277
f 311 310 312
f 311 312 313
f 277 311 313
f 277 313 278
f 313 312 314
f 313 314 315
f 278 313 315
f 278 315 279
f 315 314 316
f 315 316 317
f 279 315 317
f 279 317 280
f 317 316 318
f 317 318 319
f 280 317 319
f 280 319 281
f 319 318 320
f 319 320 321
f 281 319 321
f 281 321 282
f 321 320 322
f 321 322 323
f 282 321 323
f 282 323 283
f 283 323 322
f 283 322 284
f 307 324 325
f 307 325 308
f 276 285 324
f 276 324 307
f 308 325 326
f 308 326 310
f 310 326 327
f 310 327 312
f 312 327 328
f 312 328 314
f 314 328 329
f 314 329 316
f 316 329 330
f 316 330 318
f 318 330 331
f 318 331 320
f 320 331 332
f 320 332 322
f 284 322 332
f 284 332 286
f 324 333 334
f 324 334 325
f 285 287 333
f 285 333 324
f 325 334 335
f 325 335 326
f 326 335 336
f 326 336 327
f 327 336 337
f 327 337 328
f 328 337 338
f 328 338 329
f 329 338 339
f 329 339 330
f 330 339 340
f 330 340 331
f 331 340 341
f 331 341 332
f 286 332 341
f 286 341 288
f 333 342 343
f 333 343 334
f 287 289 342
f 287 342 333
f 334 343 344
f 334 344 335
f 335 344 345
f 335 345 336
f 338 346 347
f 338 347 339
f 339 347 348
f 339 348 340
f 340 348 349
f 340 349 341
f 288 341 349
f 288 349 290
f 342 350 351
f 342 351 343
f 289 291 350
f 289 350 342
f 343 351 352
f 343 352 344
f 344 352 353
f 344 353 345
f 346 354 355
f 346 355 347
f 347 355 356
f 347 356 348
f 348 356 357
f 348 357 349
f 290 349 357
f 290 357 292
f 350 358 359
f 350 359 351
f 291 293 358
f 291 358 350
f 351 359 360
f 351 360 352
f 352 360 361
f 352 361 353
f 353 361 362
f 353 362 363
f 363 362 364
f 363 364 354
f 354 364 365
f 354 365 355
f 355 365 366
f 355 366 356
f 356 366 367
f 356 367 357
f 292 357 367
f 292 367 294
f 358 368 369
f 358 369 359
f 293 295 368
f 293 368 358
f 359 369 370
f 359 370 360
f 360 370 371
f 360 371 361
f 361 371 372
f 361 372 362
f 362 372 373
f 362 373 364
f 364 373 374
f 364 374 365
f 365 374 375
f 365 375 366
f 366 375 376
f 366 376 367
f 294 367 376
f 294 376 296
f 368 377 378
f 368 378 369
f 298 297 378
f 298 378 377
f 295 298 377
f 295 377 368
f 369 378 379
f 369 379 370
f 297 299 379
f 297 379 378
f 370 379 380
f 370 380 371
f 299 300 380
f 299 380 379
f 371 380 381
f 371 381 372
f 300 301 381
f 300 381 380
f 372 381 382
f 372 382 373
f 301 302 382
f 301 382 381
f 373 382 383
f 373 383 374
f 302 303 383
f 302 383 382
f 374 383 384
f 374 384 375
f 303 304 384
f 303 384 383
f 375 384 385
f 375 385 376
f 304 305 385
f 304 385 384
f 296 376 385
f 296 385 305
f 336 386 387
f 336 387 337
f 336 345 388
f 336 388 386
f 337 387 389
f 337 389 338
f 338 389 390
f 338 390 346
f 353 363 391
f 353 391 392
f 345 353 392
f 345 392 388
f 363 354 393
f 363 393 391
f 346 390 393
f 346 393 354
f 386 394 395
f 386 395 387
f 386 388 396
f 386 396 394
f 387 395 397
f 387 397 389
f 389 397 398
f 389 398 390
f 392 391 399
f 392 399 400
f 388 392 400
f 388 400 396
f 391 393 401
f 391 401 399
f 390 398 401
f 390 401 393
f 394 402 403
f 394 403 395
f 394 396 404
f 394 404 402
f 395 403 405
f 395 405 397
f 397 405 406
f 397 406 398
f 400 399 407
f 400 407 408
f 396 400 408
f 396 408 404
f 399 401 409
f 399 409 407
f 398 406 409
f 398 409 401
f 402 410 411
f 402 411 403
f 402 404 412
f 402 412 410
f 403 411 413
f 403 413 405
f 405 413 414
f 405 414 406
f 408 407 415
f 408 415 416
f 404 408 416
f 404 416 412
f 407 409 417
f 407 417 415
f 406 414 417
f 406 417 409
f 410 418 419
f 410 419 411
f 410 412 420
f 410 420 418
f 411 419 421
f 411 421 413
f 413 421 422
f 413 422 414
f 416 415 423
f 416 423 424
f 412 416 424
f 412 424 420
f 415 417 425
f 415 425 423
f 414 422 425
f 414 425 417
f 418 426 427
f 418 427 419
f 418 420 428
f 418 428 426
f 419 427 429
f 419 429 421
f 421 429 430
f 421 430 422
f 424 423 431
f 424 431 432
f 420 424 432
f 420 432 428
f 423 425 433
f 423 433 431
f 422 430 433
f 422 433 425
f 426 434 435
f 426 435 427
f 426 428 436
f 426 436 434
f 427 435 437
f 427 437 429
f 429 437 438
f 429 438 430
f 432 431 439
f 432 439 440
f 428 432 440
f 428 440 436
f 431 433 441
f 431 441 439
f 430 438 441
f 430 441 433
f 434 442 443
f 434 443 435
f 434 436 444
f 434 444 442
f 435 443 445
f 435 445 437
f 437 445 446
f 437 446 438
f 440 439 447
f 440 447 448
f 436 440 448
f 436 448 444
f 439 441 449
f 439 449 447
f 438 446 449
f 438 449 441
f 450 451 452
f 450 452 453
f 450 454 455
f 450 455 451
f 450 453 456
f 450 456 454
f 451 457 458
f 451 458 452
f 451 455 459
f 451 459 457
f 457 460 461
f 457 461 458
f 457 459 462
f 457 462 460
f 460 463 464
f 460 464 461
f 460 462 465
f 460 465 463
f 463 466 467
f 463 467 464
f 463 465 468
f 463 468 466
f 466 469 470
f 466 470 467
f 466 468 471
f 466 471 469
f 469 472 473
f 469 473 470
f 469 471 474
f 469 474 472
f 472 475 476
f 472 476 473
f 472 474 477
f 472 477 475
f 475 477 478
f 475 478 476
f 453 452 479
f 453 479 480
f 453 480 481
f 453 481 456
f 452 458 482
f 452 482 479
f 458 461 483
f 458 483 482
f 461 464 484
f 461 484 483
f 464 467 485
f 464 485 484
f 467 470 486
f 467 486 485
f 470 473 487
f 470 487 486
f 473 476 488
f 473 488 487
f 476 478 489
f 476 489 488
f 480 479 490
f 480 490 491
f 480 491 492
f 480 492 481
f 479 482 493
f 479 493 490
f 482 483 442
f 482 442 493
f 483 484 443
f 483 443 442
f 484 485 445
f 484 445 443
f 485 486 494
f 485 494 445
f 486 487 495
f 486 495 494
f 487 488 496
f 487 496 495
f 488 489 497
f 488 497 496
f 491 490 498
f 491 498 499
f 491 499 500
f 491 500 492
f 490 493 501
f 490 501 498
f 493 442 444
f 493 444 501
f 445 494 502
f 445 502 446
f 494 495 503
f 494 503 502
f 495 496 504
f 495 504 503
f 496 497 505
f 496 505 504
f 499 498 506
f 499 506 507
f 499 507 508
f 499 508 500
f 498 501 509
f 498 509 506
f 501 444 448
f 501 448 509
f 446 502 510
f 446 510 449
f 502 503 511
f 502 511 510
f 503 504 512
f 503 512 511
f 504 505 513
f 504 513 512
f 507 506 514
f 507 514 515
f 507 515 516
f 507 516 508
f 506 509 517
f 506 517 514
f 509 448 518
f 509 518 517
f 448 447 519
f 448 519 518
f 447 449 520
f 447 520 519
f 449 510 521
f 449 521 520
f 510 511 522
f 510 522 521
f 511 512 523
f 511 523 522
f 512 513 524
f 512 524 523
f 515 514 525
f 515 525 526
f 515 526 527
f 515 527 516
f 514 517 528
f 514 528 525
f 517 518 529
f 517 529 528
f 518 519 530
f 518 530 529
f 519 520 531
f 519 531 530
f 520 521 532
f 520 532 531
f 521 522 533
f 521 533 532
f 522 523 534
f 522 534 533
f 523 524 535
f 523 535 534
f 526 525 536
f 526 536 537
f 537 536 538
f 537 538 539
f 526 537 539
f 526 539 527
f 525 528 540
f 525 540 536
f 536 540 541
f 536 541 538
f 528 529 542
f 528 542 540
f 540 542 543
f 540 543 541
f 529 530 544
f 529 544 542
f 542 544 545
f 542 545 543
f 530 531 546
f 530 546 544
f 544 546 547
f 544 547 545
f 531 532 548
f 531 548 546
f 546 548 549
f 546 549 547
f 532 533 550
f 532 550 548
f 548 550 551
f 548 551 549
f 533 534 552
f 533 552 550
f 550 552 553
f 550 553 551
f 534 535 553
f 534 553 552
f 454 554 555
f 454 555 455
f 454 456 556
f 454 556 554
f 455 555 557
f 455 557 459
f 459 557 558
f 459 558 462
f 462 558 559
f 462 559 465
f 465 559 560
f 465 560 468
f 468 560 561
f 468 561 471
f 471 561 562
f 471 562 474
f 474 562 563
f 474 563 477
f 477 563 564
f 477 564 478
f 456 481 565
f 456 565 556
f 478 564 566
f 478 566 489
f 481 492 567
f 481 567 565
f 489 566 568
f 489 568 497
f 492 500 569
f 492 569 567
f 497 568 570
f 497 570 505
f 500 508 571
f 500 571 569
f 505 570 572
f 505 572 513
f 508 516 573
f 508 573 571
f 513 572 574
f 513 574 524
f 516 527 575
f 516 575 573
f 524 574 576
f 524 576 535
f 539 538 577
f 539 577 578
f 527 539 578
f 527 578 575
f 538 541 579
f 538 579 577
f 541 543 580
f 541 580 579
f 543 545 581
f 543 581 580
f 545 547 582
f 545 582 581
f 547 549 583
f 547 583 582
f 549 551 584
f 549 584 583
f 551 553 585
f 551 585 584
f 535 576 585
f 535 585 553
f 554 586 587
f 554 587 555
f 554 556 588
f 554 588 586
f 555 587 589
f 555 589 557
f 557 589 590
f 557 590 558
f 558 590 591
f 558 591 559
f 559 591 592
f 559 592 560
f 560 592 593
f 560 593 561
f 561 593 594
f 561 594 562
f 562 594 595
f 562 595 563
f 563 595 596
f 563 596 564
f 556 565 597
f 556 597 588
f 564 596 598
f 564 598 566
f 565 567 599
f 565 599 597
f 566 598 600
f 566 600 568
f 567 569 601
f 567 601 599
f 568 600 602
f 568 602 570
f 569 571 603
f 569 603 601
f 570 602 604
f 570 604 572
f 571 573 605
f 571 605 603
f 572 604 606
f 572 606 574
f 573 575 607
f 573 607 605
f 574 606 608
f 574 608 576
f 578 577 609
f 578 609 610
f 575 578 610
f 575 610 607
f 577 579 611
f 577 611 609
f 579 580 612
f 579 612 611
f 580 581 613
f 580 613 612
f 581 582 614
f 581 614 613
f 582 583 615
f 582 615 614
f 583 584 616
f 583 616 615
f 584 585 617
f 584 617 616
f 576 608 617
f 576 617 585
f 586 618 619
f 586 619 587
f 586 588 620
f 586 620 618
f 587 619 621
f 587 621 589
f 589 621 622
f 589 622 590
f 590 622 623
f 590 623 591
f 591 623 624
f 591 624 592
f 592 624 625
f 592 625 593
f 593 625 626
f 593 626 594
f 594 626 627
f 594 627 595
f 595 627 628
f 595 628 596
f 588 597 629
f 588 629 620
f 596 628 630
f 596 630 598
f 597 599 631
f 597 631 629
f 598 630 632
f 598 632 600
f 599 601 633
f 599 633 631
f 600 632 634
f 600 634 602
f 601 603 635
f 601 635 633
f 602 634 636
f 602 636 604
f 603 605 637
f 603 637 635
f 604 636 638
f 604 638 606
f 605 607 639
f 605 639 637
f 606 638 640
f 606 640 608
f 610 609 641
f 610 641 642
f 607 610 642
f 607 642 639
f 609 611 643
f 609 643 641
f 611 612 644
f 611 644 643
f 612 613 645
f 612 645 644
f 613 614 646
f 613 646 645
f 614 615 647
f 614 647 646
f 615 616 648
f 615 648 647
f 616 617 649
f 616 649 648
f 608 640 649
f 608 649 617
f 618 650 651
f 618 651 619
f 618 620 652
f 618 652 650
f 619 651 653
f 619 653 621
f 621 653 654
f 621 654 622
f 622 654 655
f 622 655 623
f 623 655 656
f 623 656 624
f 624 656 657
f 624 657 625
f 625 657 658
f 625 658 626
f 626 658 659
f 626 659 627
f 627 659 660
f 627 660 628
f 620 629 661
f 620 661 652
f 628 660 662
f 628 662 630
f 629 631 663
f 629 663 661
f 630 662 664
f 630 664 632
f 631 633 665
f 631 665 663
f 632 664 666
f 632 666 634
f 633 635 667
f 633 667 665
f 634 666 668
f 634 668 636
f 635 637 669
f 635 669 667
f 636 668 670
f 636 670 638
f 637 639 671
f 637 671 669
f 638 670 672
f 638 672 640
f 642 641 673
f 642 673 674
f 639 642 674
f 639 674 671
f 641 643 675
f 641 675 673
f 643 644 676
f 643 676 675
f 644 645 677
f 644 677 676
f 645 646 678
f 645 678 677
f 646 647 679
f 646 679 678
f 647 648 680
f 647 680 679
f 648 649 681
f 648 681 680
f 640 672 681
f 640 681 649
f 650 682 683
f 650 683 651
f 650 652 684
f 650 684 682
f 651 683 685
f 651 685 653
f 653 685 686
f 653 686 654
f 654 686 687
f 654 687 655
f 655 687 688
f 655 688 656
f 656 688 689
f 656 689 657
f 657 689 690
f 657 690 658
f 658 690 691
f 658 691 659
f 659 691 692
f 659 692 660
f 652 661 693
f 652 693 684
f 660 692 694
f 660 694 662
f 661 663 695
f 661 695 693
f 662 694 696
f 662 696 664
f 663 665 697
f 663 697 695
f 664 696 698
f 664 698 666
f 665 667 699
f 665 699 697
f 666 698 700
f 666 700 668
f 667 669 701
f 667 701 699
f 668 700 702
f 668 702 670
f 669 671 703
f 669 703 701
f 670 702 704
f 670 704 672
f 674 673 705
f 674 705 706
f 671 674 706
f 671 706 703
f 673 675 707
f 673 707 705
f 675 676 708
f 675 708 707
f 676 677 709
f 676 709 708
f 677 678 710
f 677 710 709
f 678 679 711
f 678 711 710
f 679 680 712
f 679 712 711
f 680 681 713
f 680 713 712
f 672 704 713
f 672 713 681
f 682 714 715
f 682 715 683
f 682 684 716
f 682 716 714
f 683 715 717
f 683 717 685
f 685 717 718
f 685 718 686
f 686 718 719
f 686 719 687
f 687 719 720
f 687 720 688
f 688 720 721
f 688 721 689
f 689 721 722
f 689 722 690
f 690 722 723
f 690 723 691
f 691 723 724
f 691 724 692
f 684 693 725
f 684 725 716
f 692 724 726
f 692 726 694
f 693 695 727
f 693 727 725
f 694 726 728
f 694 728 696
f 695 697 729
f 695 729 727
f 696 728 730
f 696 730 698
f 697 699 731
f 697 731 729
f 698 730 732
f 698 732 700
f 699 701 733
f 699 733 731
f 700 732 734
f 700 734 702
f 701 703 735
f 701 735 733
f 702 734 736
f 702 736 704
f 706 705 737
f 706 737 738
f 703 706 738
f 703 738 735
f 705 707 739
f 705 739 737
f 707 708 740
f 707 740 739
f 708 709 741
f 708 741 740
f 709 710 742
f 709 742 741
f 710 711 743
f 710 743 742
f 711 712 744
f 711 744 743
f 712 713 745
f 712 745 744
f 704 736 745
f 704 745 713
f 746 747 748
f 746 748 749
f 714 746 749
f 714 749 715
f 714 716 747
f 714 747 746
f 749 748 750
f 749 750 751
f 715 749 751
f 715 751 717
f 751 750 752
f 751 752 753
f 717 751 753
f 717 753 718
f 753 752 754
f 753 754 755
f 718 753 755
f 718 755 719
f 755 754 756
f 755 756 757
f 719 755 757
f 719 757 720
f 757 756 758
f 757 758 759
f 720 757 759
f 720 759 721
f 759 758 760
f 759 760 761
f 721 759 761
f 721 761 722
f 761 760 762
f 761 762 763
f 722 761 763
f 722 763 723
f 723 763 762
f 723 762 724
f 747 764 765
f 747 765 748
f 716 725 764
f 716 764 747
f 748 765 766
f 748 766 750
f 750 766 767
f 750 767 752
f 752 767 768
f 752 768 754
f 754 768 769
f 754 769 756
f 756 769 770
f 756 770 758
f 758 770 771
f 758 771 760
f 760 771 772
f 760 772 762
f 724 762 772
f 724 772 726
f 764 773 774
f 764 774 765
f 725 727 773
f 725 773 764
f 765 774 775
f 765 775 766
f 766 775 776
f 766 776 767
f 767 776 777
f 767 777 768
f 768 777 778
f 768 778 769
f 769 778 779
f 769 779 770
f 770 779 780
f 770 780 771
f 771 780 781
f 771 781 772
f 726 772 781
f 726 781 728
f 773 782 783
f 773 783 774
f 727 729 782
f 727 782 773
f 774 783 784
f 774 784 775
f 775 784 785
f 775 785 776
f 776 785 786
f 776 786 777
f 777 786 787
f 777 787 778
f 778 787 788
f 778 788 779
f 779 788 789
f 779 789 780
f 780 789 790
f 780 790 781
f 728 781 790
f 728 790 730
f 782 791 792
f 782 792 783
f 729 731 791
f 729 791 782
f 783 792 793
f 783 793 784
f 784 793 794
f 784 794 785
f 785 794 795
f 785 795 786
f 786 795 796
f 786 796 787
f 787 796 797
f 787 797 788
f 788 797 798
f 788 798 789
f 789 798 799
f 789 799 790
f 730 790 799
f 730 799 732
f 791 800 801
f 791 801 792
f 731 733 800
f 731 800 791
f 792 801 802
f 792 802 793
f 793 802 803
f 793 803 794
f 794 803 804
f 794 804 795
f 795 804 805
f 795 805 796
f 796 805 806
f 796 806 797
f 797 806 807
f 797 807 798
f 798 807 808
f 798 808 799
f 732 799 808
f 732 808 734
f 800 809 810
f 800 810 801
f 733 735 809
f 733 809 800
f 801 810 811
f 801 811 802
f 802 811 812
f 802 812 803
f 803 812 813
f 803 813 804
f 804 813 814
f 804 814 805
f 805 814 815
f 805 815 806
f 806 815 816
f 806 816 807
f 807 816 817
f 807 817 808
f 734 808 817
f 734 817 736
f 809 818 819
f 809 819 810
f 738 737 819
f 738 819 818
f 735 738 818
f 735 818 809
f 810 819 820
f 810 820 811
f 737 739 820
f 737 820 819
f 811 820 821
f 811 821 812
f 739 740 821
f 739 821 820
f 812 821 822
f 812 822 813
f 740 741 822
f 740 822 821
f 813 822 823
f 813 823 814
f 741 742 823
f 741 823 822
f 814 823 824
f 814 824 815
f 742 743 824
f 742 824 823
f 815 824 825
f 815 825 816
f 743 744 825
f 743 825 824
f 816 825 826
f 816 826 817
f 744 745 826
f 744 826 825
f 736 817 826
f 736 826 745
