# Synthetic mesh for S5/S6 experiments
# Two 8x8x8 bodies connected by an 8-long 1x1 bridge.
# occupied_voxels=1032

v 0.000000 0.000000 0.000000
v 0.000000 0.000000 1.000000
v 0.000000 1.000000 1.000000
v 0.000000 1.000000 0.000000
v 1.000000 0.000000 0.000000
v 1.000000 0.000000 1.000000
v 1.000000 1.000000 0.000000
v 0.000000 0.000000 2.000000
v 0.000000 1.000000 2.000000
v 1.000000 0.000000 2.000000
v 0.000000 0.000000 3.000000
v 0.000000 1.000000 3.000000
v 1.000000 0.000000 3.000000
v 0.000000 0.000000 4.000000
v 0.000000 1.000000 4.000000
v 1.000000 0.000000 4.000000
v 0.000000 0.000000 5.000000
v 0.000000 1.000000 5.000000
v 1.000000 0.000000 5.000000
v 0.000000 0.000000 6.000000
v 0.000000 1.000000 6.000000
v 1.000000 0.000000 6.000000
v 0.000000 0.000000 7.000000
v 0.000000 1.000000 7.000000
v 1.000000 0.000000 7.000000
v 0.000000 0.000000 8.000000
v 0.000000 1.000000 8.000000
v 1.000000 0.000000 8.000000
v 1.000000 1.000000 8.000000
v 0.000000 2.000000 1.000000
v 0.000000 2.000000 0.000000
v 1.000000 2.000000 0.000000
v 0.000000 2.000000 2.000000
v 0.000000 2.000000 3.000000
v 0.000000 2.000000 4.000000
v 0.000000 2.000000 5.000000
v 0.000000 2.000000 6.000000
v 0.000000 2.000000 7.000000
v 0.000000 2.000000 8.000000
v 1.000000 2.000000 8.000000
v 0.000000 3.000000 1.000000
v 0.000000 3.000000 0.000000
v 1.000000 3.000000 0.000000
v 0.000000 3.000000 2.000000
v 0.000000 3.000000 3.000000
v 0.000000 3.000000 4.000000
v 0.000000 3.000000 5.000000
v 0.000000 3.000000 6.000000
v 0.000000 3.000000 7.000000
v 0.000000 3.000000 8.000000
v 1.000000 3.000000 8.000000
v 0.000000 4.000000 1.000000
v 0.000000 4.000000 0.000000
v 1.000000 4.000000 0.000000
v 0.000000 4.000000 2.000000
v 0.000000 4.000000 3.000000
v 0.000000 4.000000 4.000000
v 0.000000 4.000000 5.000000
v 0.000000 4.000000 6.000000
v 0.000000 4.000000 7.000000
v 0.000000 4.000000 8.000000
v 1.000000 4.000000 8.000000
v 0.000000 5.000000 1.000000
v 0.000000 5.000000 0.000000
v 1.000000 5.000000 0.000000
v 0.000000 5.000000 2.000000
v 0.000000 5.000000 3.000000
v 0.000000 5.000000 4.000000
v 0.000000 5.000000 5.000000
v 0.000000 5.000000 6.000000
v 0.000000 5.000000 7.000000
v 0.000000 5.000000 8.000000
v 1.000000 5.000000 8.000000
v 0.000000 6.000000 1.000000
v 0.000000 6.000000 0.000000
v 1.000000 6.000000 0.000000
v 0.000000 6.000000 2.000000
v 0.000000 6.000000 3.000000
v 0.000000 6.000000 4.000000
v 0.000000 6.000000 5.000000
v 0.000000 6.000000 6.000000
v 0.000000 6.000000 7.000000
v 0.000000 6.000000 8.000000
v 1.000000 6.000000 8.000000
v 0.000000 7.000000 1.000000
v 0.000000 7.000000 0.000000
v 1.000000 7.000000 0.000000
v 0.000000 7.000000 2.000000
v 0.000000 7.000000 3.000000
v 0.000000 7.000000 4.000000
v 0.000000 7.000000 5.000000
v 0.000000 7.000000 6.000000
v 0.000000 7.000000 7.000000
v 0.000000 7.000000 8.000000
v 1.000000 7.000000 8.000000
v 0.000000 8.000000 1.000000
v 0.000000 8.000000 0.000000
v 1.000000 8.000000 1.000000
v 1.000000 8.000000 0.000000
v 0.000000 8.000000 2.000000
v 1.000000 8.000000 2.000000
v 0.000000 8.000000 3.000000
v 1.000000 8.000000 3.000000
v 0.000000 8.000000 4.000000
v 1.000000 8.000000 4.000000
v 0.000000 8.000000 5.000000
v 1.000000 8.000000 5.000000
v 0.000000 8.000000 6.000000
v 1.000000 8.000000 6.000000
v 0.000000 8.000000 7.000000
v 1.000000 8.000000 7.000000
v 0.000000 8.000000 8.000000
v 1.000000 8.000000 8.000000
v 2.000000 0.000000 0.000000
v 2.000000 0.000000 1.000000
v 2.000000 1.000000 0.000000
v 2.000000 0.000000 2.000000
v 2.000000 0.000000 3.000000
v 2.000000 0.000000 4.000000
v 2.000000 0.000000 5.000000
v 2.000000 0.000000 6.000000
v 2.000000 0.000000 7.000000
v 2.000000 0.000000 8.000000
v 2.000000 1.000000 8.000000
v 2.000000 2.000000 0.000000
v 2.000000 2.000000 8.000000
v 2.000000 3.000000 0.000000
v 2.000000 3.000000 8.000000
v 2.000000 4.000000 0.000000
v 2.000000 4.000000 8.000000
v 2.000000 5.000000 0.000000
v 2.000000 5.000000 8.000000
v 2.000000 6.000000 0.000000
v 2.000000 6.000000 8.000000
v 2.000000 7.000000 0.000000
v 2.000000 7.000000 8.000000
v 2.000000 8.000000 1.000000
v 2.000000 8.000000 0.000000
v 2.000000 8.000000 2.000000
v 2.000000 8.000000 3.000000
v 2.000000 8.000000 4.000000
v 2.000000 8.000000 5.000000
v 2.000000 8.000000 6.000000
v 2.000000 8.000000 7.000000
v 2.000000 8.000000 8.000000
v 3.000000 0.000000 0.000000
v 3.000000 0.000000 1.000000
v 3.000000 1.000000 0.000000
v 3.000000 0.000000 2.000000
v 3.000000 0.000000 3.000000
v 3.000000 0.000000 4.000000
v 3.000000 0.000000 5.000000
v 3.000000 0.000000 6.000000
v 3.000000 0.000000 7.000000
v 3.000000 0.000000 8.000000
v 3.000000 1.000000 8.000000
v 3.000000 2.000000 0.000000
v 3.000000 2.000000 8.000000
v 3.000000 3.000000 0.000000
v 3.000000 3.000000 8.000000
v 3.000000 4.000000 0.000000
v 3.000000 4.000000 8.000000
v 3.000000 5.000000 0.000000
v 3.000000 5.000000 8.000000
v 3.000000 6.000000 0.000000
v 3.000000 6.000000 8.000000
v 3.000000 7.000000 0.000000
v 3.000000 7.000000 8.000000
v 3.000000 8.000000 1.000000
v 3.000000 8.000000 0.000000
v 3.000000 8.000000 2.000000
v 3.000000 8.000000 3.000000
v 3.000000 8.000000 4.000000
v 3.000000 8.000000 5.000000
v 3.000000 8.000000 6.000000
v 3.000000 8.000000 7.000000
v 3.000000 8.000000 8.000000
v 4.000000 0.000000 0.000000
v 4.000000 0.000000 1.000000
v 4.000000 1.000000 0.000000
v 4.000000 0.000000 2.000000
v 4.000000 0.000000 3.000000
v 4.000000 0.000000 4.000000
v 4.000000 0.000000 5.000000
v 4.000000 0.000000 6.000000
v 4.000000 0.000000 7.000000
v 4.000000 0.000000 8.000000
v 4.000000 1.000000 8.000000
v 4.000000 2.000000 0.000000
v 4.000000 2.000000 8.000000
v 4.000000 3.000000 0.000000
v 4.000000 3.000000 8.000000
v 4.000000 4.000000 0.000000
v 4.000000 4.000000 8.000000
v 4.000000 5.000000 0.000000
v 4.000000 5.000000 8.000000
v 4.000000 6.000000 0.000000
v 4.000000 6.000000 8.000000
v 4.000000 7.000000 0.000000
v 4.000000 7.000000 8.000000
v 4.000000 8.000000 1.000000
v 4.000000 8.000000 0.000000
v 4.000000 8.000000 2.000000
v 4.000000 8.000000 3.000000
v 4.000000 8.000000 4.000000
v 4.000000 8.000000 5.000000
v 4.000000 8.000000 6.000000
v 4.000000 8.000000 7.000000
v 4.000000 8.000000 8.000000
v 5.000000 0.000000 0.000000
v 5.000000 0.000000 1.000000
v 5.000000 1.000000 0.000000
v 5.000000 0.000000 2.000000
v 5.000000 0.000000 3.000000
v 5.000000 0.000000 4.000000
v 5.000000 0.000000 5.000000
v 5.000000 0.000000 6.000000
v 5.000000 0.000000 7.000000
v 5.000000 0.000000 8.000000
v 5.000000 1.000000 8.000000
v 5.000000 2.000000 0.000000
v 5.000000 2.000000 8.000000
v 5.000000 3.000000 0.000000
v 5.000000 3.000000 8.000000
v 5.000000 4.000000 0.000000
v 5.000000 4.000000 8.000000
v 5.000000 5.000000 0.000000
v 5.000000 5.000000 8.000000
v 5.000000 6.000000 0.000000
v 5.000000 6.000000 8.000000
v 5.000000 7.000000 0.000000
v 5.000000 7.000000 8.000000
v 5.000000 8.000000 1.000000
v 5.000000 8.000000 0.000000
v 5.000000 8.000000 2.000000
v 5.000000 8.000000 3.000000
v 5.000000 8.000000 4.000000
v 5.000000 8.000000 5.000000
v 5.000000 8.000000 6.000000
v 5.000000 8.000000 7.000000
v 5.000000 8.000000 8.000000
v 6.000000 0.000000 0.000000
v 6.000000 0.000000 1.000000
v 6.000000 1.000000 0.000000
v 6.000000 0.000000 2.000000
v 6.000000 0.000000 3.000000
v 6.000000 0.000000 4.000000
v 6.000000 0.000000 5.000000
v 6.000000 0.000000 6.000000
v 6.000000 0.000000 7.000000
v 6.000000 0.000000 8.000000
v 6.000000 1.000000 8.000000
v 6.000000 2.000000 0.000000
v 6.000000 2.000000 8.000000
v 6.000000 3.000000 0.000000
v 6.000000 3.000000 8.000000
v 6.000000 4.000000 0.000000
v 6.000000 4.000000 8.000000
v 6.000000 5.000000 0.000000
v 6.000000 5.000000 8.000000
v 6.000000 6.000000 0.000000
v 6.000000 6.000000 8.000000
v 6.000000 7.000000 0.000000
v 6.000000 7.000000 8.000000
v 6.000000 8.000000 1.000000
v 6.000000 8.000000 0.000000
v 6.000000 8.000000 2.000000
v 6.000000 8.000000 3.000000
v 6.000000 8.000000 4.000000
v 6.000000 8.000000 5.000000
v 6.000000 8.000000 6.000000
v 6.000000 8.000000 7.000000
v 6.000000 8.000000 8.000000
v 7.000000 0.000000 0.000000
v 7.000000 0.000000 1.000000
v 7.000000 1.000000 0.000000
v 7.000000 0.000000 2.000000
v 7.000000 0.000000 3.000000
v 7.000000 0.000000 4.000000
v 7.000000 0.000000 5.000000
v 7.000000 0.000000 6.000000
v 7.000000 0.000000 7.000000
v 7.000000 0.000000 8.000000
v 7.000000 1.000000 8.000000
v 7.000000 2.000000 0.000000
v 7.000000 2.000000 8.000000
v 7.000000 3.000000 0.000000
v 7.000000 3.000000 8.000000
v 7.000000 4.000000 0.000000
v 7.000000 4.000000 8.000000
v 7.000000 5.000000 0.000000
v 7.000000 5.000000 8.000000
v 7.000000 6.000000 0.000000
v 7.000000 6.000000 8.000000
v 7.000000 7.000000 0.000000
v 7.000000 7.000000 8.000000
v 7.000000 8.000000 1.000000
v 7.000000 8.000000 0.000000
v 7.000000 8.000000 2.000000
v 7.000000 8.000000 3.000000
v 7.000000 8.000000 4.000000
v 7.000000 8.000000 5.000000
v 7.000000 8.000000 6.000000
v 7.000000 8.000000 7.000000
v 7.000000 8.000000 8.000000
v 8.000000 0.000000 0.000000
v 8.000000 1.000000 0.000000
v 8.000000 1.000000 1.000000
v 8.000000 0.000000 1.000000
v 8.000000 1.000000 2.000000
v 8.000000 0.000000 2.000000
v 8.000000 1.000000 3.000000
v 8.000000 0.000000 3.000000
v 8.000000 1.000000 4.000000
v 8.000000 0.000000 4.000000
v 8.000000 1.000000 5.000000
v 8.000000 0.000000 5.000000
v 8.000000 1.000000 6.000000
v 8.000000 0.000000 6.000000
v 8.000000 1.000000 7.000000
v 8.000000 0.000000 7.000000
v 8.000000 1.000000 8.000000
v 8.000000 0.000000 8.000000
v 8.000000 2.000000 0.000000
v 8.000000 2.000000 1.000000
v 8.000000 2.000000 2.000000
v 8.000000 2.000000 3.000000
v 8.000000 2.000000 4.000000
v 8.000000 2.000000 5.000000
v 8.000000 2.000000 6.000000
v 8.000000 2.000000 7.000000
v 8.000000 2.000000 8.000000
v 8.000000 3.000000 0.000000
v 8.000000 3.000000 1.000000
v 8.000000 3.000000 2.000000
v 8.000000 3.000000 3.000000
v 8.000000 3.000000 4.000000
v 8.000000 3.000000 5.000000
v 8.000000 3.000000 6.000000
v 8.000000 3.000000 7.000000
v 8.000000 3.000000 8.000000
v 8.000000 4.000000 0.000000
v 8.000000 4.000000 1.000000
v 8.000000 4.000000 2.000000
v 8.000000 4.000000 3.000000
v 8.000000 4.000000 4.000000
v 8.000000 4.000000 5.000000
v 8.000000 4.000000 6.000000
v 8.000000 4.000000 7.000000
v 8.000000 4.000000 8.000000
v 8.000000 5.000000 0.000000
v 8.000000 5.000000 1.000000
v 8.000000 5.000000 2.000000
v 8.000000 5.000000 3.000000
v 8.000000 5.000000 4.000000
v 8.000000 5.000000 5.000000
v 8.000000 5.000000 6.000000
v 8.000000 5.000000 7.000000
v 8.000000 5.000000 8.000000
v 8.000000 6.000000 0.000000
v 8.000000 6.000000 1.000000
v 8.000000 6.000000 2.000000
v 8.000000 6.000000 3.000000
v 8.000000 6.000000 4.000000
v 8.000000 6.000000 5.000000
v 8.000000 6.000000 6.000000
v 8.000000 6.000000 7.000000
v 8.000000 6.000000 8.000000
v 8.000000 7.000000 0.000000
v 8.000000 7.000000 1.000000
v 8.000000 7.000000 2.000000
v 8.000000 7.000000 3.000000
v 8.000000 7.000000 4.000000
v 8.000000 7.000000 5.000000
v 8.000000 7.000000 6.000000
v 8.000000 7.000000 7.000000
v 8.000000 7.000000 8.000000
v 8.000000 8.000000 0.000000
v 8.000000 8.000000 1.000000
v 8.000000 8.000000 2.000000
v 8.000000 8.000000 3.000000
v 8.000000 8.000000 4.000000
v 8.000000 8.000000 5.000000
v 8.000000 8.000000 6.000000
v 8.000000 8.000000 7.000000
v 8.000000 8.000000 8.000000
v 9.000000 3.000000 3.000000
v 9.000000 3.000000 4.000000
v 9.000000 4.000000 4.000000
v 9.000000 4.000000 3.000000
v 10.000000 3.000000 3.000000
v 10.000000 3.000000 4.000000
v 10.000000 4.000000 4.000000
v 10.000000 4.000000 3.000000
v 11.000000 3.000000 3.000000
v 11.000000 3.000000 4.000000
v 11.000000 4.000000 4.000000
v 11.000000 4.000000 3.000000
v 12.000000 3.000000 3.000000
v 12.000000 3.000000 4.000000
v 12.000000 4.000000 4.000000
v 12.000000 4.000000 3.000000
v 13.000000 3.000000 3.000000
v 13.000000 3.000000 4.000000
v 13.000000 4.000000 4.000000
v 13.000000 4.000000 3.000000
v 14.000000 3.000000 3.000000
v 14.000000 3.000000 4.000000
v 14.000000 4.000000 4.000000
v 14.000000 4.000000 3.000000
v 15.000000 3.000000 3.000000
v 15.000000 3.000000 4.000000
v 15.000000 4.000000 4.000000
v 15.000000 4.000000 3.000000
v 16.000000 3.000000 3.000000
v 16.000000 3.000000 4.000000
v 16.000000 4.000000 4.000000
v 16.000000 4.000000 3.000000
v 16.000000 0.000000 0.000000
v 16.000000 0.000000 1.000000
v 16.000000 1.000000 1.000000
v 16.000000 1.000000 0.000000
v 17.000000 0.000000 0.000000
v 17.000000 0.000000 1.000000
v 17.000000 1.000000 0.000000
v 16.000000 0.000000 2.000000
v 16.000000 1.000000 2.000000
v 17.000000 0.000000 2.000000
v 16.000000 0.000000 3.000000
v 16.000000 1.000000 3.000000
v 17.000000 0.000000 3.000000
v 16.000000 0.000000 4.000000
v 16.000000 1.000000 4.000000
v 17.000000 0.000000 4.000000
v 16.000000 0.000000 5.000000
v 16.000000 1.000000 5.000000
v 17.000000 0.000000 5.000000
v 16.000000 0.000000 6.000000
v 16.000000 1.000000 6.000000
v 17.000000 0.000000 6.000000
v 16.000000 0.000000 7.000000
v 16.000000 1.000000 7.000000
v 17.000000 0.000000 7.000000
v 16.000000 0.000000 8.000000
v 16.000000 1.000000 8.000000
v 17.000000 0.000000 8.000000
v 17.000000 1.000000 8.000000
v 16.000000 2.000000 1.000000
v 16.000000 2.000000 0.000000
v 17.000000 2.000000 0.000000
v 16.000000 2.000000 2.000000
v 16.000000 2.000000 3.000000
v 16.000000 2.000000 4.000000
v 16.000000 2.000000 5.000000
v 16.000000 2.000000 6.000000
v 16.000000 2.000000 7.000000
v 16.000000 2.000000 8.000000
v 17.000000 2.000000 8.000000
v 16.000000 3.000000 1.000000
v 16.000000 3.000000 0.000000
v 17.000000 3.000000 0.000000
v 16.000000 3.000000 2.000000
v 16.000000 3.000000 5.000000
v 16.000000 3.000000 6.000000
v 16.000000 3.000000 7.000000
v 16.000000 3.000000 8.000000
v 17.000000 3.000000 8.000000
v 16.000000 4.000000 1.000000
v 16.000000 4.000000 0.000000
v 17.000000 4.000000 0.000000
v 16.000000 4.000000 2.000000
v 16.000000 4.000000 5.000000
v 16.000000 4.000000 6.000000
v 16.000000 4.000000 7.000000
v 16.000000 4.000000 8.000000
v 17.000000 4.000000 8.000000
v 16.000000 5.000000 1.000000
v 16.000000 5.000000 0.000000
v 17.000000 5.000000 0.000000
v 16.000000 5.000000 2.000000
v 16.000000 5.000000 3.000000
v 16.000000 5.000000 4.000000
v 16.000000 5.000000 5.000000
v 16.000000 5.000000 6.000000
v 16.000000 5.000000 7.000000
v 16.000000 5.000000 8.000000
v 17.000000 5.000000 8.000000
v 16.000000 6.000000 1.000000
v 16.000000 6.000000 0.000000
v 17.000000 6.000000 0.000000
v 16.000000 6.000000 2.000000
v 16.000000 6.000000 3.000000
v 16.000000 6.000000 4.000000
v 16.000000 6.000000 5.000000
v 16.000000 6.000000 6.000000
v 16.000000 6.000000 7.000000
v 16.000000 6.000000 8.000000
v 17.000000 6.000000 8.000000
v 16.000000 7.000000 1.000000
v 16.000000 7.000000 0.000000
v 17.000000 7.000000 0.000000
v 16.000000 7.000000 2.000000
v 16.000000 7.000000 3.000000
v 16.000000 7.000000 4.000000
v 16.000000 7.000000 5.000000
v 16.000000 7.000000 6.000000
v 16.000000 7.000000 7.000000
v 16.000000 7.000000 8.000000
v 17.000000 7.000000 8.000000
v 16.000000 8.000000 1.000000
v 16.000000 8.000000 0.000000
v 17.000000 8.000000 1.000000
v 17.000000 8.000000 0.000000
v 16.000000 8.000000 2.000000
v 17.000000 8.000000 2.000000
v 16.000000 8.000000 3.000000
v 17.000000 8.000000 3.000000
v 16.000000 8.000000 4.000000
v 17.000000 8.000000 4.000000
v 16.000000 8.000000 5.000000
v 17.000000 8.000000 5.000000
v 16.000000 8.000000 6.000000
v 17.000000 8.000000 6.000000
v 16.000000 8.000000 7.000000
v 17.000000 8.000000 7.000000
v 16.000000 8.000000 8.000000
v 17.000000 8.000000 8.000000
v 18.000000 0.000000 0.000000
v 18.000000 0.000000 1.000000
v 18.000000 1.000000 0.000000
v 18.000000 0.000000 2.000000
v 18.000000 0.000000 3.000000
v 18.000000 0.000000 4.000000
v 18.000000 0.000000 5.000000
v 18.000000 0.000000 6.000000
v 18.000000 0.000000 7.000000
v 18.000000 0.000000 8.000000
v 18.000000 1.000000 8.000000
v 18.000000 2.000000 0.000000
v 18.000000 2.000000 8.000000
v 18.000000 3.000000 0.000000
v 18.000000 3.000000 8.000000
v 18.000000 4.000000 0.000000
v 18.000000 4.000000 8.000000
v 18.000000 5.000000 0.000000
v 18.000000 5.000000 8.000000
v 18.000000 6.000000 0.000000
v 18.000000 6.000000 8.000000
v 18.000000 7.000000 0.000000
v 18.000000 7.000000 8.000000
v 18.000000 8.000000 1.000000
v 18.000000 8.000000 0.000000
v 18.000000 8.000000 2.000000
v 18.000000 8.000000 3.000000
v 18.000000 8.000000 4.000000
v 18.000000 8.000000 5.000000
v 18.000000 8.000000 6.000000
v 18.000000 8.000000 7.000000
v 18.000000 8.000000 8.000000
v 19.000000 0.000000 0.000000
v 19.000000 0.000000 1.000000
v 19.000000 1.000000 0.000000
v 19.000000 0.000000 2.000000
v 19.000000 0.000000 3.000000
v 19.000000 0.000000 4.000000
v 19.000000 0.000000 5.000000
v 19.000000 0.000000 6.000000
v 19.000000 0.000000 7.000000
v 19.000000 0.000000 8.000000
v 19.000000 1.000000 8.000000
v 19.000000 2.000000 0.000000
v 19.000000 2.000000 8.000000
v 19.000000 3.000000 0.000000
v 19.000000 3.000000 8.000000
v 19.000000 4.000000 0.000000
v 19.000000 4.000000 8.000000
v 19.000000 5.000000 0.000000
v 19.000000 5.000000 8.000000
v 19.000000 6.000000 0.000000
v 19.000000 6.000000 8.000000
v 19.000000 7.000000 0.000000
v 19.000000 7.000000 8.000000
v 19.000000 8.000000 1.000000
v 19.000000 8.000000 0.000000
v 19.000000 8.000000 2.000000
v 19.000000 8.000000 3.000000
v 19.000000 8.000000 4.000000
v 19.000000 8.000000 5.000000
v 19.000000 8.000000 6.000000
v 19.000000 8.000000 7.000000
v 19.000000 8.000000 8.000000
v 20.000000 0.000000 0.000000
v 20.000000 0.000000 1.000000
v 20.000000 1.000000 0.000000
v 20.000000 0.000000 2.000000
v 20.000000 0.000000 3.000000
v 20.000000 0.000000 4.000000
v 20.000000 0.000000 5.000000
v 20.000000 0.000000 6.000000
v 20.000000 0.000000 7.000000
v 20.000000 0.000000 8.000000
v 20.000000 1.000000 8.000000
v 20.000000 2.000000 0.000000
v 20.000000 2.000000 8.000000
v 20.000000 3.000000 0.000000
v 20.000000 3.000000 8.000000
v 20.000000 4.000000 0.000000
v 20.000000 4.000000 8.000000
v 20.000000 5.000000 0.000000
v 20.000000 5.000000 8.000000
v 20.000000 6.000000 0.000000
v 20.000000 6.000000 8.000000
v 20.000000 7.000000 0.000000
v 20.000000 7.000000 8.000000
v 20.000000 8.000000 1.000000
v 20.000000 8.000000 0.000000
v 20.000000 8.000000 2.000000
v 20.000000 8.000000 3.000000
v 20.000000 8.000000 4.000000
v 20.000000 8.000000 5.000000
v 20.000000 8.000000 6.000000
v 20.000000 8.000000 7.000000
v 20.000000 8.000000 8.000000
v 21.000000 0.000000 0.000000
v 21.000000 0.000000 1.000000
v 21.000000 1.000000 0.000000
v 21.000000 0.000000 2.000000
v 21.000000 0.000000 3.000000
v 21.000000 0.000000 4.000000
v 21.000000 0.000000 5.000000
v 21.000000 0.000000 6.000000
v 21.000000 0.000000 7.000000
v 21.000000 0.000000 8.000000
v 21.000000 1.000000 8.000000
v 21.000000 2.000000 0.000000
v 21.000000 2.000000 8.000000
v 21.000000 3.000000 0.000000
v 21.000000 3.000000 8.000000
v 21.000000 4.000000 0.000000
v 21.000000 4.000000 8.000000
v 21.000000 5.000000 0.000000
v 21.000000 5.000000 8.000000
v 21.000000 6.000000 0.000000
v 21.000000 6.000000 8.000000
v 21.000000 7.000000 0.000000
v 21.000000 7.000000 8.000000
v 21.000000 8.000000 1.000000
v 21.000000 8.000000 0.000000
v 21.000000 8.000000 2.000000
v 21.000000 8.000000 3.000000
v 21.000000 8.000000 4.000000
v 21.000000 8.000000 5.000000
v 21.000000 8.000000 6.000000
v 21.000000 8.000000 7.000000
v 21.000000 8.000000 8.000000
v 22.000000 0.000000 0.000000
v 22.000000 0.000000 1.000000
v 22.000000 1.000000 0.000000
v 22.000000 0.000000 2.000000
v 22.000000 0.000000 3.000000
v 22.000000 0.000000 4.000000
v 22.000000 0.000000 5.000000
v 22.000000 0.000000 6.000000
v 22.000000 0.000000 7.000000
v 22.000000 0.000000 8.000000
v 22.000000 1.000000 8.000000
v 22.000000 2.000000 0.000000
v 22.000000 2.000000 8.000000
v 22.000000 3.000000 0.000000
v 22.000000 3.000000 8.000000
v 22.000000 4.000000 0.000000
v 22.000000 4.000000 8.000000
v 22.000000 5.000000 0.000000
v 22.000000 5.000000 8.000000
v 22.000000 6.000000 0.000000
v 22.000000 6.000000 8.000000
v 22.000000 7.000000 0.000000
v 22.000000 7.000000 8.000000
v 22.000000 8.000000 1.000000
v 22.000000 8.000000 0.000000
v 22.000000 8.000000 2.000000
v 22.000000 8.000000 3.000000
v 22.000000 8.000000 4.000000
v 22.000000 8.000000 5.000000
v 22.000000 8.000000 6.000000
v 22.000000 8.000000 7.000000
v 22.000000 8.000000 8.000000
v 23.000000 0.000000 0.000000
v 23.000000 0.000000 1.000000
v 23.000000 1.000000 0.000000
v 23.000000 0.000000 2.000000
v 23.000000 0.000000 3.000000
v 23.000000 0.000000 4.000000
v 23.000000 0.000000 5.000000
v 23.000000 0.000000 6.000000
v 23.000000 0.000000 7.000000
v 23.000000 0.000000 8.000000
v 23.000000 1.000000 8.000000
v 23.000000 2.000000 0.000000
v 23.000000 2.000000 8.000000
v 23.000000 3.000000 0.000000
v 23.000000 3.000000 8.000000
v 23.000000 4.000000 0.000000
v 23.000000 4.000000 8.000000
v 23.000000 5.000000 0.000000
v 23.000000 5.000000 8.000000
v 23.000000 6.000000 0.000000
v 23.000000 6.000000 8.000000
v 23.000000 7.000000 0.000000
v 23.000000 7.000000 8.000000
v 23.000000 8.000000 1.000000
v 23.000000 8.000000 0.000000
v 23.000000 8.000000 2.000000
v 23.000000 8.000000 3.000000
v 23.000000 8.000000 4.000000
v 23.000000 8.000000 5.000000
v 23.000000 8.000000 6.000000
v 23.000000 8.000000 7.000000
v 23.000000 8.000000 8.000000
v 24.000000 0.000000 0.000000
v 24.000000 1.000000 0.000000
v 24.000000 1.000000 1.000000
v 24.000000 0.000000 1.000000
v 24.000000 1.000000 2.000000
v 24.000000 0.000000 2.000000
v 24.000000 1.000000 3.000000
v 24.000000 0.000000 3.000000
v 24.000000 1.000000 4.000000
v 24.000000 0.000000 4.000000
v 24.000000 1.000000 5.000000
v 24.000000 0.000000 5.000000
v 24.000000 1.000000 6.000000
v 24.000000 0.000000 6.000000
v 24.000000 1.000000 7.000000
v 24.000000 0.000000 7.000000
v 24.000000 1.000000 8.000000
v 24.000000 0.000000 8.000000
v 24.000000 2.000000 0.000000
v 24.000000 2.000000 1.000000
v 24.000000 2.000000 2.000000
v 24.000000 2.000000 3.000000
v 24.000000 2.000000 4.000000
v 24.000000 2.000000 5.000000
v 24.000000 2.000000 6.000000
v 24.000000 2.000000 7.000000
v 24.000000 2.000000 8.000000
v 24.000000 3.000000 0.000000
v 24.000000 3.000000 1.000000
v 24.000000 3.000000 2.000000
v 24.000000 3.000000 3.000000
v 24.000000 3.000000 4.000000
v 24.000000 3.000000 5.000000
v 24.000000 3.000000 6.000000
v 24.000000 3.000000 7.000000
v 24.000000 3.000000 8.000000
v 24.000000 4.000000 0.000000
v 24.000000 4.000000 1.000000
v 24.000000 4.000000 2.000000
v 24.000000 4.000000 3.000000
v 24.000000 4.000000 4.000000
v 24.000000 4.000000 5.000000
v 24.000000 4.000000 6.000000
v 24.000000 4.000000 7.000000
v 24.000000 4.000000 8.000000
v 24.000000 5.000000 0.000000
v 24.000000 5.000000 1.000000
v 24.000000 5.000000 2.000000
v 24.000000 5.000000 3.000000
v 24.000000 5.000000 4.000000
v 24.000000 5.000000 5.000000
v 24.000000 5.000000 6.000000
v 24.000000 5.000000 7.000000
v 24.000000 5.000000 8.000000
v 24.000000 6.000000 0.000000
v 24.000000 6.000000 1.000000
v 24.000000 6.000000 2.000000
v 24.000000 6.000000 3.000000
v 24.000000 6.000000 4.000000
v 24.000000 6.000000 5.000000
v 24.000000 6.000000 6.000000
v 24.000000 6.000000 7.000000
v 24.000000 6.000000 8.000000
v 24.000000 7.000000 0.000000
v 24.000000 7.000000 1.000000
v 24.000000 7.000000 2.000000
v 24.000000 7.000000 3.000000
v 24.000000 7.000000 4.000000
v 24.000000 7.000000 5.000000
v 24.000000 7.000000 6.000000
v 24.000000 7.000000 7.000000
v 24.000000 7.000000 8.000000
v 24.000000 8.000000 0.000000
v 24.000000 8.000000 1.000000
v 24.000000 8.000000 2.000000
v 24.000000 8.000000 3.000000
v 24.000000 8.000000 4.000000
v 24.000000 8.000000 5.000000
v 24.000000 8.000000 6.000000
v 24.000000 8.000000 7.000000
v 24.000000 8.000000 8.000000

f 1 2 3
f 1 3 4
f 1 5 6
f 1 6 2
f 1 4 7
f 1 7 5
f 2 8 9
f 2 9 3
f 2 6 10
f 2 10 8
f 8 11 12
f 8 12 9
f 8 10 13
f 8 13 11
f 11 14 15
f 11 15 12
f 11 13 16
f 11 16 14
f 14 17 18
f 14 18 15
f 14 16 19
f 14 19 17
f 17 20 21
f 17 21 18
f 17 19 22
f 17 22 20
f 20 23 24
f 20 24 21
f 20 22 25
f 20 25 23
f 23 26 27
f 23 27 24
f 23 25 28
f 23 28 26
f 26 28 29
f 26 29 27
f 4 3 30
f 4 30 31
f 4 31 32
f 4 32 7
f 3 9 33
f 3 33 30
f 9 12 34
f 9 34 33
f 12 15 35
f 12 35 34
f 15 18 36
f 15 36 35
f 18 21 37
f 18 37 36
f 21 24 38
f 21 38 37
f 24 27 39
f 24 39 38
f 27 29 40
f 27 40 39
f 31 30 41
f 31 41 42
f 31 42 43
f 31 43 32
f 30 33 44
f 30 44 41
f 33 34 45
f 33 45 44
f 34 35 46
f 34 46 45
f 35 36 47
f 35 47 46
f 36 37 48
f 36 48 47
f 37 38 49
f 37 49 48
f 38 39 50
f 38 50 49
f 39 40 51
f 39 51 50
f 42 41 52
f 42 52 53
f 42 53 54
f 42 54 43
f 41 44 55
f 41 55 52
f 44 45 56
f 44 56 55
f 45 46 57
f 45 57 56
f 46 47 58
f 46 58 57
f 47 48 59
f 47 59 58
f 48 49 60
f 48 60 59
f 49 50 61
f 49 61 60
f 50 51 62
f 50 62 61
f 53 52 63
f 53 63 64
f 53 64 65
f 53 65 54
f 52 55 66
f 52 66 63
f 55 56 67
f 55 67 66
f 56 57 68
f 56 68 67
f 57 58 69
f 57 69 68
f 58 59 70
f 58 70 69
f 59 60 71
f 59 71 70
f 60 61 72
f 60 72 71
f 61 62 73
f 61 73 72
f 64 63 74
f 64 74 75
f 64 75 76
f 64 76 65
f 63 66 77
f 63 77 74
f 66 67 78
f 66 78 77
f 67 68 79
f 67 79 78
f 68 69 80
f 68 80 79
f 69 70 81
f 69 81 80
f 70 71 82
f 70 82 81
f 71 72 83
f 71 83 82
f 72 73 84
f 72 84 83
f 75 74 85
f 75 85 86
f 75 86 87
f 75 87 76
f 74 77 88
f 74 88 85
f 77 78 89
f 77 89 88
f 78 79 90
f 78 90 89
f 79 80 91
f 79 91 90
f 80 81 92
f 80 92 91
f 81 82 93
f 81 93 92
f 82 83 94
f 82 94 93
f 83 84 95
f 83 95 94
f 86 85 96
f 86 96 97
f 97 96 98
f 97 98 99
f 86 97 99
f 86 99 87
f 85 88 100
f 85 100 96
f 96 100 101
f 96 101 98
f 88 89 102
f 88 102 100
f 100 102 103
f 100 103 101
f 89 90 104
f 89 104 102
f 102 104 105
f 102 105 103
f 90 91 106
f 90 106 104
f 104 106 107
f 104 107 105
f 91 92 108
f 91 108 106
f 106 108 109
f 106 109 107
f 92 93 110
f 92 110 108
f 108 110 111
f 108 111 109
f 93 94 112
f 93 112 110
f 110 112 113
f 110 113 111
f 94 95 113
f 94 113 112
f 5 114 115
f 5 115 6
f 5 7 116
f 5 116 114
f 6 115 117
f 6 117 10
f 10 117 118
f 10 118 13
f 13 118 119
f 13 119 16
f 16 119 120
f 16 120 19
f 19 120 121
f 19 121 22
f 22 121 122
f 22 122 25
f 25 122 123
f 25 123 28
f 28 123 124
f 28 124 29
f 7 32 125
f 7 125 116
f 29 124 126
f 29 126 40
f 32 43 127
f 32 127 125
f 40 126 128
f 40 128 51
f 43 54 129
f 43 129 127
f 51 128 130
f 51 130 62
f 54 65 131
f 54 131 129
f 62 130 132
f 62 132 73
f 65 76 133
f 65 133 131
f 73 132 134
f 73 134 84
f 76 87 135
f 76 135 133
f 84 134 136
f 84 136 95
f 99 98 137
f 99 137 138
f 87 99 138
f 87 138 135
f 98 101 139
f 98 139 137
f 101 103 140
f 101 140 139
f 103 105 141
f 103 141 140
f 105 107 142
f 105 142 141
f 107 109 143
f 107 143 142
f 109 111 144
f 109 144 143
f 111 113 145
f 111 145 144
f 95 136 145
f 95 145 113
f 114 146 147
f 114 147 115
f 114 116 148
f 114 148 146
f 115 147 149
f 115 149 117
f 117 149 150
f 117 150 118
f 118 150 151
f 118 151 119
f 119 151 152
f 119 152 120
f 120 152 153
f 120 153 121
f 121 153 154
f 121 154 122
f 122 154 155
f 122 155 123
f 123 155 156
f 123 156 124
f 116 125 157
f 116 157 148
f 124 156 158
f 124 158 126
f 125 127 159
f 125 159 157
f 126 158 160
f 126 160 128
f 127 129 161
f 127 161 159
f 128 160 162
f 128 162 130
f 129 131 163
f 129 163 161
f 130 162 164
f 130 164 132
f 131 133 165
f 131 165 163
f 132 164 166
f 132 166 134
f 133 135 167
f 133 167 165
f 134 166 168
f 134 168 136
f 138 137 169
f 138 169 170
f 135 138 170
f 135 170 167
f 137 139 171
f 137 171 169
f 139 140 172
f 139 172 171
f 140 141 173
f 140 173 172
f 141 142 174
f 141 174 173
f 142 143 175
f 142 175 174
f 143 144 176
f 143 176 175
f 144 145 177
f 144 177 176
f 136 168 177
f 136 177 145
f 146 178 179
f 146 179 147
f 146 148 180
f 146 180 178
f 147 179 181
f 147 181 149
f 149 181 182
f 149 182 150
f 150 182 183
f 150 183 151
f 151 183 184
f 151 184 152
f 152 184 185
f 152 185 153
f 153 185 186
f 153 186 154
f 154 186 187
f 154 187 155
f 155 187 188
f 155 188 156
f 148 157 189
f 148 189 180
f 156 188 190
f 156 190 158
f 157 159 191
f 157 191 189
f 158 190 192
f 158 192 160
f 159 161 193
f 159 193 191
f 160 192 194
f 160 194 162
f 161 163 195
f 161 195 193
f 162 194 196
f 162 196 164
f 163 165 197
f 163 197 195
f 164 196 198
f 164 198 166
f 165 167 199
f 165 199 197
f 166 198 200
f 166 200 168
f 170 169 201
f 170 201 202
f 167 170 202
f 167 202 199
f 169 171 203
f 169 203 201
f 171 172 204
f 171 204 203
f 172 173 205
f 172 205 204
f 173 174 206
f 173 206 205
f 174 175 207
f 174 207 206
f 175 176 208
f 175 208 207
f 176 177 209
f 176 209 208
f 168 200 209
f 168 209 177
f 178 210 211
f 178 211 179
f 178 180 212
f 178 212 210
f 179 211 213
f 179 213 181
f 181 213 214
f 181 214 182
f 182 214 215
f 182 215 183
f 183 215 216
f 183 216 184
f 184 216 217
f 184 217 185
f 185 217 218
f 185 218 186
f 186 218 219
f 186 219 187
f 187 219 220
f 187 220 188
f 180 189 221
f 180 221 212
f 188 220 222
f 188 222 190
f 189 191 223
f 189 223 221
f 190 222 224
f 190 224 192
f 191 193 225
f 191 225 223
f 192 224 226
f 192 226 194
f 193 195 227
f 193 227 225
f 194 226 228
f 194 228 196
f 195 197 229
f 195 229 227
f 196 228 230
f 196 230 198
f 197 199 231
f 197 231 229
f 198 230 232
f 198 232 200
f 202 201 233
f 202 233 234
f 199 202 234
f 199 234 231
f 201 203 235
f 201 235 233
f 203 204 236
f 203 236 235
f 204 205 237
f 204 237 236
f 205 206 238
f 205 238 237
f 206 207 239
f 206 239 238
f 207 208 240
f 207 240 239
f 208 209 241
f 208 241 240
f 200 232 241
f 200 241 209
f 210 242 243
f 210 243 211
f 210 212 244
f 210 244 242
f 211 243 245
f 211 245 213
f 213 245 246
f 213 246 214
f 214 246 247
f 214 247 215
f 215 247 248
f 215 248 216
f 216 248 249
f 216 249 217
f 217 249 250
f 217 250 218
f 218 250 251
f 218 251 219
f 219 251 252
f 219 252 220
f 212 221 253
f 212 253 244
f 220 252 254
f 220 254 222
f 221 223 255
f 221 255 253
f 222 254 256
f 222 256 224
f 223 225 257
f 223 257 255
f 224 256 258
f 224 258 226
f 225 227 259
f 225 259 257
f 226 258 260
f 226 260 228
f 227 229 261
f 227 261 259
f 228 260 262
f 228 262 230
f 229 231 263
f 229 263 261
f 230 262 264
f 230 264 232
f 234 233 265
f 234 265 266
f 231 234 266
f 231 266 263
f 233 235 267
f 233 267 265
f 235 236 268
f 235 268 267
f 236 237 269
f 236 269 268
f 237 238 270
f 237 270 269
f 238 239 271
f 238 271 270
f 239 240 272
f 239 272 271
f 240 241 273
f 240 273 272
f 232 264 273
f 232 273 241
f 242 274 275
f 242 275 243
f 242 244 276
f 242 276 274
f 243 275 277
f 243 277 245
f 245 277 278
f 245 278 246
f 246 278 279
f 246 279 247
f 247 279 280
f 247 280 248
f 248 280 281
f 248 281 249
f 249 281 282
f 249 282 250
f 250 282 283
f 250 283 251
f 251 283 284
f 251 284 252
f 244 253 285
f 244 285 276
f 252 284 286
f 252 286 254
f 253 255 287
f 253 287 285
f 254 286 288
f 254 288 256
f 255 257 289
f 255 289 287
f 256 288 290
f 256 290 258
f 257 259 291
f 257 291 289
f 258 290 292
f 258 292 260
f 259 261 293
f 259 293 291
f 260 292 294
f 260 294 262
f 261 263 295
f 261 295 293
f 262 294 296
f 262 296 264
f 266 265 297
f 266 297 298
f 263 266 298
f 263 298 295
f 265 267 299
f 265 299 297
f 267 268 300
f 267 300 299
f 268 269 301
f 268 301 300
f 269 270 302
f 269 302 301
f 270 271 303
f 270 303 302
f 271 272 304
f 271 304 303
f 272 273 305
f 272 305 304
f 264 296 305
f 264 305 273
f 306 307 308
f 306 308 309
f 274 306 309
f 274 309 275
f 274 276 307
f 274 307 306
f 309 308 310
f 309 310 311
f 275 309 311
f 275 311 277
f 311 310 312
f 311 312 313
f 277 311 313
f 277 313 278
f 313 312 314
f 313 314 315
f 278 313 315
f 278 315 279
f 315 314 316
f 315 316 317
f 279 315 317
f 279 317 280
f 317 316 318
f 317 318 319
f 280 317 319
f 280 319 281
f 319 318 320
f 319 320 321
f 281 319 321
f 281 321 282
f 321 320 322
f 321 322 323
f 282 321 323
f 282 323 283
f 283 323 322
f 283 322 284
f 307 324 325
f 307 325 308
f 276 285 324
f 276 324 307
f 308 325 326
f 308 326 310
f 310 326 327
f 310 327 312
f 312 327 328
f 312 328 314
f 314 328 329
f 314 329 316
f 316 329 330
f 316 330 318
f 318 330 331
f 318 331 320
f 320 331 332
f 320 332 322
f 284 322 332
f 284 332 286
f 324 333 334
f 324 334 325
f 285 287 333
f 285 333 324
f 325 334 335
f 325 335 326
f 326 335 336
f 326 336 327
f 327 336 337
f 327 337 328
f 328 337 338
f 328 338 329
f 329 338 339
f 329 339 330
f 330 339 340
f 330 340 331
f 331 340 341
f 331 341 332
f 286 332 341
f 286 341 288
f 333 342 343
f 333 343 334
f 287 289 342
f 287 342 333
f 334 343 344
f 334 344 335
f 335 344 345
f 335 345 336
f 337 346 347
f 337 347 338
f 338 347 348
f 338 348 339
f 339 348 349
f 339 349 340
f 340 349 350
f 340 350 341
f 288 341 350
f 288 350 290
f 342 351 352
f 342 352 343
f 289 291 351
f 289 351 342
f 343 352 353
f 343 353 344
f 344 353 354
f 344 354 345
f 345 354 355
f 345 355 346
f 346 355 356
f 346 356 347
f 347 356 357
f 347 357 348
f 348 357 358
f 348 358 349
f 349 358 359
f 349 359 350
f 290 350 359
f 290 359 292
f 351 360 361
f 351 361 352
f 291 293 360
f 291 360 351
f 352 361 362
f 352 362 353
f 353 362 363
f 353 363 354
f 354 363 364
f 354 364 355
f 355 364 365
f 355 365 356
f 356 365 366
f 356 366 357
f 357 366 367
f 357 367 358
f 358 367 368
f 358 368 359
f 292 359 368
f 292 368 294
f 360 369 370
f 360 370 361
f 293 295 369
f 293 369 360
f 361 370 371
f 361 371 362
f 362 371 372
f 362 372 363
f 363 372 373
f 363 373 364
f 364 373 374
f 364 374 365
f 365 374 375
f 365 375 366
f 366 375 376
f 366 376 367
f 367 376 377
f 367 377 368
f 294 368 377
f 294 377 296
f 369 378 379
f 369 379 370
f 298 297 379
f 298 379 378
f 295 298 378
f 295 378 369
f 370 379 380
f 370 380 371
f 297 299 380
f 297 380 379
f 371 380 381
f 371 381 372
f 299 300 381
f 299 381 380
f 372 381 382
f 372 382 373
f 300 301 382
f 300 382 381
f 373 382 383
f 373 383 374
f 301 302 383
f 301 383 382
f 374 383 384
f 374 384 375
f 302 303 384
f 302 384 383
f 375 384 385
f 375 385 376
f 303 304 385
f 303 385 384
f 376 385 386
f 376 386 377
f 304 305 386
f 304 386 385
f 296 377 386
f 296 386 305
f 336 387 388
f 336 388 337
f 345 346 389
f 345 389 390
f 336 345 390
f 336 390 387
f 337 388 389
f 337 389 346
f 387 391 392
f 387 392 388
f 390 389 393
f 390 393 394
f 387 390 394
f 387 394 391
f 388 392 393
f 388 393 389
f 391 395 396
f 391 396 392
f 394 393 397
f 394 397 398
f 391 394 398
f 391 398 395
f 392 396 397
f 392 397 393
f 395 399 400
f 395 400 396
f 398 397 401
f 398 401 402
f 395 398 402
f 395 402 399
f 396 400 401
f 396 401 397
f 399 403 404
f 399 404 400
f 402 401 405
f 402 405 406
f 399 402 406
f 399 406 403
f 400 404 405
f 400 405 401
f 403 407 408
f 403 408 404
f 406 405 409
f 406 409 410
f 403 406 410
f 403 410 407
f 404 408 409
f 404 409 405
f 407 411 412
f 407 412 408
f 410 409 413
f 410 413 414
f 407 410 414
f 407 414 411
f 408 412 413
f 408 413 409
f 411 415 416
f 411 416 412
f 414 413 417
f 414 417 418
f 411 414 418
f 411 418 415
f 412 416 417
f 412 417 413
f 419 420 421
f 419 421 422
f 419 423 424
f 419 424 420
f 419 422 425
f 419 425 423
f 420 426 427
f 420 427 421
f 420 424 428
f 420 428 426
f 426 429 430
f 426 430 427
f 426 428 431
f 426 431 429
f 429 432 433
f 429 433 430
f 429 431 434
f 429 434 432
f 432 435 436
f 432 436 433
f 432 434 437
f 432 437 435
f 435 438 439
f 435 439 436
f 435 437 440
f 435 440 438
f 438 441 442
f 438 442 439
f 438 440 443
f 438 443 441
f 441 444 445
f 441 445 442
f 441 443 446
f 441 446 444
f 444 446 447
f 444 447 445
f 422 421 448
f 422 448 449
f 422 449 450
f 422 450 425
f 421 427 451
f 421 451 448
f 427 430 452
f 427 452 451
f 430 433 453
f 430 453 452
f 433 436 454
f 433 454 453
f 436 439 455
f 436 455 454
f 439 442 456
f 439 456 455
f 442 445 457
f 442 457 456
f 445 447 458
f 445 458 457
f 449 448 459
f 449 459 460
f 449 460 461
f 449 461 450
f 448 451 462
f 448 462 459
f 451 452 415
f 451 415 462
f 452 453 416
f 452 416 415
f 453 454 463
f 453 463 416
f 454 455 464
f 454 464 463
f 455 456 465
f 455 465 464
f 456 457 466
f 456 466 465
f 457 458 467
f 457 467 466
f 460 459 468
f 460 468 469
f 460 469 470
f 460 470 461
f 459 462 471
f 459 471 468
f 462 415 418
f 462 418 471
f 416 463 472
f 416 472 417
f 463 464 473
f 463 473 472
f 464 465 474
f 464 474 473
f 465 466 475
f 465 475 474
f 466 467 476
f 466 476 475
f 469 468 477
f 469 477 478
f 469 478 479
f 469 479 470
f 468 471 480
f 468 480 477
f 471 418 481
f 471 481 480
f 418 417 482
f 418 482 481
f 417 472 483
f 417 483 482
f 472 473 484
f 472 484 483
f 473 474 485
f 473 485 484
f 474 475 486
f 474 486 485
f 475 476 487
f 475 487 486
f 478 477 488
f 478 488 489
f 478 489 490
f 478 490 479
f 477 480 491
f 477 491 488
f 480 481 492
f 480 492 491
f 481 482 493
f 481 493 492
f 482 483 494
f 482 494 493
f 483 484 495
f 483 495 494
f 484 485 496
f 484 496 495
f 485 486 497
f 485 497 496
f 486 487 498
f 486 498 497
f 489 488 499
f 489 499 500
f 489 500 501
f 489 501 490
f 488 491 502
f 488 502 499
f 491 492 503
f 491 503 502
f 492 493 504
f 492 504 503
f 493 494 505
f 493 505 504
f 494 495 506
f 494 506 505
f 495 496 507
f 495 507 506
f 496 497 508
f 496 508 507
f 497 498 509
f 497 509 508
f 500 499 510
f 500 510 511
f 511 510 512
f 511 512 513
f 500 511 513
f 500 513 501
f 499 502 514
f 499 514 510
f 510 514 515
f 510 515 512
f 502 503 516
f 502 516 514
f 514 516 517
f 514 517 515
f 503 504 518
f 503 518 516
f 516 518 519
f 516 519 517
f 504 505 520
f 504 520 518
f 518 520 521
f 518 521 519
f 505 506 522
f 505 522 520
f 520 522 523
f 520 523 521
f 506 507 524
f 506 524 522
f 522 524 525
f 522 525 523
f 507 508 526
f 507 526 524
f 524 526 527
f 524 527 525
f 508 509 527
f 508 527 526
f 423 528 529
f 423 529 424
f 423 425 530
f 423 530 528
f 424 529 531
f 424 531 428
f 428 531 532
f 428 532 431
f 431 532 533
f 431 533 434
f 434 533 534
f 434 534 437
f 437 534 535
f 437 535 440
f 440 535 536
f 440 536 443
f 443 536 537
f 443 537 446
f 446 537 538
f 446 538 447
f 425 450 539
f 425 539 530
f 447 538 540
f 447 540 458
f 450 461 541
f 450 541 539
f 458 540 542
f 458 542 467
f 461 470 543
f 461 543 541
f 467 542 544
f 467 544 476
f 470 479 545
f 470 545 543
f 476 544 546
f 476 546 487
f 479 490 547
f 479 547 545
f 487 546 548
f 487 548 498
f 490 501 549
f 490 549 547
f 498 548 550
f 498 550 509
f 513 512 551
f 513 551 552
f 501 513 552
f 501 552 549
f 512 515 553
f 512 553 551
f 515 517 554
f 515 554 553
f 517 519 555
f 517 555 554
f 519 521 556
f 519 556 555
f 521 523 557
f 521 557 556
f 523 525 558
f 523 558 557
f 525 527 559
f 525 559 558
f 509 550 559
f 509 559 527
f 528 560 561
f 528 561 529
f 528 530 562
f 528 562 560
f 529 561 563
f 529 563 531
f 531 563 564
f 531 564 532
f 532 564 565
f 532 565 533
f 533 565 566
f 533 566 534
f 534 566 567
f 534 567 535
f 535 567 568
f 535 568 536
f 536 568 569
f 536 569 537
f 537 569 570
f 537 570 538
f 530 539 571
f 530 571 562
f 538 570 572
f 538 572 540
f 539 541 573
f 539 573 571
f 540 572 574
f 540 574 542
f 541 543 575
f 541 575 573
f 542 574 576
f 542 576 544
f 543 545 577
f 543 577 575
f 544 576 578
f 544 578 546
f 545 547 579
f 545 579 577
f 546 578 580
f 546 580 548
f 547 549 581
f 547 581 579
f 548 580 582
f 548 582 550
f 552 551 583
f 552 583 584
f 549 552 584
f 549 584 581
f 551 553 585
f 551 585 583
f 553 554 586
f 553 586 585
f 554 555 587
f 554 587 586
f 555 556 588
f 555 588 587
f 556 557 589
f 556 589 588
f 557 558 590
f 557 590 589
f 558 559 591
f 558 591 590
f 550 582 591
f 550 591 559
f 560 592 593
f 560 593 561
f 560 562 594
f 560 594 592
f 561 593 595
f 561 595 563
f 563 595 596
f 563 596 564
f 564 596 597
f 564 597 565
f 565 597 598
f 565 598 566
f 566 598 599
f 566 599 567
f 567 599 600
f 567 600 568
f 568 600 601
f 568 601 569
f 569 601 602
f 569 602 570
f 562 571 603
f 562 603 594
f 570 602 604
f 570 604 572
f 571 573 605
f 571 605 603
f 572 604 606
f 572 606 574
f 573 575 607
f 573 607 605
f 574 606 608
f 574 608 576
f 575 577 609
f 575 609 607
f 576 608 610
f 576 610 578
f 577 579 611
f 577 611 609
f 578 610 612
f 578 612 580
f 579 581 613
f 579 613 611
f 580 612 614
f 580 614 582
f 584 583 615
f 584 615 616
f 581 584 616
f 581 616 613
f 583 585 617
f 583 617 615
f 585 586 618
f 585 618 617
f 586 587 619
f 586 619 618
f 587 588 620
f 587 620 619
f 588 589 621
f 588 621 620
f 589 590 622
f 589 622 621
f 590 591 623
f 590 623 622
f 582 614 623
f 582 623 591
f 592 624 625
f 592 625 593
f 592 594 626
f 592 626 624
f 593 625 627
f 593 627 595
f 595 627 628
f 595 628 596
f 596 628 629
f 596 629 597
f 597 629 630
f 597 630 598
f 598 630 631
f 598 631 599
f 599 631 632
f 599 632 600
f 600 632 633
f 600 633 601
f 601 633 634
f 601 634 602
f 594 603 635
f 594 635 626
f 602 634 636
f 602 636 604
f 603 605 637
f 603 637 635
f 604 636 638
f 604 638 606
f 605 607 639
f 605 639 637
f 606 638 640
f 606 640 608
f 607 609 641
f 607 641 639
f 608 640 642
f 608 642 610
f 609 611 643
f 609 643 641
f 610 642 644
f 610 644 612
f 611 613 645
f 611 645 643
f 612 644 646
f 612 646 614
f 616 615 647
f 616 647 648
f 613 616 648
f 613 648 645
f 615 617 649
f 615 649 647
f 617 618 650
f 617 650 649
f 618 619 651
f 618 651 650
f 619 620 652
f 619 652 651
f 620 621 653
f 620 653 652
f 621 622 654
f 621 654 653
f 622 623 655
f 622 655 654
f 614 646 655
f 614 655 623
f 624 656 657
f 624 657 625
f 624 626 658
f 624 658 656
f 625 657 659
f 625 659 627
f 627 659 660
f 627 660 628
f 628 660 661
f 628 661 629
f 629 661 662
f 629 662 630
f 630 662 663
f 630 663 631
f 631 663 664
f 631 664 632
f 632 664 665
f 632 665 633
f 633 665 666
f 633 666 634
f 626 635 667
f 626 667 658
f 634 666 668
f 634 668 636
f 635 637 669
f 635 669 667
f 636 668 670
f 636 670 638
f 637 639 671
f 637 671 669
f 638 670 672
f 638 672 640
f 639 641 673
f 639 673 671
f 640 672 674
f 640 674 642
f 641 643 675
f 641 675 673
f 642 674 676
f 642 676 644
f 643 645 677
f 643 677 675
f 644 676 678
f 644 678 646
f 648 647 679
f 648 679 680
f 645 648 680
f 645 680 677
f 647 649 681
f 647 681 679
f 649 650 682
f 649 682 681
f 650 651 683
f 650 683 682
f 651 652 684
f 651 684 683
f 652 653 685
f 652 685 684
f 653 654 686
f 653 686 685
f 654 655 687
f 654 687 686
f 646 678 687
f 646 687 655
f 656 688 689
f 656 689 657
f 656 658 690
f 656 690 688
f 657 689 691
f 657 691 659
f 659 691 692
f 659 692 660
f 660 692 693
f 660 693 661
f 661 693 694
f 661 694 662
f 662 694 695
f 662 695 663
f 663 695 696
f 663 696 664
f 664 696 697
f 664 697 665
f 665 697 698
f 665 698 666
f 658 667 699
f 658 699 690
f 666 698 700
f 666 700 668
f 667 669 701
f 667 701 699
f 668 700 702
f 668 702 670
f 669 671 703
f 669 703 701
f 670 702 704
f 670 704 672
f 671 673 705
f 671 705 703
f 672 704 706
f 672 706 674
f 673 675 707
f 673 707 705
f 674 706 708
f 674 708 676
f 675 677 709
f 675 709 707
f 676 708 710
f 676 710 678
f 680 679 711
f 680 711 712
f 677 680 712
f 677 712 709
f 679 681 713
f 679 713 711
f 681 682 714
f 681 714 713
f 682 683 715
f 682 715 714
f 683 684 716
f 683 716 715
f 684 685 717
f 684 717 716
f 685 686 718
f 685 718 717
f 686 687 719
f 686 719 718
f 678 710 719
f 678 719 687
f 720 721 722
f 720 722 723
f 688 720 723
f 688 723 689
f 688 690 721
f 688 721 720
f 723 722 724
f 723 724 725
f 689 723 725
f 689 725 691
f 725 724 726
f 725 726 727
f 691 725 727
f 691 727 692
f 727 726 728
f 727 728 729
f 692 727 729
f 692 729 693
f 729 728 730
f 729 730 731
f 693 729 731
f 693 731 694
f 731 730 732
f 731 732 733
f 694 731 733
f 694 733 695
f 733 732 734
f 733 734 735
f 695 733 735
f 695 735 696
f 735 734 736
f 735 736 737
f 696 735 737
f 696 737 697
f 697 737 736
f 697 736 698
f 721 738 739
f 721 739 722
f 690 699 738
f 690 738 721
f 722 739 740
f 722 740 724
f 724 740 741
f 724 741 726
f 726 741 742
f 726 742 728
f 728 742 743
f 728 743 730
f 730 743 744
f 730 744 732
f 732 744 745
f 732 745 734
f 734 745 746
f 734 746 736
f 698 736 746
f 698 746 700
f 738 747 748
f 738 748 739
f 699 701 747
f 699 747 738
f 739 748 749
f 739 749 740
f 740 749 750
f 740 750 741
f 741 750 751
f 741 751 742
f 742 751 752
f 742 752 743
f 743 752 753
f 743 753 744
f 744 753 754
f 744 754 745
f 745 754 755
f 745 755 746
f 700 746 755
f 700 755 702
f 747 756 757
f 747 757 748
f 701 703 756
f 701 756 747
f 748 757 758
f 748 758 749
f 749 758 759
f 749 759 750
f 750 759 760
f 750 760 751
f 751 760 761
f 751 761 752
f 752 761 762
f 752 762 753
f 753 762 763
f 753 763 754
f 754 763 764
f 754 764 755
f 702 755 764
f 702 764 704
f 756 765 766
f 756 766 757
f 703 705 765
f 703 765 756
f 757 766 767
f 757 767 758
f 758 767 768
f 758 768 759
f 759 768 769
f 759 769 760
f 760 769 770
f 760 770 761
f 761 770 771
f 761 771 762
f 762 771 772
f 762 772 763
f 763 772 773
f 763 773 764
f 704 764 773
f 704 773 706
f 765 774 775
f 765 775 766
f 705 707 774
f 705 774 765
f 766 775 776
f 766 776 767
f 767 776 777
f 767 777 768
f 768 777 778
f 768 778 769
f 769 778 779
f 769 779 770
f 770 779 780
f 770 780 771
f 771 780 781
f 771 781 772
f 772 781 782
f 772 782 773
f 706 773 782
f 706 782 708
f 774 783 784
f 774 784 775
f 707 709 783
f 707 783 774
f 775 784 785
f 775 785 776
f 776 785 786
f 776 786 777
f 777 786 787
f 777 787 778
f 778 787 788
f 778 788 779
f 779 788 789
f 779 789 780
f 780 789 790
f 780 790 781
f 781 790 791
f 781 791 782
f 708 782 791
f 708 791 710
f 783 792 793
f 783 793 784
f 712 711 793
f 712 793 792
f 709 712 792
f 709 792 783
f 784 793 794
f 784 794 785
f 711 713 794
f 711 794 793
f 785 794 795
f 785 795 786
f 713 714 795
f 713 795 794
f 786 795 796
f 786 796 787
f 714 715 796
f 714 796 795
f 787 796 797
f 787 797 788
f 715 716 797
f 715 797 796
f 788 797 798
f 788 798 789
f 716 717 798
f 716 798 797
f 789 798 799
f 789 799 790
f 717 718 799
f 717 799 798
f 790 799 800
f 790 800 791
f 718 719 800
f 718 800 799
f 710 791 800
f 710 800 719
