# Synthetic mesh for S5/S6 experiments
# Two 8x8x8 bodies connected by an 8-long 4x4 bridge.
# occupied_voxels=1152

v 0.000000 0.000000 0.000000
v 0.000000 0.000000 1.000000
v 0.000000 1.000000 1.000000
v 0.000000 1.000000 0.000000
v 1.000000 0.000000 0.000000
v 1.000000 0.000000 1.000000
v 1.000000 1.000000 0.000000
v 0.000000 0.000000 2.000000
v 0.000000 1.000000 2.000000
v 1.000000 0.000000 2.000000
v 0.000000 0.000000 3.000000
v 0.000000 1.000000 3.000000
v 1.000000 0.000000 3.000000
v 0.000000 0.000000 4.000000
v 0.000000 1.000000 4.000000
v 1.000000 0.000000 4.000000
v 0.000000 0.000000 5.000000
v 0.000000 1.000000 5.000000
v 1.000000 0.000000 5.000000
v 0.000000 0.000000 6.000000
v 0.000000 1.000000 6.000000
v 1.000000 0.000000 6.000000
v 0.000000 0.000000 7.000000
v 0.000000 1.000000 7.000000
v 1.000000 0.000000 7.000000
v 0.000000 0.000000 8.000000
v 0.000000 1.000000 8.000000
v 1.000000 0.000000 8.000000
v 1.000000 1.000000 8.000000
v 0.000000 2.000000 1.000000
v 0.000000 2.000000 0.000000
v 1.000000 2.000000 0.000000
v 0.000000 2.000000 2.000000
v 0.000000 2.000000 3.000000
v 0.000000 2.000000 4.000000
v 0.000000 2.000000 5.000000
v 0.000000 2.000000 6.000000
v 0.000000 2.000000 7.000000
v 0.000000 2.000000 8.000000
v 1.000000 2.000000 8.000000
v 0.000000 3.000000 1.000000
v 0.000000 3.000000 0.000000
v 1.000000 3.000000 0.000000
v 0.000000 3.000000 2.000000
v 0.000000 3.000000 3.000000
v 0.000000 3.000000 4.000000
v 0.000000 3.000000 5.000000
v 0.000000 3.000000 6.000000
v 0.000000 3.000000 7.000000
v 0.000000 3.000000 8.000000
v 1.000000 3.000000 8.000000
v 0.000000 4.000000 1.000000
v 0.000000 4.000000 0.000000
v 1.000000 4.000000 0.000000
v 0.000000 4.000000 2.000000
v 0.000000 4.000000 3.000000
v 0.000000 4.000000 4.000000
v 0.000000 4.000000 5.000000
v 0.000000 4.000000 6.000000
v 0.000000 4.000000 7.000000
v 0.000000 4.000000 8.000000
v 1.000000 4.000000 8.000000
v 0.000000 5.000000 1.000000
v 0.000000 5.000000 0.000000
v 1.000000 5.000000 0.000000
v 0.000000 5.000000 2.000000
v 0.000000 5.000000 3.000000
v 0.000000 5.000000 4.000000
v 0.000000 5.000000 5.000000
v 0.000000 5.000000 6.000000
v 0.000000 5.000000 7.000000
v 0.000000 5.000000 8.000000
v 1.000000 5.000000 8.000000
v 0.000000 6.000000 1.000000
v 0.000000 6.000000 0.000000
v 1.000000 6.000000 0.000000
v 0.000000 6.000000 2.000000
v 0.000000 6.000000 3.000000
v 0.000000 6.000000 4.000000
v 0.000000 6.000000 5.000000
v 0.000000 6.000000 6.000000
v 0.000000 6.000000 7.000000
v 0.000000 6.000000 8.000000
v 1.000000 6.000000 8.000000
v 0.000000 7.000000 1.000000
v 0.000000 7.000000 0.000000
v 1.000000 7.000000 0.000000
v 0.000000 7.000000 2.000000
v 0.000000 7.000000 3.000000
v 0.000000 7.000000 4.000000
v 0.000000 7.000000 5.000000
v 0.000000 7.000000 6.000000
v 0.000000 7.000000 7.000000
v 0.000000 7.000000 8.000000
v 1.000000 7.000000 8.000000
v 0.000000 8.000000 1.000000
v 0.000000 8.000000 0.000000
v 1.000000 8.000000 1.000000
v 1.000000 8.000000 0.000000
v 0.000000 8.000000 2.000000
v 1.000000 8.000000 2.000000
v 0.000000 8.000000 3.000000
v 1.000000 8.000000 3.000000
v 0.000000 8.000000 4.000000
v 1.000000 8.000000 4.000000
v 0.000000 8.000000 5.000000
v 1.000000 8.000000 5.000000
v 0.000000 8.000000 6.000000
v 1.000000 8.000000 6.000000
v 0.000000 8.000000 7.000000
v 1.000000 8.000000 7.000000
v 0.000000 8.000000 8.000000
v 1.000000 8.000000 8.000000
v 2.000000 0.000000 0.000000
v 2.000000 0.000000 1.000000
v 2.000000 1.000000 0.000000
v 2.000000 0.000000 2.000000
v 2.000000 0.000000 3.000000
v 2.000000 0.000000 4.000000
v 2.000000 0.000000 5.000000
v 2.000000 0.000000 6.000000
v 2.000000 0.000000 7.000000
v 2.000000 0.000000 8.000000
v 2.000000 1.000000 8.000000
v 2.000000 2.000000 0.000000
v 2.000000 2.000000 8.000000
v 2.000000 3.000000 0.000000
v 2.000000 3.000000 8.000000
v 2.000000 4.000000 0.000000
v 2.000000 4.000000 8.000000
v 2.000000 5.000000 0.000000
v 2.000000 5.000000 8.000000
v 2.000000 6.000000 0.000000
v 2.000000 6.000000 8.000000
v 2.000000 7.000000 0.000000
v 2.000000 7.000000 8.000000
v 2.000000 8.000000 1.000000
v 2.000000 8.000000 0.000000
v 2.000000 8.000000 2.000000
v 2.000000 8.000000 3.000000
v 2.000000 8.000000 4.000000
v 2.000000 8.000000 5.000000
v 2.000000 8.000000 6.000000
v 2.000000 8.000000 7.000000
v 2.000000 8.000000 8.000000
v 3.000000 0.000000 0.000000
v 3.000000 0.000000 1.000000
v 3.000000 1.000000 0.000000
v 3.000000 0.000000 2.000000
v 3.000000 0.000000 3.000000
v 3.000000 0.000000 4.000000
v 3.000000 0.000000 5.000000
v 3.000000 0.000000 6.000000
v 3.000000 0.000000 7.000000
v 3.000000 0.000000 8.000000
v 3.000000 1.000000 8.000000
v 3.000000 2.000000 0.000000
v 3.000000 2.000000 8.000000
v 3.000000 3.000000 0.000000
v 3.000000 3.000000 8.000000
v 3.000000 4.000000 0.000000
v 3.000000 4.000000 8.000000
v 3.000000 5.000000 0.000000
v 3.000000 5.000000 8.000000
v 3.000000 6.000000 0.000000
v 3.000000 6.000000 8.000000
v 3.000000 7.000000 0.000000
v 3.000000 7.000000 8.000000
v 3.000000 8.000000 1.000000
v 3.000000 8.000000 0.000000
v 3.000000 8.000000 2.000000
v 3.000000 8.000000 3.000000
v 3.000000 8.000000 4.000000
v 3.000000 8.000000 5.000000
v 3.000000 8.000000 6.000000
v 3.000000 8.000000 7.000000
v 3.000000 8.000000 8.000000
v 4.000000 0.000000 0.000000
v 4.000000 0.000000 1.000000
v 4.000000 1.000000 0.000000
v 4.000000 0.000000 2.000000
v 4.000000 0.000000 3.000000
v 4.000000 0.000000 4.000000
v 4.000000 0.000000 5.000000
v 4.000000 0.000000 6.000000
v 4.000000 0.000000 7.000000
v 4.000000 0.000000 8.000000
v 4.000000 1.000000 8.000000
v 4.000000 2.000000 0.000000
v 4.000000 2.000000 8.000000
v 4.000000 3.000000 0.000000
v 4.000000 3.000000 8.000000
v 4.000000 4.000000 0.000000
v 4.000000 4.000000 8.000000
v 4.000000 5.000000 0.000000
v 4.000000 5.000000 8.000000
v 4.000000 6.000000 0.000000
v 4.000000 6.000000 8.000000
v 4.000000 7.000000 0.000000
v 4.000000 7.000000 8.000000
v 4.000000 8.000000 1.000000
v 4.000000 8.000000 0.000000
v 4.000000 8.000000 2.000000
v 4.000000 8.000000 3.000000
v 4.000000 8.000000 4.000000
v 4.000000 8.000000 5.000000
v 4.000000 8.000000 6.000000
v 4.000000 8.000000 7.000000
v 4.000000 8.000000 8.000000
v 5.000000 0.000000 0.000000
v 5.000000 0.000000 1.000000
v 5.000000 1.000000 0.000000
v 5.000000 0.000000 2.000000
v 5.000000 0.000000 3.000000
v 5.000000 0.000000 4.000000
v 5.000000 0.000000 5.000000
v 5.000000 0.000000 6.000000
v 5.000000 0.000000 7.000000
v 5.000000 0.000000 8.000000
v 5.000000 1.000000 8.000000
v 5.000000 2.000000 0.000000
v 5.000000 2.000000 8.000000
v 5.000000 3.000000 0.000000
v 5.000000 3.000000 8.000000
v 5.000000 4.000000 0.000000
v 5.000000 4.000000 8.000000
v 5.000000 5.000000 0.000000
v 5.000000 5.000000 8.000000
v 5.000000 6.000000 0.000000
v 5.000000 6.000000 8.000000
v 5.000000 7.000000 0.000000
v 5.000000 7.000000 8.000000
v 5.000000 8.000000 1.000000
v 5.000000 8.000000 0.000000
v 5.000000 8.000000 2.000000
v 5.000000 8.000000 3.000000
v 5.000000 8.000000 4.000000
v 5.000000 8.000000 5.000000
v 5.000000 8.000000 6.000000
v 5.000000 8.000000 7.000000
v 5.000000 8.000000 8.000000
v 6.000000 0.000000 0.000000
v 6.000000 0.000000 1.000000
v 6.000000 1.000000 0.000000
v 6.000000 0.000000 2.000000
v 6.000000 0.000000 3.000000
v 6.000000 0.000000 4.000000
v 6.000000 0.000000 5.000000
v 6.000000 0.000000 6.000000
v 6.000000 0.000000 7.000000
v 6.000000 0.000000 8.000000
v 6.000000 1.000000 8.000000
v 6.000000 2.000000 0.000000
v 6.000000 2.000000 8.000000
v 6.000000 3.000000 0.000000
v 6.000000 3.000000 8.000000
v 6.000000 4.000000 0.000000
v 6.000000 4.000000 8.000000
v 6.000000 5.000000 0.000000
v 6.000000 5.000000 8.000000
v 6.000000 6.000000 0.000000
v 6.000000 6.000000 8.000000
v 6.000000 7.000000 0.000000
v 6.000000 7.000000 8.000000
v 6.000000 8.000000 1.000000
v 6.000000 8.000000 0.000000
v 6.000000 8.000000 2.000000
v 6.000000 8.000000 3.000000
v 6.000000 8.000000 4.000000
v 6.000000 8.000000 5.000000
v 6.000000 8.000000 6.000000
v 6.000000 8.000000 7.000000
v 6.000000 8.000000 8.000000
v 7.000000 0.000000 0.000000
v 7.000000 0.000000 1.000000
v 7.000000 1.000000 0.000000
v 7.000000 0.000000 2.000000
v 7.000000 0.000000 3.000000
v 7.000000 0.000000 4.000000
v 7.000000 0.000000 5.000000
v 7.000000 0.000000 6.000000
v 7.000000 0.000000 7.000000
v 7.000000 0.000000 8.000000
v 7.000000 1.000000 8.000000
v 7.000000 2.000000 0.000000
v 7.000000 2.000000 8.000000
v 7.000000 3.000000 0.000000
v 7.000000 3.000000 8.000000
v 7.000000 4.000000 0.000000
v 7.000000 4.000000 8.000000
v 7.000000 5.000000 0.000000
v 7.000000 5.000000 8.000000
v 7.000000 6.000000 0.000000
v 7.000000 6.000000 8.000000
v 7.000000 7.000000 0.000000
v 7.000000 7.000000 8.000000
v 7.000000 8.000000 1.000000
v 7.000000 8.000000 0.000000
v 7.000000 8.000000 2.000000
v 7.000000 8.000000 3.000000
v 7.000000 8.000000 4.000000
v 7.000000 8.000000 5.000000
v 7.000000 8.000000 6.000000
v 7.000000 8.000000 7.000000
v 7.000000 8.000000 8.000000
v 8.000000 0.000000 0.000000
v 8.000000 1.000000 0.000000
v 8.000000 1.000000 1.000000
v 8.000000 0.000000 1.000000
v 8.000000 1.000000 2.000000
v 8.000000 0.000000 2.000000
v 8.000000 1.000000 3.000000
v 8.000000 0.000000 3.000000
v 8.000000 1.000000 4.000000
v 8.000000 0.000000 4.000000
v 8.000000 1.000000 5.000000
v 8.000000 0.000000 5.000000
v 8.000000 1.000000 6.000000
v 8.000000 0.000000 6.000000
v 8.000000 1.000000 7.000000
v 8.000000 0.000000 7.000000
v 8.000000 1.000000 8.000000
v 8.000000 0.000000 8.000000
v 8.000000 2.000000 0.000000
v 8.000000 2.000000 1.000000
v 8.000000 2.000000 2.000000
v 8.000000 2.000000 3.000000
v 8.000000 2.000000 4.000000
v 8.000000 2.000000 5.000000
v 8.000000 2.000000 6.000000
v 8.000000 2.000000 7.000000
v 8.000000 2.000000 8.000000
v 8.000000 3.000000 0.000000
v 8.000000 3.000000 1.000000
v 8.000000 3.000000 2.000000
v 8.000000 3.000000 6.000000
v 8.000000 3.000000 7.000000
v 8.000000 3.000000 8.000000
v 8.000000 4.000000 0.000000
v 8.000000 4.000000 1.000000
v 8.000000 4.000000 2.000000
v 8.000000 4.000000 6.000000
v 8.000000 4.000000 7.000000
v 8.000000 4.000000 8.000000
v 8.000000 5.000000 0.000000
v 8.000000 5.000000 1.000000
v 8.000000 5.000000 2.000000
v 8.000000 5.000000 6.000000
v 8.000000 5.000000 7.000000
v 8.000000 5.000000 8.000000
v 8.000000 6.000000 0.000000
v 8.000000 6.000000 1.000000
v 8.000000 6.000000 2.000000
v 8.000000 6.000000 6.000000
v 8.000000 6.000000 7.000000
v 8.000000 6.000000 8.000000
v 8.000000 7.000000 0.000000
v 8.000000 7.000000 1.000000
v 8.000000 7.000000 2.000000
v 8.000000 7.000000 3.000000
v 8.000000 6.000000 3.000000
v 8.000000 7.000000 4.000000
v 8.000000 6.000000 4.000000
v 8.000000 7.000000 5.000000
v 8.000000 6.000000 5.000000
v 8.000000 7.000000 6.000000
v 8.000000 7.000000 7.000000
v 8.000000 7.000000 8.000000
v 8.000000 8.000000 0.000000
v 8.000000 8.000000 1.000000
v 8.000000 8.000000 2.000000
v 8.000000 8.000000 3.000000
v 8.000000 8.000000 4.000000
v 8.000000 8.000000 5.000000
v 8.000000 8.000000 6.000000
v 8.000000 8.000000 7.000000
v 8.000000 8.000000 8.000000
v 9.000000 2.000000 2.000000
v 9.000000 2.000000 3.000000
v 9.000000 3.000000 2.000000
v 9.000000 2.000000 4.000000
v 9.000000 2.000000 5.000000
v 9.000000 2.000000 6.000000
v 9.000000 3.000000 6.000000
v 9.000000 4.000000 2.000000
v 9.000000 4.000000 6.000000
v 9.000000 5.000000 2.000000
v 9.000000 5.000000 6.000000
v 9.000000 6.000000 3.000000
v 9.000000 6.000000 2.000000
v 9.000000 6.000000 4.000000
v 9.000000 6.000000 5.000000
v 9.000000 6.000000 6.000000
v 10.000000 2.000000 2.000000
v 10.000000 2.000000 3.000000
v 10.000000 3.000000 2.000000
v 10.000000 2.000000 4.000000
v 10.000000 2.000000 5.000000
v 10.000000 2.000000 6.000000
v 10.000000 3.000000 6.000000
v 10.000000 4.000000 2.000000
v 10.000000 4.000000 6.000000
v 10.000000 5.000000 2.000000
v 10.000000 5.000000 6.000000
v 10.000000 6.000000 3.000000
v 10.000000 6.000000 2.000000
v 10.000000 6.000000 4.000000
v 10.000000 6.000000 5.000000
v 10.000000 6.000000 6.000000
v 11.000000 2.000000 2.000000
v 11.000000 2.000000 3.000000
v 11.000000 3.000000 2.000000
v 11.000000 2.000000 4.000000
v 11.000000 2.000000 5.000000
v 11.000000 2.000000 6.000000
v 11.000000 3.000000 6.000000
v 11.000000 4.000000 2.000000
v 11.000000 4.000000 6.000000
v 11.000000 5.000000 2.000000
v 11.000000 5.000000 6.000000
v 11.000000 6.000000 3.000000
v 11.000000 6.000000 2.000000
v 11.000000 6.000000 4.000000
v 11.000000 6.000000 5.000000
v 11.000000 6.000000 6.000000
v 12.000000 2.000000 2.000000
v 12.000000 2.000000 3.000000
v 12.000000 3.000000 2.000000
v 12.000000 2.000000 4.000000
v 12.000000 2.000000 5.000000
v 12.000000 2.000000 6.000000
v 12.000000 3.000000 6.000000
v 12.000000 4.000000 2.000000
v 12.000000 4.000000 6.000000
v 12.000000 5.000000 2.000000
v 12.000000 5.000000 6.000000
v 12.000000 6.000000 3.000000
v 12.000000 6.000000 2.000000
v 12.000000 6.000000 4.000000
v 12.000000 6.000000 5.000000
v 12.000000 6.000000 6.000000
v 13.000000 2.000000 2.000000
v 13.000000 2.000000 3.000000
v 13.000000 3.000000 2.000000
v 13.000000 2.000000 4.000000
v 13.000000 2.000000 5.000000
v 13.000000 2.000000 6.000000
v 13.000000 3.000000 6.000000
v 13.000000 4.000000 2.000000
v 13.000000 4.000000 6.000000
v 13.000000 5.000000 2.000000
v 13.000000 5.000000 6.000000
v 13.000000 6.000000 3.000000
v 13.000000 6.000000 2.000000
v 13.000000 6.000000 4.000000
v 13.000000 6.000000 5.000000
v 13.000000 6.000000 6.000000
v 14.000000 2.000000 2.000000
v 14.000000 2.000000 3.000000
v 14.000000 3.000000 2.000000
v 14.000000 2.000000 4.000000
v 14.000000 2.000000 5.000000
v 14.000000 2.000000 6.000000
v 14.000000 3.000000 6.000000
v 14.000000 4.000000 2.000000
v 14.000000 4.000000 6.000000
v 14.000000 5.000000 2.000000
v 14.000000 5.000000 6.000000
v 14.000000 6.000000 3.000000
v 14.000000 6.000000 2.000000
v 14.000000 6.000000 4.000000
v 14.000000 6.000000 5.000000
v 14.000000 6.000000 6.000000
v 15.000000 2.000000 2.000000
v 15.000000 2.000000 3.000000
v 15.000000 3.000000 2.000000
v 15.000000 2.000000 4.000000
v 15.000000 2.000000 5.000000
v 15.000000 2.000000 6.000000
v 15.000000 3.000000 6.000000
v 15.000000 4.000000 2.000000
v 15.000000 4.000000 6.000000
v 15.000000 5.000000 2.000000
v 15.000000 5.000000 6.000000
v 15.000000 6.000000 3.000000
v 15.000000 6.000000 2.000000
v 15.000000 6.000000 4.000000
v 15.000000 6.000000 5.000000
v 15.000000 6.000000 6.000000
v 16.000000 2.000000 2.000000
v 16.000000 2.000000 3.000000
v 16.000000 3.000000 2.000000
v 16.000000 2.000000 4.000000
v 16.000000 2.000000 5.000000
v 16.000000 2.000000 6.000000
v 16.000000 3.000000 6.000000
v 16.000000 4.000000 2.000000
v 16.000000 4.000000 6.000000
v 16.000000 5.000000 2.000000
v 16.000000 5.000000 6.000000
v 16.000000 6.000000 3.000000
v 16.000000 6.000000 2.000000
v 16.000000 6.000000 4.000000
v 16.000000 6.000000 5.000000
v 16.000000 6.000000 6.000000
v 16.000000 0.000000 0.000000
v 16.000000 0.000000 1.000000
v 16.000000 1.000000 1.000000
v 16.000000 1.000000 0.000000
v 17.000000 0.000000 0.000000
v 17.000000 0.000000 1.000000
v 17.000000 1.000000 0.000000
v 16.000000 0.000000 2.000000
v 16.000000 1.000000 2.000000
v 17.000000 0.000000 2.000000
v 16.000000 0.000000 3.000000
v 16.000000 1.000000 3.000000
v 17.000000 0.000000 3.000000
v 16.000000 0.000000 4.000000
v 16.000000 1.000000 4.000000
v 17.000000 0.000000 4.000000
v 16.000000 0.000000 5.000000
v 16.000000 1.000000 5.000000
v 17.000000 0.000000 5.000000
v 16.000000 0.000000 6.000000
v 16.000000 1.000000 6.000000
v 17.000000 0.000000 6.000000
v 16.000000 0.000000 7.000000
v 16.000000 1.000000 7.000000
v 17.000000 0.000000 7.000000
v 16.000000 0.000000 8.000000
v 16.000000 1.000000 8.000000
v 17.000000 0.000000 8.000000
v 17.000000 1.000000 8.000000
v 16.000000 2.000000 1.000000
v 16.000000 2.000000 0.000000
v 17.000000 2.000000 0.000000
v 16.000000 2.000000 7.000000
v 16.000000 2.000000 8.000000
v 17.000000 2.000000 8.000000
v 16.000000 3.000000 1.000000
v 16.000000 3.000000 0.000000
v 17.000000 3.000000 0.000000
v 16.000000 3.000000 7.000000
v 16.000000 3.000000 8.000000
v 17.000000 3.000000 8.000000
v 16.000000 4.000000 1.000000
v 16.000000 4.000000 0.000000
v 17.000000 4.000000 0.000000
v 16.000000 4.000000 7.000000
v 16.000000 4.000000 8.000000
v 17.000000 4.000000 8.000000
v 16.000000 5.000000 1.000000
v 16.000000 5.000000 0.000000
v 17.000000 5.000000 0.000000
v 16.000000 5.000000 7.000000
v 16.000000 5.000000 8.000000
v 17.000000 5.000000 8.000000
v 16.000000 6.000000 1.000000
v 16.000000 6.000000 0.000000
v 17.000000 6.000000 0.000000
v 16.000000 6.000000 7.000000
v 16.000000 6.000000 8.000000
v 17.000000 6.000000 8.000000
v 16.000000 7.000000 1.000000
v 16.000000 7.000000 0.000000
v 17.000000 7.000000 0.000000
v 16.000000 7.000000 2.000000
v 16.000000 7.000000 3.000000
v 16.000000 7.000000 4.000000
v 16.000000 7.000000 5.000000
v 16.000000 7.000000 6.000000
v 16.000000 7.000000 7.000000
v 16.000000 7.000000 8.000000
v 17.000000 7.000000 8.000000
v 16.000000 8.000000 1.000000
v 16.000000 8.000000 0.000000
v 17.000000 8.000000 1.000000
v 17.000000 8.000000 0.000000
v 16.000000 8.000000 2.000000
v 17.000000 8.000000 2.000000
v 16.000000 8.000000 3.000000
v 17.000000 8.000000 3.000000
v 16.000000 8.000000 4.000000
v 17.000000 8.000000 4.000000
v 16.000000 8.000000 5.000000
v 17.000000 8.000000 5.000000
v 16.000000 8.000000 6.000000
v 17.000000 8.000000 6.000000
v 16.000000 8.000000 7.000000
v 17.000000 8.000000 7.000000
v 16.000000 8.000000 8.000000
v 17.000000 8.000000 8.000000
v 18.000000 0.000000 0.000000
v 18.000000 0.000000 1.000000
v 18.000000 1.000000 0.000000
v 18.000000 0.000000 2.000000
v 18.000000 0.000000 3.000000
v 18.000000 0.000000 4.000000
v 18.000000 0.000000 5.000000
v 18.000000 0.000000 6.000000
v 18.000000 0.000000 7.000000
v 18.000000 0.000000 8.000000
v 18.000000 1.000000 8.000000
v 18.000000 2.000000 0.000000
v 18.000000 2.000000 8.000000
v 18.000000 3.000000 0.000000
v 18.000000 3.000000 8.000000
v 18.000000 4.000000 0.000000
v 18.000000 4.000000 8.000000
v 18.000000 5.000000 0.000000
v 18.000000 5.000000 8.000000
v 18.000000 6.000000 0.000000
v 18.000000 6.000000 8.000000
v 18.000000 7.000000 0.000000
v 18.000000 7.000000 8.000000
v 18.000000 8.000000 1.000000
v 18.000000 8.000000 0.000000
v 18.000000 8.000000 2.000000
v 18.000000 8.000000 3.000000
v 18.000000 8.000000 4.000000
v 18.000000 8.000000 5.000000
v 18.000000 8.000000 6.000000
v 18.000000 8.000000 7.000000
v 18.000000 8.000000 8.000000
v 19.000000 0.000000 0.000000
v 19.000000 0.000000 1.000000
v 19.000000 1.000000 0.000000
v 19.000000 0.000000 2.000000
v 19.000000 0.000000 3.000000
v 19.000000 0.000000 4.000000
v 19.000000 0.000000 5.000000
v 19.000000 0.000000 6.000000
v 19.000000 0.000000 7.000000
v 19.000000 0.000000 8.000000
v 19.000000 1.000000 8.000000
v 19.000000 2.000000 0.000000
v 19.000000 2.000000 8.000000
v 19.000000 3.000000 0.000000
v 19.000000 3.000000 8.000000
v 19.000000 4.000000 0.000000
v 19.000000 4.000000 8.000000
v 19.000000 5.000000 0.000000
v 19.000000 5.000000 8.000000
v 19.000000 6.000000 0.000000
v 19.000000 6.000000 8.000000
v 19.000000 7.000000 0.000000
v 19.000000 7.000000 8.000000
v 19.000000 8.000000 1.000000
v 19.000000 8.000000 0.000000
v 19.000000 8.000000 2.000000
v 19.000000 8.000000 3.000000
v 19.000000 8.000000 4.000000
v 19.000000 8.000000 5.000000
v 19.000000 8.000000 6.000000
v 19.000000 8.000000 7.000000
v 19.000000 8.000000 8.000000
v 20.000000 0.000000 0.000000
v 20.000000 0.000000 1.000000
v 20.000000 1.000000 0.000000
v 20.000000 0.000000 2.000000
v 20.000000 0.000000 3.000000
v 20.000000 0.000000 4.000000
v 20.000000 0.000000 5.000000
v 20.000000 0.000000 6.000000
v 20.000000 0.000000 7.000000
v 20.000000 0.000000 8.000000
v 20.000000 1.000000 8.000000
v 20.000000 2.000000 0.000000
v 20.000000 2.000000 8.000000
v 20.000000 3.000000 0.000000
v 20.000000 3.000000 8.000000
v 20.000000 4.000000 0.000000
v 20.000000 4.000000 8.000000
v 20.000000 5.000000 0.000000
v 20.000000 5.000000 8.000000
v 20.000000 6.000000 0.000000
v 20.000000 6.000000 8.000000
v 20.000000 7.000000 0.000000
v 20.000000 7.000000 8.000000
v 20.000000 8.000000 1.000000
v 20.000000 8.000000 0.000000
v 20.000000 8.000000 2.000000
v 20.000000 8.000000 3.000000
v 20.000000 8.000000 4.000000
v 20.000000 8.000000 5.000000
v 20.000000 8.000000 6.000000
v 20.000000 8.000000 7.000000
v 20.000000 8.000000 8.000000
v 21.000000 0.000000 0.000000
v 21.000000 0.000000 1.000000
v 21.000000 1.000000 0.000000
v 21.000000 0.000000 2.000000
v 21.000000 0.000000 3.000000
v 21.000000 0.000000 4.000000
v 21.000000 0.000000 5.000000
v 21.000000 0.000000 6.000000
v 21.000000 0.000000 7.000000
v 21.000000 0.000000 8.000000
v 21.000000 1.000000 8.000000
v 21.000000 2.000000 0.000000
v 21.000000 2.000000 8.000000
v 21.000000 3.000000 0.000000
v 21.000000 3.000000 8.000000
v 21.000000 4.000000 0.000000
v 21.000000 4.000000 8.000000
v 21.000000 5.000000 0.000000
v 21.000000 5.000000 8.000000
v 21.000000 6.000000 0.000000
v 21.000000 6.000000 8.000000
v 21.000000 7.000000 0.000000
v 21.000000 7.000000 8.000000
v 21.000000 8.000000 1.000000
v 21.000000 8.000000 0.000000
v 21.000000 8.000000 2.000000
v 21.000000 8.000000 3.000000
v 21.000000 8.000000 4.000000
v 21.000000 8.000000 5.000000
v 21.000000 8.000000 6.000000
v 21.000000 8.000000 7.000000
v 21.000000 8.000000 8.000000
v 22.000000 0.000000 0.000000
v 22.000000 0.000000 1.000000
v 22.000000 1.000000 0.000000
v 22.000000 0.000000 2.000000
v 22.000000 0.000000 3.000000
v 22.000000 0.000000 4.000000
v 22.000000 0.000000 5.000000
v 22.000000 0.000000 6.000000
v 22.000000 0.000000 7.000000
v 22.000000 0.000000 8.000000
v 22.000000 1.000000 8.000000
v 22.000000 2.000000 0.000000
v 22.000000 2.000000 8.000000
v 22.000000 3.000000 0.000000
v 22.000000 3.000000 8.000000
v 22.000000 4.000000 0.000000
v 22.000000 4.000000 8.000000
v 22.000000 5.000000 0.000000
v 22.000000 5.000000 8.000000
v 22.000000 6.000000 0.000000
v 22.000000 6.000000 8.000000
v 22.000000 7.000000 0.000000
v 22.000000 7.000000 8.000000
v 22.000000 8.000000 1.000000
v 22.000000 8.000000 0.000000
v 22.000000 8.000000 2.000000
v 22.000000 8.000000 3.000000
v 22.000000 8.000000 4.000000
v 22.000000 8.000000 5.000000
v 22.000000 8.000000 6.000000
v 22.000000 8.000000 7.000000
v 22.000000 8.000000 8.000000
v 23.000000 0.000000 0.000000
v 23.000000 0.000000 1.000000
v 23.000000 1.000000 0.000000
v 23.000000 0.000000 2.000000
v 23.000000 0.000000 3.000000
v 23.000000 0.000000 4.000000
v 23.000000 0.000000 5.000000
v 23.000000 0.000000 6.000000
v 23.000000 0.000000 7.000000
v 23.000000 0.000000 8.000000
v 23.000000 1.000000 8.000000
v 23.000000 2.000000 0.000000
v 23.000000 2.000000 8.000000
v 23.000000 3.000000 0.000000
v 23.000000 3.000000 8.000000
v 23.000000 4.000000 0.000000
v 23.000000 4.000000 8.000000
v 23.000000 5.000000 0.000000
v 23.000000 5.000000 8.000000
v 23.000000 6.000000 0.000000
v 23.000000 6.000000 8.000000
v 23.000000 7.000000 0.000000
v 23.000000 7.000000 8.000000
v 23.000000 8.000000 1.000000
v 23.000000 8.000000 0.000000
v 23.000000 8.000000 2.000000
v 23.000000 8.000000 3.000000
v 23.000000 8.000000 4.000000
v 23.000000 8.000000 5.000000
v 23.000000 8.000000 6.000000
v 23.000000 8.000000 7.000000
v 23.000000 8.000000 8.000000
v 24.000000 0.000000 0.000000
v 24.000000 1.000000 0.000000
v 24.000000 1.000000 1.000000
v 24.000000 0.000000 1.000000
v 24.000000 1.000000 2.000000
v 24.000000 0.000000 2.000000
v 24.000000 1.000000 3.000000
v 24.000000 0.000000 3.000000
v 24.000000 1.000000 4.000000
v 24.000000 0.000000 4.000000
v 24.000000 1.000000 5.000000
v 24.000000 0.000000 5.000000
v 24.000000 1.000000 6.000000
v 24.000000 0.000000 6.000000
v 24.000000 1.000000 7.000000
v 24.000000 0.000000 7.000000
v 24.000000 1.000000 8.000000
v 24.000000 0.000000 8.000000
v 24.000000 2.000000 0.000000
v 24.000000 2.000000 1.000000
v 24.000000 2.000000 2.000000
v 24.000000 2.000000 3.000000
v 24.000000 2.000000 4.000000
v 24.000000 2.000000 5.000000
v 24.000000 2.000000 6.000000
v 24.000000 2.000000 7.000000
v 24.000000 2.000000 8.000000
v 24.000000 3.000000 0.000000
v 24.000000 3.000000 1.000000
v 24.000000 3.000000 2.000000
v 24.000000 3.000000 3.000000
v 24.000000 3.000000 4.000000
v 24.000000 3.000000 5.000000
v 24.000000 3.000000 6.000000
v 24.000000 3.000000 7.000000
v 24.000000 3.000000 8.000000
v 24.000000 4.000000 0.000000
v 24.000000 4.000000 1.000000
v 24.000000 4.000000 2.000000
v 24.000000 4.000000 3.000000
v 24.000000 4.000000 4.000000
v 24.000000 4.000000 5.000000
v 24.000000 4.000000 6.000000
v 24.000000 4.000000 7.000000
v 24.000000 4.000000 8.000000
v 24.000000 5.000000 0.000000
v 24.000000 5.000000 1.000000
v 24.000000 5.000000 2.000000
v 24.000000 5.000000 3.000000
v 24.000000 5.000000 4.000000
v 24.000000 5.000000 5.000000
v 24.000000 5.000000 6.000000
v 24.000000 5.000000 7.000000
v 24.000000 5.000000 8.000000
v 24.000000 6.000000 0.000000
v 24.000000 6.000000 1.000000
v 24.000000 6.000000 2.000000
v 24.000000 6.000000 3.000000
v 24.000000 6.000000 4.000000
v 24.000000 6.000000 5.000000
v 24.000000 6.000000 6.000000
v 24.000000 6.000000 7.000000
v 24.000000 6.000000 8.000000
v 24.000000 7.000000 0.000000
v 24.000000 7.000000 1.000000
v 24.000000 7.000000 2.000000
v 24.000000 7.000000 3.000000
v 24.000000 7.000000 4.000000
v 24.000000 7.000000 5.000000
v 24.000000 7.000000 6.000000
v 24.000000 7.000000 7.000000
v 24.000000 7.000000 8.000000
v 24.000000 8.000000 0.000000
v 24.000000 8.000000 1.000000
v 24.000000 8.000000 2.000000
v 24.000000 8.000000 3.000000
v 24.000000 8.000000 4.000000
v 24.000000 8.000000 5.000000
v 24.000000 8.000000 6.000000
v 24.000000 8.000000 7.000000
v 24.000000 8.000000 8.000000

f 1 2 3
f 1 3 4
f 1 5 6
f 1 6 2
f 1 4 7
f 1 7 5
f 2 8 9
f 2 9 3
f 2 6 10
f 2 10 8
f 8 11 12
f 8 12 9
f 8 10 13
f 8 13 11
f 11 14 15
f 11 15 12
f 11 13 16
f 11 16 14
f 14 17 18
f 14 18 15
f 14 16 19
f 14 19 17
f 17 20 21
f 17 21 18
f 17 19 22
f 17 22 20
f 20 23 24
f 20 24 21
f 20 22 25
f 20 25 23
f 23 26 27
f 23 27 24
f 23 25 28
f 23 28 26
f 26 28 29
f 26 29 27
f 4 3 30
f 4 30 31
f 4 31 32
f 4 32 7
f 3 9 33
f 3 33 30
f 9 12 34
f 9 34 33
f 12 15 35
f 12 35 34
f 15 18 36
f 15 36 35
f 18 21 37
f 18 37 36
f 21 24 38
f 21 38 37
f 24 27 39
f 24 39 38
f 27 29 40
f 27 40 39
f 31 30 41
f 31 41 42
f 31 42 43
f 31 43 32
f 30 33 44
f 30 44 41
f 33 34 45
f 33 45 44
f 34 35 46
f 34 46 45
f 35 36 47
f 35 47 46
f 36 37 48
f 36 48 47
f 37 38 49
f 37 49 48
f 38 39 50
f 38 50 49
f 39 40 51
f 39 51 50
f 42 41 52
f 42 52 53
f 42 53 54
f 42 54 43
f 41 44 55
f 41 55 52
f 44 45 56
f 44 56 55
f 45 46 57
f 45 57 56
f 46 47 58
f 46 58 57
f 47 48 59
f 47 59 58
f 48 49 60
f 48 60 59
f 49 50 61
f 49 61 60
f 50 51 62
f 50 62 61
f 53 52 63
f 53 63 64
f 53 64 65
f 53 65 54
f 52 55 66
f 52 66 63
f 55 56 67
f 55 67 66
f 56 57 68
f 56 68 67
f 57 58 69
f 57 69 68
f 58 59 70
f 58 70 69
f 59 60 71
f 59 71 70
f 60 61 72
f 60 72 71
f 61 62 73
f 61 73 72
f 64 63 74
f 64 74 75
f 64 75 76
f 64 76 65
f 63 66 77
f 63 77 74
f 66 67 78
f 66 78 77
f 67 68 79
f 67 79 78
f 68 69 80
f 68 80 79
f 69 70 81
f 69 81 80
f 70 71 82
f 70 82 81
f 71 72 83
f 71 83 82
f 72 73 84
f 72 84 83
f 75 74 85
f 75 85 86
f 75 86 87
f 75 87 76
f 74 77 88
f 74 88 85
f 77 78 89
f 77 89 88
f 78 79 90
f 78 90 89
f 79 80 91
f 79 91 90
f 80 81 92
f 80 92 91
f 81 82 93
f 81 93 92
f 82 83 94
f 82 94 93
f 83 84 95
f 83 95 94
f 86 85 96
f 86 96 97
f 97 96 98
f 97 98 99
f 86 97 99
f 86 99 87
f 85 88 100
f 85 100 96
f 96 100 101
f 96 101 98
f 88 89 102
f 88 102 100
f 100 102 103
f 100 103 101
f 89 90 104
f 89 104 102
f 102 104 105
f 102 105 103
f 90 91 106
f 90 106 104
f 104 106 107
f 104 107 105
f 91 92 108
f 91 108 106
f 106 108 109
f 106 109 107
f 92 93 110
f 92 110 108
f 108 110 111
f 108 111 109
f 93 94 112
f 93 112 110
f 110 112 113
f 110 113 111
f 94 95 113
f 94 113 112
f 5 114 115
f 5 115 6
f 5 7 116
f 5 116 114
f 6 115 117
f 6 117 10
f 10 117 118
f 10 118 13
f 13 118 119
f 13 119 16
f 16 119 120
f 16 120 19
f 19 120 121
f 19 121 22
f 22 121 122
f 22 122 25
f 25 122 123
f 25 123 28
f 28 123 124
f 28 124 29
f 7 32 125
f 7 125 116
f 29 124 126
f 29 126 40
f 32 43 127
f 32 127 125
f 40 126 128
f 40 128 51
f 43 54 129
f 43 129 127
f 51 128 130
f 51 130 62
f 54 65 131
f 54 131 129
f 62 130 132
f 62 132 73
f 65 76 133
f 65 133 131
f 73 132 134
f 73 134 84
f 76 87 135
f 76 135 133
f 84 134 136
f 84 136 95
f 99 98 137
f 99 137 138
f 87 99 138
f 87 138 135
f 98 101 139
f 98 139 137
f 101 103 140
f 101 140 139
f 103 105 141
f 103 141 140
f 105 107 142
f 105 142 141
f 107 109 143
f 107 143 142
f 109 111 144
f 109 144 143
f 111 113 145
f 111 145 144
f 95 136 145
f 95 145 113
f 114 146 147
f 114 147 115
f 114 116 148
f 114 148 146
f 115 147 149
f 115 149 117
f 117 149 150
f 117 150 118
f 118 150 151
f 118 151 119
f 119 151 152
f 119 152 120
f 120 152 153
f 120 153 121
f 121 153 154
f 121 154 122
f 122 154 155
f 122 155 123
f 123 155 156
f 123 156 124
f 116 125 157
f 116 157 148
f 124 156 158
f 124 158 126
f 125 127 159
f 125 159 157
f 126 158 160
f 126 160 128
f 127 129 161
f 127 161 159
f 128 160 162
f 128 162 130
f 129 131 163
f 129 163 161
f 130 162 164
f 130 164 132
f 131 133 165
f 131 165 163
f 132 164 166
f 132 166 134
f 133 135 167
f 133 167 165
f 134 166 168
f 134 168 136
f 138 137 169
f 138 169 170
f 135 138 170
f 135 170 167
f 137 139 171
f 137 171 169
f 139 140 172
f 139 172 171
f 140 141 173
f 140 173 172
f 141 142 174
f 141 174 173
f 142 143 175
f 142 175 174
f 143 144 176
f 143 176 175
f 144 145 177
f 144 177 176
f 136 168 177
f 136 177 145
f 146 178 179
f 146 179 147
f 146 148 180
f 146 180 178
f 147 179 181
f 147 181 149
f 149 181 182
f 149 182 150
f 150 182 183
f 150 183 151
f 151 183 184
f 151 184 152
f 152 184 185
f 152 185 153
f 153 185 186
f 153 186 154
f 154 186 187
f 154 187 155
f 155 187 188
f 155 188 156
f 148 157 189
f 148 189 180
f 156 188 190
f 156 190 158
f 157 159 191
f 157 191 189
f 158 190 192
f 158 192 160
f 159 161 193
f 159 193 191
f 160 192 194
f 160 194 162
f 161 163 195
f 161 195 193
f 162 194 196
f 162 196 164
f 163 165 197
f 163 197 195
f 164 196 198
f 164 198 166
f 165 167 199
f 165 199 197
f 166 198 200
f 166 200 168
f 170 169 201
f 170 201 202
f 167 170 202
f 167 202 199
f 169 171 203
f 169 203 201
f 171 172 204
f 171 204 203
f 172 173 205
f 172 205 204
f 173 174 206
f 173 206 205
f 174 175 207
f 174 207 206
f 175 176 208
f 175 208 207
f 176 177 209
f 176 209 208
f 168 200 209
f 168 209 177
f 178 210 211
f 178 211 179
f 178 180 212
f 178 212 210
f 179 211 213
f 179 213 181
f 181 213 214
f 181 214 182
f 182 214 215
f 182 215 183
f 183 215 216
f 183 216 184
f 184 216 217
f 184 217 185
f 185 217 218
f 185 218 186
f 186 218 219
f 186 219 187
f 187 219 220
f 187 220 188
f 180 189 221
f 180 221 212
f 188 220 222
f 188 222 190
f 189 191 223
f 189 223 221
f 190 222 224
f 190 224 192
f 191 193 225
f 191 225 223
f 192 224 226
f 192 226 194
f 193 195 227
f 193 227 225
f 194 226 228
f 194 228 196
f 195 197 229
f 195 229 227
f 196 228 230
f 196 230 198
f 197 199 231
f 197 231 229
f 198 230 232
f 198 232 200
f 202 201 233
f 202 233 234
f 199 202 234
f 199 234 231
f 201 203 235
f 201 235 233
f 203 204 236
f 203 236 235
f 204 205 237
f 204 237 236
f 205 206 238
f 205 238 237
f 206 207 239
f 206 239 238
f 207 208 240
f 207 240 239
f 208 209 241
f 208 241 240
f 200 232 241
f 200 241 209
f 210 242 243
f 210 243 211
f 210 212 244
f 210 244 242
f 211 243 245
f 211 245 213
f 213 245 246
f 213 246 214
f 214 246 247
f 214 247 215
f 215 247 248
f 215 248 216
f 216 248 249
f 216 249 217
f 217 249 250
f 217 250 218
f 218 250 251
f 218 251 219
f 219 251 252
f 219 252 220
f 212 221 253
f 212 253 244
f 220 252 254
f 220 254 222
f 221 223 255
f 221 255 253
f 222 254 256
f 222 256 224
f 223 225 257
f 223 257 255
f 224 256 258
f 224 258 226
f 225 227 259
f 225 259 257
f 226 258 260
f 226 260 228
f 227 229 261
f 227 261 259
f 228 260 262
f 228 262 230
f 229 231 263
f 229 263 261
f 230 262 264
f 230 264 232
f 234 233 265
f 234 265 266
f 231 234 266
f 231 266 263
f 233 235 267
f 233 267 265
f 235 236 268
f 235 268 267
f 236 237 269
f 236 269 268
f 237 238 270
f 237 270 269
f 238 239 271
f 238 271 270
f 239 240 272
f 239 272 271
f 240 241 273
f 240 273 272
f 232 264 273
f 232 273 241
f 242 274 275
f 242 275 243
f 242 244 276
f 242 276 274
f 243 275 277
f 243 277 245
f 245 277 278
f 245 278 246
f 246 278 279
f 246 279 247
f 247 279 280
f 247 280 248
f 248 280 281
f 248 281 249
f 249 281 282
f 249 282 250
f 250 282 283
f 250 283 251
f 251 283 284
f 251 284 252
f 244 253 285
f 244 285 276
f 252 284 286
f 252 286 254
f 253 255 287
f 253 287 285
f 254 286 288
f 254 288 256
f 255 257 289
f 255 289 287
f 256 288 290
f 256 290 258
f 257 259 291
f 257 291 289
f 258 290 292
f 258 292 260
f 259 261 293
f 259 293 291
f 260 292 294
f 260 294 262
f 261 263 295
f 261 295 293
f 262 294 296
f 262 296 264
f 266 265 297
f 266 297 298
f 263 266 298
f 263 298 295
f 265 267 299
f 265 299 297
f 267 268 300
f 267 300 299
f 268 269 301
f 268 301 300
f 269 270 302
f 269 302 301
f 270 271 303
f 270 303 302
f 271 272 304
f 271 304 303
f 272 273 305
f 272 305 304
f 264 296 305
f 264 305 273
f 306 307 308
f 306 308 309
f 274 306 309
f 274 309 275
f 274 276 307
f 274 307 306
f 309 308 310
f 309 310 311
f 275 309 311
f 275 311 277
f 311 310 312
f 311 312 313
f 277 311 313
f 277 313 278
f 313 312 314
f 313 314 315
f 278 313 315
f 278 315 279
f 315 314 316
f 315 316 317
f 279 315 317
f 279 317 280
f 317 316 318
f 317 318 319
f 280 317 319
f 280 319 281
f 319 318 320
f 319 320 321
f 281 319 321
f 281 321 282
f 321 320 322
f 321 322 323
f 282 321 323
f 282 323 283
f 283 323 322
f 283 322 284
f 307 324 325
f 307 325 308
f 276 285 324
f 276 324 307
f 308 325 326
f 308 326 310
f 310 326 327
f 310 327 312
f 312 327 328
f 312 328 314
f 314 328 329
f 314 329 316
f 316 329 330
f 316 330 318
f 318 330 331
f 318 331 320
f 320 331 332
f 320 332 322
f 284 322 332
f 284 332 286
f 324 333 334
f 324 334 325
f 285 287 333
f 285 333 324
f 325 334 335
f 325 335 326
f 330 336 337
f 330 337 331
f 331 337 338
f 331 338 332
f 286 332 338
f 286 338 288
f 333 339 340
f 333 340 334
f 287 289 339
f 287 339 333
f 334 340 341
f 334 341 335
f 336 342 343
f 336 343 337
f 337 343 344
f 337 344 338
f 288 338 344
f 288 344 290
f 339 345 346
f 339 346 340
f 289 291 345
f 289 345 339
f 340 346 347
f 340 347 341
f 342 348 349
f 342 349 343
f 343 349 350
f 343 350 344
f 290 344 350
f 290 350 292
f 345 351 352
f 345 352 346
f 291 293 351
f 291 351 345
f 346 352 353
f 346 353 347
f 348 354 355
f 348 355 349
f 349 355 356
f 349 356 350
f 292 350 356
f 292 356 294
f 351 357 358
f 351 358 352
f 293 295 357
f 293 357 351
f 352 358 359
f 352 359 353
f 353 359 360
f 353 360 361
f 361 360 362
f 361 362 363
f 363 362 364
f 363 364 365
f 365 364 366
f 365 366 354
f 354 366 367
f 354 367 355
f 355 367 368
f 355 368 356
f 294 356 368
f 294 368 296
f 357 369 370
f 357 370 358
f 298 297 370
f 298 370 369
f 295 298 369
f 295 369 357
f 358 370 371
f 358 371 359
f 297 299 371
f 297 371 370
f 359 371 372
f 359 372 360
f 299 300 372
f 299 372 371
f 360 372 373
f 360 373 362
f 300 301 373
f 300 373 372
f 362 373 374
f 362 374 364
f 301 302 374
f 301 374 373
f 364 374 375
f 364 375 366
f 302 303 375
f 302 375 374
f 366 375 376
f 366 376 367
f 303 304 376
f 303 376 375
f 367 376 377
f 367 377 368
f 304 305 377
f 304 377 376
f 296 368 377
f 296 377 305
f 326 378 379
f 326 379 327
f 326 335 380
f 326 380 378
f 327 379 381
f 327 381 328
f 328 381 382
f 328 382 329
f 329 382 383
f 329 383 330
f 330 383 384
f 330 384 336
f 335 341 385
f 335 385 380
f 336 384 386
f 336 386 342
f 341 347 387
f 341 387 385
f 342 386 388
f 342 388 348
f 353 361 389
f 353 389 390
f 347 353 390
f 347 390 387
f 361 363 391
f 361 391 389
f 363 365 392
f 363 392 391
f 365 354 393
f 365 393 392
f 348 388 393
f 348 393 354
f 378 394 395
f 378 395 379
f 378 380 396
f 378 396 394
f 379 395 397
f 379 397 381
f 381 397 398
f 381 398 382
f 382 398 399
f 382 399 383
f 383 399 400
f 383 400 384
f 380 385 401
f 380 401 396
f 384 400 402
f 384 402 386
f 385 387 403
f 385 403 401
f 386 402 404
f 386 404 388
f 390 389 405
f 390 405 406
f 387 390 406
f 387 406 403
f 389 391 407
f 389 407 405
f 391 392 408
f 391 408 407
f 392 393 409
f 392 409 408
f 388 404 409
f 388 409 393
f 394 410 411
f 394 411 395
f 394 396 412
f 394 412 410
f 395 411 413
f 395 413 397
f 397 413 414
f 397 414 398
f 398 414 415
f 398 415 399
f 399 415 416
f 399 416 400
f 396 401 417
f 396 417 412
f 400 416 418
f 400 418 402
f 401 403 419
f 401 419 417
f 402 418 420
f 402 420 404
f 406 405 421
f 406 421 422
f 403 406 422
f 403 422 419
f 405 407 423
f 405 423 421
f 407 408 424
f 407 424 423
f 408 409 425
f 408 425 424
f 404 420 425
f 404 425 409
f 410 426 427
f 410 427 411
f 410 412 428
f 410 428 426
f 411 427 429
f 411 429 413
f 413 429 430
f 413 430 414
f 414 430 431
f 414 431 415
f 415 431 432
f 415 432 416
f 412 417 433
f 412 433 428
f 416 432 434
f 416 434 418
f 417 419 435
f 417 435 433
f 418 434 436
f 418 436 420
f 422 421 437
f 422 437 438
f 419 422 438
f 419 438 435
f 421 423 439
f 421 439 437
f 423 424 440
f 423 440 439
f 424 425 441
f 424 441 440
f 420 436 441
f 420 441 425
f 426 442 443
f 426 443 427
f 426 428 444
f 426 444 442
f 427 443 445
f 427 445 429
f 429 445 446
f 429 446 430
f 430 446 447
f 430 447 431
f 431 447 448
f 431 448 432
f 428 433 449
f 428 449 444
f 432 448 450
f 432 450 434
f 433 435 451
f 433 451 449
f 434 450 452
f 434 452 436
f 438 437 453
f 438 453 454
f 435 438 454
f 435 454 451
f 437 439 455
f 437 455 453
f 439 440 456
f 439 456 455
f 440 441 457
f 440 457 456
f 436 452 457
f 436 457 441
f 442 458 459
f 442 459 443
f 442 444 460
f 442 460 458
f 443 459 461
f 443 461 445
f 445 461 462
f 445 462 446
f 446 462 463
f 446 463 447
f 447 463 464
f 447 464 448
f 444 449 465
f 444 465 460
f 448 464 466
f 448 466 450
f 449 451 467
f 449 467 465
f 450 466 468
f 450 468 452
f 454 453 469
f 454 469 470
f 451 454 470
f 451 470 467
f 453 455 471
f 453 471 469
f 455 456 472
f 455 472 471
f 456 457 473
f 456 473 472
f 452 468 473
f 452 473 457
f 458 474 475
f 458 475 459
f 458 460 476
f 458 476 474
f 459 475 477
f 459 477 461
f 461 477 478
f 461 478 462
f 462 478 479
f 462 479 463
f 463 479 480
f 463 480 464
f 460 465 481
f 460 481 476
f 464 480 482
f 464 482 466
f 465 467 483
f 465 483 481
f 466 482 484
f 466 484 468
f 470 469 485
f 470 485 486
f 467 470 486
f 467 486 483
f 469 471 487
f 469 487 485
f 471 472 488
f 471 488 487
f 472 473 489
f 472 489 488
f 468 484 489
f 468 489 473
f 474 490 491
f 474 491 475
f 474 476 492
f 474 492 490
f 475 491 493
f 475 493 477
f 477 493 494
f 477 494 478
f 478 494 495
f 478 495 479
f 479 495 496
f 479 496 480
f 476 481 497
f 476 497 492
f 480 496 498
f 480 498 482
f 481 483 499
f 481 499 497
f 482 498 500
f 482 500 484
f 486 485 501
f 486 501 502
f 483 486 502
f 483 502 499
f 485 487 503
f 485 503 501
f 487 488 504
f 487 504 503
f 488 489 505
f 488 505 504
f 484 500 505
f 484 505 489
f 506 507 508
f 506 508 509
f 506 510 511
f 506 511 507
f 506 509 512
f 506 512 510
f 507 513 514
f 507 514 508
f 507 511 515
f 507 515 513
f 513 516 517
f 513 517 514
f 513 515 518
f 513 518 516
f 516 519 520
f 516 520 517
f 516 518 521
f 516 521 519
f 519 522 523
f 519 523 520
f 519 521 524
f 519 524 522
f 522 525 526
f 522 526 523
f 522 524 527
f 522 527 525
f 525 528 529
f 525 529 526
f 525 527 530
f 525 530 528
f 528 531 532
f 528 532 529
f 528 530 533
f 528 533 531
f 531 533 534
f 531 534 532
f 509 508 535
f 509 535 536
f 509 536 537
f 509 537 512
f 508 514 490
f 508 490 535
f 514 517 491
f 514 491 490
f 517 520 493
f 517 493 491
f 520 523 494
f 520 494 493
f 523 526 495
f 523 495 494
f 526 529 538
f 526 538 495
f 529 532 539
f 529 539 538
f 532 534 540
f 532 540 539
f 536 535 541
f 536 541 542
f 536 542 543
f 536 543 537
f 535 490 492
f 535 492 541
f 495 538 544
f 495 544 496
f 538 539 545
f 538 545 544
f 539 540 546
f 539 546 545
f 542 541 547
f 542 547 548
f 542 548 549
f 542 549 543
f 541 492 497
f 541 497 547
f 496 544 550
f 496 550 498
f 544 545 551
f 544 551 550
f 545 546 552
f 545 552 551
f 548 547 553
f 548 553 554
f 548 554 555
f 548 555 549
f 547 497 499
f 547 499 553
f 498 550 556
f 498 556 500
f 550 551 557
f 550 557 556
f 551 552 558
f 551 558 557
f 554 553 559
f 554 559 560
f 554 560 561
f 554 561 555
f 553 499 502
f 553 502 559
f 500 556 562
f 500 562 505
f 556 557 563
f 556 563 562
f 557 558 564
f 557 564 563
f 560 559 565
f 560 565 566
f 560 566 567
f 560 567 561
f 559 502 568
f 559 568 565
f 502 501 569
f 502 569 568
f 501 503 570
f 501 570 569
f 503 504 571
f 503 571 570
f 504 505 572
f 504 572 571
f 505 562 573
f 505 573 572
f 562 563 574
f 562 574 573
f 563 564 575
f 563 575 574
f 566 565 576
f 566 576 577
f 577 576 578
f 577 578 579
f 566 577 579
f 566 579 567
f 565 568 580
f 565 580 576
f 576 580 581
f 576 581 578
f 568 569 582
f 568 582 580
f 580 582 583
f 580 583 581
f 569 570 584
f 569 584 582
f 582 584 585
f 582 585 583
f 570 571 586
f 570 586 584
f 584 586 587
f 584 587 585
f 571 572 588
f 571 588 586
f 586 588 589
f 586 589 587
f 572 573 590
f 572 590 588
f 588 590 591
f 588 591 589
f 573 574 592
f 573 592 590
f 590 592 593
f 590 593 591
f 574 575 593
f 574 593 592
f 510 594 595
f 510 595 511
f 510 512 596
f 510 596 594
f 511 595 597
f 511 597 515
f 515 597 598
f 515 598 518
f 518 598 599
f 518 599 521
f 521 599 600
f 521 600 524
f 524 600 601
f 524 601 527
f 527 601 602
f 527 602 530
f 530 602 603
f 530 603 533
f 533 603 604
f 533 604 534
f 512 537 605
f 512 605 596
f 534 604 606
f 534 606 540
f 537 543 607
f 537 607 605
f 540 606 608
f 540 608 546
f 543 549 609
f 543 609 607
f 546 608 610
f 546 610 552
f 549 555 611
f 549 611 609
f 552 610 612
f 552 612 558
f 555 561 613
f 555 613 611
f 558 612 614
f 558 614 564
f 561 567 615
f 561 615 613
f 564 614 616
f 564 616 575
f 579 578 617
f 579 617 618
f 567 579 618
f 567 618 615
f 578 581 619
f 578 619 617
f 581 583 620
f 581 620 619
f 583 585 621
f 583 621 620
f 585 587 622
f 585 622 621
f 587 589 623
f 587 623 622
f 589 591 624
f 589 624 623
f 591 593 625
f 591 625 624
f 575 616 625
f 575 625 593
f 594 626 627
f 594 627 595
f 594 596 628
f 594 628 626
f 595 627 629
f 595 629 597
f 597 629 630
f 597 630 598
f 598 630 631
f 598 631 599
f 599 631 632
f 599 632 600
f 600 632 633
f 600 633 601
f 601 633 634
f 601 634 602
f 602 634 635
f 602 635 603
f 603 635 636
f 603 636 604
f 596 605 637
f 596 637 628
f 604 636 638
f 604 638 606
f 605 607 639
f 605 639 637
f 606 638 640
f 606 640 608
f 607 609 641
f 607 641 639
f 608 640 642
f 608 642 610
f 609 611 643
f 609 643 641
f 610 642 644
f 610 644 612
f 611 613 645
f 611 645 643
f 612 644 646
f 612 646 614
f 613 615 647
f 613 647 645
f 614 646 648
f 614 648 616
f 618 617 649
f 618 649 650
f 615 618 650
f 615 650 647
f 617 619 651
f 617 651 649
f 619 620 652
f 619 652 651
f 620 621 653
f 620 653 652
f 621 622 654
f 621 654 653
f 622 623 655
f 622 655 654
f 623 624 656
f 623 656 655
f 624 625 657
f 624 657 656
f 616 648 657
f 616 657 625
f 626 658 659
f 626 659 627
f 626 628 660
f 626 660 658
f 627 659 661
f 627 661 629
f 629 661 662
f 629 662 630
f 630 662 663
f 630 663 631
f 631 663 664
f 631 664 632
f 632 664 665
f 632 665 633
f 633 665 666
f 633 666 634
f 634 666 667
f 634 667 635
f 635 667 668
f 635 668 636
f 628 637 669
f 628 669 660
f 636 668 670
f 636 670 638
f 637 639 671
f 637 671 669
f 638 670 672
f 638 672 640
f 639 641 673
f 639 673 671
f 640 672 674
f 640 674 642
f 641 643 675
f 641 675 673
f 642 674 676
f 642 676 644
f 643 645 677
f 643 677 675
f 644 676 678
f 644 678 646
f 645 647 679
f 645 679 677
f 646 678 680
f 646 680 648
f 650 649 681
f 650 681 682
f 647 650 682
f 647 682 679
f 649 651 683
f 649 683 681
f 651 652 684
f 651 684 683
f 652 653 685
f 652 685 684
f 653 654 686
f 653 686 685
f 654 655 687
f 654 687 686
f 655 656 688
f 655 688 687
f 656 657 689
f 656 689 688
f 648 680 689
f 648 689 657
f 658 690 691
f 658 691 659
f 658 660 692
f 658 692 690
f 659 691 693
f 659 693 661
f 661 693 694
f 661 694 662
f 662 694 695
f 662 695 663
f 663 695 696
f 663 696 664
f 664 696 697
f 664 697 665
f 665 697 698
f 665 698 666
f 666 698 699
f 666 699 667
f 667 699 700
f 667 700 668
f 660 669 701
f 660 701 692
f 668 700 702
f 668 702 670
f 669 671 703
f 669 703 701
f 670 702 704
f 670 704 672
f 671 673 705
f 671 705 703
f 672 704 706
f 672 706 674
f 673 675 707
f 673 707 705
f 674 706 708
f 674 708 676
f 675 677 709
f 675 709 707
f 676 708 710
f 676 710 678
f 677 679 711
f 677 711 709
f 678 710 712
f 678 712 680
f 682 681 713
f 682 713 714
f 679 682 714
f 679 714 711
f 681 683 715
f 681 715 713
f 683 684 716
f 683 716 715
f 684 685 717
f 684 717 716
f 685 686 718
f 685 718 717
f 686 687 719
f 686 719 718
f 687 688 720
f 687 720 719
f 688 689 721
f 688 721 720
f 680 712 721
f 680 721 689
f 690 722 723
f 690 723 691
f 690 692 724
f 690 724 722
f 691 723 725
f 691 725 693
f 693 725 726
f 693 726 694
f 694 726 727
f 694 727 695
f 695 727 728
f 695 728 696
f 696 728 729
f 696 729 697
f 697 729 730
f 697 730 698
f 698 730 731
f 698 731 699
f 699 731 732
f 699 732 700
f 692 701 733
f 692 733 724
f 700 732 734
f 700 734 702
f 701 703 735
f 701 735 733
f 702 734 736
f 702 736 704
f 703 705 737
f 703 737 735
f 704 736 738
f 704 738 706
f 705 707 739
f 705 739 737
f 706 738 740
f 706 740 708
f 707 709 741
f 707 741 739
f 708 740 742
f 708 742 710
f 709 711 743
f 709 743 741
f 710 742 744
f 710 744 712
f 714 713 745
f 714 745 746
f 711 714 746
f 711 746 743
f 713 715 747
f 713 747 745
f 715 716 748
f 715 748 747
f 716 717 749
f 716 749 748
f 717 718 750
f 717 750 749
f 718 719 751
f 718 751 750
f 719 720 752
f 719 752 751
f 720 721 753
f 720 753 752
f 712 744 753
f 712 753 721
f 722 754 755
f 722 755 723
f 722 724 756
f 722 756 754
f 723 755 757
f 723 757 725
f 725 757 758
f 725 758 726
f 726 758 759
f 726 759 727
f 727 759 760
f 727 760 728
f 728 760 761
f 728 761 729
f 729 761 762
f 729 762 730
f 730 762 763
f 730 763 731
f 731 763 764
f 731 764 732
f 724 733 765
f 724 765 756
f 732 764 766
f 732 766 734
f 733 735 767
f 733 767 765
f 734 766 768
f 734 768 736
f 735 737 769
f 735 769 767
f 736 768 770
f 736 770 738
f 737 739 771
f 737 771 769
f 738 770 772
f 738 772 740
f 739 741 773
f 739 773 771
f 740 772 774
f 740 774 742
f 741 743 775
f 741 775 773
f 742 774 776
f 742 776 744
f 746 745 777
f 746 777 778
f 743 746 778
f 743 778 775
f 745 747 779
f 745 779 777
f 747 748 780
f 747 780 779
f 748 749 781
f 748 781 780
f 749 750 782
f 749 782 781
f 750 751 783
f 750 783 782
f 751 752 784
f 751 784 783
f 752 753 785
f 752 785 784
f 744 776 785
f 744 785 753
f 786 787 788
f 786 788 789
f 754 786 789
f 754 789 755
f 754 756 787
f 754 787 786
f 789 788 790
f 789 790 791
f 755 789 791
f 755 791 757
f 791 790 792
f 791 792 793
f 757 791 793
f 757 793 758
f 793 792 794
f 793 794 795
f 758 793 795
f 758 795 759
f 795 794 796
f 795 796 797
f 759 795 797
f 759 797 760
f 797 796 798
f 797 798 799
f 760 797 799
f 760 799 761
f 799 798 800
f 799 800 801
f 761 799 801
f 761 801 762
f 801 800 802
f 801 802 803
f 762 801 803
f 762 803 763
f 763 803 802
f 763 802 764
f 787 804 805
f 787 805 788
f 756 765 804
f 756 804 787
f 788 805 806
f 788 806 790
f 790 806 807
f 790 807 792
f 792 807 808
f 792 808 794
f 794 808 809
f 794 809 796
f 796 809 810
f 796 810 798
f 798 810 811
f 798 811 800
f 800 811 812
f 800 812 802
f 764 802 812
f 764 812 766
f 804 813 814
f 804 814 805
f 765 767 813
f 765 813 804
f 805 814 815
f 805 815 806
f 806 815 816
f 806 816 807
f 807 816 817
f 807 817 808
f 808 817 818
f 808 818 809
f 809 818 819
f 809 819 810
f 810 819 820
f 810 820 811
f 811 820 821
f 811 821 812
f 766 812 821
f 766 821 768
f 813 822 823
f 813 823 814
f 767 769 822
f 767 822 813
f 814 823 824
f 814 824 815
f 815 824 825
f 815 825 816
f 816 825 826
f 816 826 817
f 817 826 827
f 817 827 818
f 818 827 828
f 818 828 819
f 819 828 829
f 819 829 820
f 820 829 830
f 820 830 821
f 768 821 830
f 768 830 770
f 822 831 832
f 822 832 823
f 769 771 831
f 769 831 822
f 823 832 833
f 823 833 824
f 824 833 834
f 824 834 825
f 825 834 835
f 825 835 826
f 826 835 836
f 826 836 827
f 827 836 837
f 827 837 828
f 828 837 838
f 828 838 829
f 829 838 839
f 829 839 830
f 770 830 839
f 770 839 772
f 831 840 841
f 831 841 832
f 771 773 840
f 771 840 831
f 832 841 842
f 832 842 833
f 833 842 843
f 833 843 834
f 834 843 844
f 834 844 835
f 835 844 845
f 835 845 836
f 836 845 846
f 836 846 837
f 837 846 847
f 837 847 838
f 838 847 848
f 838 848 839
f 772 839 848
f 772 848 774
f 840 849 850
f 840 850 841
f 773 775 849
f 773 849 840
f 841 850 851
f 841 851 842
f 842 851 852
f 842 852 843
f 843 852 853
f 843 853 844
f 844 853 854
f 844 854 845
f 845 854 855
f 845 855 846
f 846 855 856
f 846 856 847
f 847 856 857
f 847 857 848
f 774 848 857
f 774 857 776
f 849 858 859
f 849 859 850
f 778 777 859
f 778 859 858
f 775 778 858
f 775 858 849
f 850 859 860
f 850 860 851
f 777 779 860
f 777 860 859
f 851 860 861
f 851 861 852
f 779 780 861
f 779 861 860
f 852 861 862
f 852 862 853
f 780 781 862
f 780 862 861
f 853 862 863
f 853 863 854
f 781 782 863
f 781 863 862
f 854 863 864
f 854 864 855
f 782 783 864
f 782 864 863
f 855 864 865
f 855 865 856
f 783 784 865
f 783 865 864
f 856 865 866
f 856 866 857
f 784 785 866
f 784 866 865
f 776 857 866
f 776 866 785
