# Synthetic mesh for S5/S6 experiments
# Large 10x10x10 body with a 1x1 neck leading to a small 3x3x3 blob; defect-like positive case.
# occupied_voxels=1031

v 0.000000 0.000000 0.000000
v 0.000000 0.000000 1.000000
v 0.000000 1.000000 1.000000
v 0.000000 1.000000 0.000000
v 1.000000 0.000000 0.000000
v 1.000000 0.000000 1.000000
v 1.000000 1.000000 0.000000
v 0.000000 0.000000 2.000000
v 0.000000 1.000000 2.000000
v 1.000000 0.000000 2.000000
v 0.000000 0.000000 3.000000
v 0.000000 1.000000 3.000000
v 1.000000 0.000000 3.000000
v 0.000000 0.000000 4.000000
v 0.000000 1.000000 4.000000
v 1.000000 0.000000 4.000000
v 0.000000 0.000000 5.000000
v 0.000000 1.000000 5.000000
v 1.000000 0.000000 5.000000
v 0.000000 0.000000 6.000000
v 0.000000 1.000000 6.000000
v 1.000000 0.000000 6.000000
v 0.000000 0.000000 7.000000
v 0.000000 1.000000 7.000000
v 1.000000 0.000000 7.000000
v 0.000000 0.000000 8.000000
v 0.000000 1.000000 8.000000
v 1.000000 0.000000 8.000000
v 0.000000 0.000000 9.000000
v 0.000000 1.000000 9.000000
v 1.000000 0.000000 9.000000
v 0.000000 0.000000 10.000000
v 0.000000 1.000000 10.000000
v 1.000000 0.000000 10.000000
v 1.000000 1.000000 10.000000
v 0.000000 2.000000 1.000000
v 0.000000 2.000000 0.000000
v 1.000000 2.000000 0.000000
v 0.000000 2.000000 2.000000
v 0.000000 2.000000 3.000000
v 0.000000 2.000000 4.000000
v 0.000000 2.000000 5.000000
v 0.000000 2.000000 6.000000
v 0.000000 2.000000 7.000000
v 0.000000 2.000000 8.000000
v 0.000000 2.000000 9.000000
v 0.000000 2.000000 10.000000
v 1.000000 2.000000 10.000000
v 0.000000 3.000000 1.000000
v 0.000000 3.000000 0.000000
v 1.000000 3.000000 0.000000
v 0.000000 3.000000 2.000000
v 0.000000 3.000000 3.000000
v 0.000000 3.000000 4.000000
v 0.000000 3.000000 5.000000
v 0.000000 3.000000 6.000000
v 0.000000 3.000000 7.000000
v 0.000000 3.000000 8.000000
v 0.000000 3.000000 9.000000
v 0.000000 3.000000 10.000000
v 1.000000 3.000000 10.000000
v 0.000000 4.000000 1.000000
v 0.000000 4.000000 0.000000
v 1.000000 4.000000 0.000000
v 0.000000 4.000000 2.000000
v 0.000000 4.000000 3.000000
v 0.000000 4.000000 4.000000
v 0.000000 4.000000 5.000000
v 0.000000 4.000000 6.000000
v 0.000000 4.000000 7.000000
v 0.000000 4.000000 8.000000
v 0.000000 4.000000 9.000000
v 0.000000 4.000000 10.000000
v 1.000000 4.000000 10.000000
v 0.000000 5.000000 1.000000
v 0.000000 5.000000 0.000000
v 1.000000 5.000000 0.000000
v 0.000000 5.000000 2.000000
v 0.000000 5.000000 3.000000
v 0.000000 5.000000 4.000000
v 0.000000 5.000000 5.000000
v 0.000000 5.000000 6.000000
v 0.000000 5.000000 7.000000
v 0.000000 5.000000 8.000000
v 0.000000 5.000000 9.000000
v 0.000000 5.000000 10.000000
v 1.000000 5.000000 10.000000
v 0.000000 6.000000 1.000000
v 0.000000 6.000000 0.000000
v 1.000000 6.000000 0.000000
v 0.000000 6.000000 2.000000
v 0.000000 6.000000 3.000000
v 0.000000 6.000000 4.000000
v 0.000000 6.000000 5.000000
v 0.000000 6.000000 6.000000
v 0.000000 6.000000 7.000000
v 0.000000 6.000000 8.000000
v 0.000000 6.000000 9.000000
v 0.000000 6.000000 10.000000
v 1.000000 6.000000 10.000000
v 0.000000 7.000000 1.000000
v 0.000000 7.000000 0.000000
v 1.000000 7.000000 0.000000
v 0.000000 7.000000 2.000000
v 0.000000 7.000000 3.000000
v 0.000000 7.000000 4.000000
v 0.000000 7.000000 5.000000
v 0.000000 7.000000 6.000000
v 0.000000 7.000000 7.000000
v 0.000000 7.000000 8.000000
v 0.000000 7.000000 9.000000
v 0.000000 7.000000 10.000000
v 1.000000 7.000000 10.000000
v 0.000000 8.000000 1.000000
v 0.000000 8.000000 0.000000
v 1.000000 8.000000 0.000000
v 0.000000 8.000000 2.000000
v 0.000000 8.000000 3.000000
v 0.000000 8.000000 4.000000
v 0.000000 8.000000 5.000000
v 0.000000 8.000000 6.000000
v 0.000000 8.000000 7.000000
v 0.000000 8.000000 8.000000
v 0.000000 8.000000 9.000000
v 0.000000 8.000000 10.000000
v 1.000000 8.000000 10.000000
v 0.000000 9.000000 1.000000
v 0.000000 9.000000 0.000000
v 1.000000 9.000000 0.000000
v 0.000000 9.000000 2.000000
v 0.000000 9.000000 3.000000
v 0.000000 9.000000 4.000000
v 0.000000 9.000000 5.000000
v 0.000000 9.000000 6.000000
v 0.000000 9.000000 7.000000
v 0.000000 9.000000 8.000000
v 0.000000 9.000000 9.000000
v 0.000000 9.000000 10.000000
v 1.000000 9.000000 10.000000
v 0.000000 10.000000 1.000000
v 0.000000 10.000000 0.000000
v 1.000000 10.000000 1.000000
v 1.000000 10.000000 0.000000
v 0.000000 10.000000 2.000000
v 1.000000 10.000000 2.000000
v 0.000000 10.000000 3.000000
v 1.000000 10.000000 3.000000
v 0.000000 10.000000 4.000000
v 1.000000 10.000000 4.000000
v 0.000000 10.000000 5.000000
v 1.000000 10.000000 5.000000
v 0.000000 10.000000 6.000000
v 1.000000 10.000000 6.000000
v 0.000000 10.000000 7.000000
v 1.000000 10.000000 7.000000
v 0.000000 10.000000 8.000000
v 1.000000 10.000000 8.000000
v 0.000000 10.000000 9.000000
v 1.000000 10.000000 9.000000
v 0.000000 10.000000 10.000000
v 1.000000 10.000000 10.000000
v 2.000000 0.000000 0.000000
v 2.000000 0.000000 1.000000
v 2.000000 1.000000 0.000000
v 2.000000 0.000000 2.000000
v 2.000000 0.000000 3.000000
v 2.000000 0.000000 4.000000
v 2.000000 0.000000 5.000000
v 2.000000 0.000000 6.000000
v 2.000000 0.000000 7.000000
v 2.000000 0.000000 8.000000
v 2.000000 0.000000 9.000000
v 2.000000 0.000000 10.000000
v 2.000000 1.000000 10.000000
v 2.000000 2.000000 0.000000
v 2.000000 2.000000 10.000000
v 2.000000 3.000000 0.000000
v 2.000000 3.000000 10.000000
v 2.000000 4.000000 0.000000
v 2.000000 4.000000 10.000000
v 2.000000 5.000000 0.000000
v 2.000000 5.000000 10.000000
v 2.000000 6.000000 0.000000
v 2.000000 6.000000 10.000000
v 2.000000 7.000000 0.000000
v 2.000000 7.000000 10.000000
v 2.000000 8.000000 0.000000
v 2.000000 8.000000 10.000000
v 2.000000 9.000000 0.000000
v 2.000000 9.000000 10.000000
v 2.000000 10.000000 1.000000
v 2.000000 10.000000 0.000000
v 2.000000 10.000000 2.000000
v 2.000000 10.000000 3.000000
v 2.000000 10.000000 4.000000
v 2.000000 10.000000 5.000000
v 2.000000 10.000000 6.000000
v 2.000000 10.000000 7.000000
v 2.000000 10.000000 8.000000
v 2.000000 10.000000 9.000000
v 2.000000 10.000000 10.000000
v 3.000000 0.000000 0.000000
v 3.000000 0.000000 1.000000
v 3.000000 1.000000 0.000000
v 3.000000 0.000000 2.000000
v 3.000000 0.000000 3.000000
v 3.000000 0.000000 4.000000
v 3.000000 0.000000 5.000000
v 3.000000 0.000000 6.000000
v 3.000000 0.000000 7.000000
v 3.000000 0.000000 8.000000
v 3.000000 0.000000 9.000000
v 3.000000 0.000000 10.000000
v 3.000000 1.000000 10.000000
v 3.000000 2.000000 0.000000
v 3.000000 2.000000 10.000000
v 3.000000 3.000000 0.000000
v 3.000000 3.000000 10.000000
v 3.000000 4.000000 0.000000
v 3.000000 4.000000 10.000000
v 3.000000 5.000000 0.000000
v 3.000000 5.000000 10.000000
v 3.000000 6.000000 0.000000
v 3.000000 6.000000 10.000000
v 3.000000 7.000000 0.000000
v 3.000000 7.000000 10.000000
v 3.000000 8.000000 0.000000
v 3.000000 8.000000 10.000000
v 3.000000 9.000000 0.000000
v 3.000000 9.000000 10.000000
v 3.000000 10.000000 1.000000
v 3.000000 10.000000 0.000000
v 3.000000 10.000000 2.000000
v 3.000000 10.000000 3.000000
v 3.000000 10.000000 4.000000
v 3.000000 10.000000 5.000000
v 3.000000 10.000000 6.000000
v 3.000000 10.000000 7.000000
v 3.000000 10.000000 8.000000
v 3.000000 10.000000 9.000000
v 3.000000 10.000000 10.000000
v 4.000000 0.000000 0.000000
v 4.000000 0.000000 1.000000
v 4.000000 1.000000 0.000000
v 4.000000 0.000000 2.000000
v 4.000000 0.000000 3.000000
v 4.000000 0.000000 4.000000
v 4.000000 0.000000 5.000000
v 4.000000 0.000000 6.000000
v 4.000000 0.000000 7.000000
v 4.000000 0.000000 8.000000
v 4.000000 0.000000 9.000000
v 4.000000 0.000000 10.000000
v 4.000000 1.000000 10.000000
v 4.000000 2.000000 0.000000
v 4.000000 2.000000 10.000000
v 4.000000 3.000000 0.000000
v 4.000000 3.000000 10.000000
v 4.000000 4.000000 0.000000
v 4.000000 4.000000 10.000000
v 4.000000 5.000000 0.000000
v 4.000000 5.000000 10.000000
v 4.000000 6.000000 0.000000
v 4.000000 6.000000 10.000000
v 4.000000 7.000000 0.000000
v 4.000000 7.000000 10.000000
v 4.000000 8.000000 0.000000
v 4.000000 8.000000 10.000000
v 4.000000 9.000000 0.000000
v 4.000000 9.000000 10.000000
v 4.000000 10.000000 1.000000
v 4.000000 10.000000 0.000000
v 4.000000 10.000000 2.000000
v 4.000000 10.000000 3.000000
v 4.000000 10.000000 4.000000
v 4.000000 10.000000 5.000000
v 4.000000 10.000000 6.000000
v 4.000000 10.000000 7.000000
v 4.000000 10.000000 8.000000
v 4.000000 10.000000 9.000000
v 4.000000 10.000000 10.000000
v 5.000000 0.000000 0.000000
v 5.000000 0.000000 1.000000
v 5.000000 1.000000 0.000000
v 5.000000 0.000000 2.000000
v 5.000000 0.000000 3.000000
v 5.000000 0.000000 4.000000
v 5.000000 0.000000 5.000000
v 5.000000 0.000000 6.000000
v 5.000000 0.000000 7.000000
v 5.000000 0.000000 8.000000
v 5.000000 0.000000 9.000000
v 5.000000 0.000000 10.000000
v 5.000000 1.000000 10.000000
v 5.000000 2.000000 0.000000
v 5.000000 2.000000 10.000000
v 5.000000 3.000000 0.000000
v 5.000000 3.000000 10.000000
v 5.000000 4.000000 0.000000
v 5.000000 4.000000 10.000000
v 5.000000 5.000000 0.000000
v 5.000000 5.000000 10.000000
v 5.000000 6.000000 0.000000
v 5.000000 6.000000 10.000000
v 5.000000 7.000000 0.000000
v 5.000000 7.000000 10.000000
v 5.000000 8.000000 0.000000
v 5.000000 8.000000 10.000000
v 5.000000 9.000000 0.000000
v 5.000000 9.000000 10.000000
v 5.000000 10.000000 1.000000
v 5.000000 10.000000 0.000000
v 5.000000 10.000000 2.000000
v 5.000000 10.000000 3.000000
v 5.000000 10.000000 4.000000
v 5.000000 10.000000 5.000000
v 5.000000 10.000000 6.000000
v 5.000000 10.000000 7.000000
v 5.000000 10.000000 8.000000
v 5.000000 10.000000 9.000000
v 5.000000 10.000000 10.000000
v 6.000000 0.000000 0.000000
v 6.000000 0.000000 1.000000
v 6.000000 1.000000 0.000000
v 6.000000 0.000000 2.000000
v 6.000000 0.000000 3.000000
v 6.000000 0.000000 4.000000
v 6.000000 0.000000 5.000000
v 6.000000 0.000000 6.000000
v 6.000000 0.000000 7.000000
v 6.000000 0.000000 8.000000
v 6.000000 0.000000 9.000000
v 6.000000 0.000000 10.000000
v 6.000000 1.000000 10.000000
v 6.000000 2.000000 0.000000
v 6.000000 2.000000 10.000000
v 6.000000 3.000000 0.000000
v 6.000000 3.000000 10.000000
v 6.000000 4.000000 0.000000
v 6.000000 4.000000 10.000000
v 6.000000 5.000000 0.000000
v 6.000000 5.000000 10.000000
v 6.000000 6.000000 0.000000
v 6.000000 6.000000 10.000000
v 6.000000 7.000000 0.000000
v 6.000000 7.000000 10.000000
v 6.000000 8.000000 0.000000
v 6.000000 8.000000 10.000000
v 6.000000 9.000000 0.000000
v 6.000000 9.000000 10.000000
v 6.000000 10.000000 1.000000
v 6.000000 10.000000 0.000000
v 6.000000 10.000000 2.000000
v 6.000000 10.000000 3.000000
v 6.000000 10.000000 4.000000
v 6.000000 10.000000 5.000000
v 6.000000 10.000000 6.000000
v 6.000000 10.000000 7.000000
v 6.000000 10.000000 8.000000
v 6.000000 10.000000 9.000000
v 6.000000 10.000000 10.000000
v 7.000000 0.000000 0.000000
v 7.000000 0.000000 1.000000
v 7.000000 1.000000 0.000000
v 7.000000 0.000000 2.000000
v 7.000000 0.000000 3.000000
v 7.000000 0.000000 4.000000
v 7.000000 0.000000 5.000000
v 7.000000 0.000000 6.000000
v 7.000000 0.000000 7.000000
v 7.000000 0.000000 8.000000
v 7.000000 0.000000 9.000000
v 7.000000 0.000000 10.000000
v 7.000000 1.000000 10.000000
v 7.000000 2.000000 0.000000
v 7.000000 2.000000 10.000000
v 7.000000 3.000000 0.000000
v 7.000000 3.000000 10.000000
v 7.000000 4.000000 0.000000
v 7.000000 4.000000 10.000000
v 7.000000 5.000000 0.000000
v 7.000000 5.000000 10.000000
v 7.000000 6.000000 0.000000
v 7.000000 6.000000 10.000000
v 7.000000 7.000000 0.000000
v 7.000000 7.000000 10.000000
v 7.000000 8.000000 0.000000
v 7.000000 8.000000 10.000000
v 7.000000 9.000000 0.000000
v 7.000000 9.000000 10.000000
v 7.000000 10.000000 1.000000
v 7.000000 10.000000 0.000000
v 7.000000 10.000000 2.000000
v 7.000000 10.000000 3.000000
v 7.000000 10.000000 4.000000
v 7.000000 10.000000 5.000000
v 7.000000 10.000000 6.000000
v 7.000000 10.000000 7.000000
v 7.000000 10.000000 8.000000
v 7.000000 10.000000 9.000000
v 7.000000 10.000000 10.000000
v 8.000000 0.000000 0.000000
v 8.000000 0.000000 1.000000
v 8.000000 1.000000 0.000000
v 8.000000 0.000000 2.000000
v 8.000000 0.000000 3.000000
v 8.000000 0.000000 4.000000
v 8.000000 0.000000 5.000000
v 8.000000 0.000000 6.000000
v 8.000000 0.000000 7.000000
v 8.000000 0.000000 8.000000
v 8.000000 0.000000 9.000000
v 8.000000 0.000000 10.000000
v 8.000000 1.000000 10.000000
v 8.000000 2.000000 0.000000
v 8.000000 2.000000 10.000000
v 8.000000 3.000000 0.000000
v 8.000000 3.000000 10.000000
v 8.000000 4.000000 0.000000
v 8.000000 4.000000 10.000000
v 8.000000 5.000000 0.000000
v 8.000000 5.000000 10.000000
v 8.000000 6.000000 0.000000
v 8.000000 6.000000 10.000000
v 8.000000 7.000000 0.000000
v 8.000000 7.000000 10.000000
v 8.000000 8.000000 0.000000
v 8.000000 8.000000 10.000000
v 8.000000 9.000000 0.000000
v 8.000000 9.000000 10.000000
v 8.000000 10.000000 1.000000
v 8.000000 10.000000 0.000000
v 8.000000 10.000000 2.000000
v 8.000000 10.000000 3.000000
v 8.000000 10.000000 4.000000
v 8.000000 10.000000 5.000000
v 8.000000 10.000000 6.000000
v 8.000000 10.000000 7.000000
v 8.000000 10.000000 8.000000
v 8.000000 10.000000 9.000000
v 8.000000 10.000000 10.000000
v 9.000000 0.000000 0.000000
v 9.000000 0.000000 1.000000
v 9.000000 1.000000 0.000000
v 9.000000 0.000000 2.000000
v 9.000000 0.000000 3.000000
v 9.000000 0.000000 4.000000
v 9.000000 0.000000 5.000000
v 9.000000 0.000000 6.000000
v 9.000000 0.000000 7.000000
v 9.000000 0.000000 8.000000
v 9.000000 0.000000 9.000000
v 9.000000 0.000000 10.000000
v 9.000000 1.000000 10.000000
v 9.000000 2.000000 0.000000
v 9.000000 2.000000 10.000000
v 9.000000 3.000000 0.000000
v 9.000000 3.000000 10.000000
v 9.000000 4.000000 0.000000
v 9.000000 4.000000 10.000000
v 9.000000 5.000000 0.000000
v 9.000000 5.000000 10.000000
v 9.000000 6.000000 0.000000
v 9.000000 6.000000 10.000000
v 9.000000 7.000000 0.000000
v 9.000000 7.000000 10.000000
v 9.000000 8.000000 0.000000
v 9.000000 8.000000 10.000000
v 9.000000 9.000000 0.000000
v 9.000000 9.000000 10.000000
v 9.000000 10.000000 1.000000
v 9.000000 10.000000 0.000000
v 9.000000 10.000000 2.000000
v 9.000000 10.000000 3.000000
v 9.000000 10.000000 4.000000
v 9.000000 10.000000 5.000000
v 9.000000 10.000000 6.000000
v 9.000000 10.000000 7.000000
v 9.000000 10.000000 8.000000
v 9.000000 10.000000 9.000000
v 9.000000 10.000000 10.000000
v 10.000000 0.000000 0.000000
v 10.000000 1.000000 0.000000
v 10.000000 1.000000 1.000000
v 10.000000 0.000000 1.000000
v 10.000000 1.000000 2.000000
v 10.000000 0.000000 2.000000
v 10.000000 1.000000 3.000000
v 10.000000 0.000000 3.000000
v 10.000000 1.000000 4.000000
v 10.000000 0.000000 4.000000
v 10.000000 1.000000 5.000000
v 10.000000 0.000000 5.000000
v 10.000000 1.000000 6.000000
v 10.000000 0.000000 6.000000
v 10.000000 1.000000 7.000000
v 10.000000 0.000000 7.000000
v 10.000000 1.000000 8.000000
v 10.000000 0.000000 8.000000
v 10.000000 1.000000 9.000000
v 10.000000 0.000000 9.000000
v 10.000000 1.000000 10.000000
v 10.000000 0.000000 10.000000
v 10.000000 2.000000 0.000000
v 10.000000 2.000000 1.000000
v 10.000000 2.000000 2.000000
v 10.000000 2.000000 3.000000
v 10.000000 2.000000 4.000000
v 10.000000 2.000000 5.000000
v 10.000000 2.000000 6.000000
v 10.000000 2.000000 7.000000
v 10.000000 2.000000 8.000000
v 10.000000 2.000000 9.000000
v 10.000000 2.000000 10.000000
v 10.000000 3.000000 0.000000
v 10.000000 3.000000 1.000000
v 10.000000 3.000000 2.000000
v 10.000000 3.000000 3.000000
v 10.000000 3.000000 4.000000
v 10.000000 3.000000 5.000000
v 10.000000 3.000000 6.000000
v 10.000000 3.000000 7.000000
v 10.000000 3.000000 8.000000
v 10.000000 3.000000 9.000000
v 10.000000 3.000000 10.000000
v 10.000000 4.000000 0.000000
v 10.000000 4.000000 1.000000
v 10.000000 4.000000 2.000000
v 10.000000 4.000000 3.000000
v 10.000000 4.000000 4.000000
v 10.000000 4.000000 5.000000
v 10.000000 4.000000 6.000000
v 10.000000 4.000000 7.000000
v 10.000000 4.000000 8.000000
v 10.000000 4.000000 9.000000
v 10.000000 4.000000 10.000000
v 10.000000 5.000000 0.000000
v 10.000000 5.000000 1.000000
v 10.000000 5.000000 2.000000
v 10.000000 5.000000 3.000000
v 10.000000 5.000000 4.000000
v 10.000000 5.000000 5.000000
v 10.000000 5.000000 6.000000
v 10.000000 5.000000 7.000000
v 10.000000 5.000000 8.000000
v 10.000000 5.000000 9.000000
v 10.000000 5.000000 10.000000
v 10.000000 6.000000 0.000000
v 10.000000 6.000000 1.000000
v 10.000000 6.000000 2.000000
v 10.000000 6.000000 3.000000
v 10.000000 6.000000 4.000000
v 10.000000 6.000000 5.000000
v 10.000000 6.000000 6.000000
v 10.000000 6.000000 7.000000
v 10.000000 6.000000 8.000000
v 10.000000 6.000000 9.000000
v 10.000000 6.000000 10.000000
v 10.000000 7.000000 0.000000
v 10.000000 7.000000 1.000000
v 10.000000 7.000000 2.000000
v 10.000000 7.000000 3.000000
v 10.000000 7.000000 4.000000
v 10.000000 7.000000 5.000000
v 10.000000 7.000000 6.000000
v 10.000000 7.000000 7.000000
v 10.000000 7.000000 8.000000
v 10.000000 7.000000 9.000000
v 10.000000 7.000000 10.000000
v 10.000000 8.000000 0.000000
v 10.000000 8.000000 1.000000
v 10.000000 8.000000 2.000000
v 10.000000 8.000000 3.000000
v 10.000000 8.000000 4.000000
v 10.000000 8.000000 5.000000
v 10.000000 8.000000 6.000000
v 10.000000 8.000000 7.000000
v 10.000000 8.000000 8.000000
v 10.000000 8.000000 9.000000
v 10.000000 8.000000 10.000000
v 10.000000 9.000000 0.000000
v 10.000000 9.000000 1.000000
v 10.000000 9.000000 2.000000
v 10.000000 9.000000 3.000000
v 10.000000 9.000000 4.000000
v 10.000000 9.000000 5.000000
v 10.000000 9.000000 6.000000
v 10.000000 9.000000 7.000000
v 10.000000 9.000000 8.000000
v 10.000000 9.000000 9.000000
v 10.000000 9.000000 10.000000
v 10.000000 10.000000 0.000000
v 10.000000 10.000000 1.000000
v 10.000000 10.000000 2.000000
v 10.000000 10.000000 3.000000
v 10.000000 10.000000 4.000000
v 10.000000 10.000000 5.000000
v 10.000000 10.000000 6.000000
v 10.000000 10.000000 7.000000
v 10.000000 10.000000 8.000000
v 10.000000 10.000000 9.000000
v 10.000000 10.000000 10.000000
v 11.000000 4.000000 4.000000
v 11.000000 4.000000 5.000000
v 11.000000 5.000000 5.000000
v 11.000000 5.000000 4.000000
v 12.000000 4.000000 4.000000
v 12.000000 4.000000 5.000000
v 12.000000 5.000000 5.000000
v 12.000000 5.000000 4.000000
v 13.000000 4.000000 4.000000
v 13.000000 4.000000 5.000000
v 13.000000 5.000000 5.000000
v 13.000000 5.000000 4.000000
v 14.000000 4.000000 4.000000
v 14.000000 4.000000 5.000000
v 14.000000 5.000000 5.000000
v 14.000000 5.000000 4.000000
v 14.000000 3.000000 3.000000
v 14.000000 3.000000 4.000000
v 14.000000 4.000000 3.000000
v 15.000000 3.000000 3.000000
v 15.000000 3.000000 4.000000
v 15.000000 4.000000 3.000000
v 14.000000 3.000000 5.000000
v 15.000000 3.000000 5.000000
v 14.000000 3.000000 6.000000
v 14.000000 4.000000 6.000000
v 15.000000 3.000000 6.000000
v 15.000000 4.000000 6.000000
v 14.000000 5.000000 3.000000
v 15.000000 5.000000 3.000000
v 14.000000 5.000000 6.000000
v 15.000000 5.000000 6.000000
v 14.000000 6.000000 4.000000
v 14.000000 6.000000 3.000000
v 15.000000 6.000000 4.000000
v 15.000000 6.000000 3.000000
v 14.000000 6.000000 5.000000
v 15.000000 6.000000 5.000000
v 14.000000 6.000000 6.000000
v 15.000000 6.000000 6.000000
v 16.000000 3.000000 3.000000
v 16.000000 3.000000 4.000000
v 16.000000 4.000000 3.000000
v 16.000000 3.000000 5.000000
v 16.000000 3.000000 6.000000
v 16.000000 4.000000 6.000000
v 16.000000 5.000000 3.000000
v 16.000000 5.000000 6.000000
v 16.000000 6.000000 4.000000
v 16.000000 6.000000 3.000000
v 16.000000 6.000000 5.000000
v 16.000000 6.000000 6.000000
v 17.000000 3.000000 3.000000
v 17.000000 4.000000 3.000000
v 17.000000 4.000000 4.000000
v 17.000000 3.000000 4.000000
v 17.000000 4.000000 5.000000
v 17.000000 3.000000 5.000000
v 17.000000 4.000000 6.000000
v 17.000000 3.000000 6.000000
v 17.000000 5.000000 3.000000
v 17.000000 5.000000 4.000000
v 17.000000 5.000000 5.000000
v 17.000000 5.000000 6.000000
v 17.000000 6.000000 3.000000
v 17.000000 6.000000 4.000000
v 17.000000 6.000000 5.000000
v 17.000000 6.000000 6.000000

f 1 2 3
f 1 3 4
f 1 5 6
f 1 6 2
f 1 4 7
f 1 7 5
f 2 8 9
f 2 9 3
f 2 6 10
f 2 10 8
f 8 11 12
f 8 12 9
f 8 10 13
f 8 13 11
f 11 14 15
f 11 15 12
f 11 13 16
f 11 16 14
f 14 17 18
f 14 18 15
f 14 16 19
f 14 19 17
f 17 20 21
f 17 21 18
f 17 19 22
f 17 22 20
f 20 23 24
f 20 24 21
f 20 22 25
f 20 25 23
f 23 26 27
f 23 27 24
f 23 25 28
f 23 28 26
f 26 29 30
f 26 30 27
f 26 28 31
f 26 31 29
f 29 32 33
f 29 33 30
f 29 31 34
f 29 34 32
f 32 34 35
f 32 35 33
f 4 3 36
f 4 36 37
f 4 37 38
f 4 38 7
f 3 9 39
f 3 39 36
f 9 12 40
f 9 40 39
f 12 15 41
f 12 41 40
f 15 18 42
f 15 42 41
f 18 21 43
f 18 43 42
f 21 24 44
f 21 44 43
f 24 27 45
f 24 45 44
f 27 30 46
f 27 46 45
f 30 33 47
f 30 47 46
f 33 35 48
f 33 48 47
f 37 36 49
f 37 49 50
f 37 50 51
f 37 51 38
f 36 39 52
f 36 52 49
f 39 40 53
f 39 53 52
f 40 41 54
f 40 54 53
f 41 42 55
f 41 55 54
f 42 43 56
f 42 56 55
f 43 44 57
f 43 57 56
f 44 45 58
f 44 58 57
f 45 46 59
f 45 59 58
f 46 47 60
f 46 60 59
f 47 48 61
f 47 61 60
f 50 49 62
f 50 62 63
f 50 63 64
f 50 64 51
f 49 52 65
f 49 65 62
f 52 53 66
f 52 66 65
f 53 54 67
f 53 67 66
f 54 55 68
f 54 68 67
f 55 56 69
f 55 69 68
f 56 57 70
f 56 70 69
f 57 58 71
f 57 71 70
f 58 59 72
f 58 72 71
f 59 60 73
f 59 73 72
f 60 61 74
f 60 74 73
f 63 62 75
f 63 75 76
f 63 76 77
f 63 77 64
f 62 65 78
f 62 78 75
f 65 66 79
f 65 79 78
f 66 67 80
f 66 80 79
f 67 68 81
f 67 81 80
f 68 69 82
f 68 82 81
f 69 70 83
f 69 83 82
f 70 71 84
f 70 84 83
f 71 72 85
f 71 85 84
f 72 73 86
f 72 86 85
f 73 74 87
f 73 87 86
f 76 75 88
f 76 88 89
f 76 89 90
f 76 90 77
f 75 78 91
f 75 91 88
f 78 79 92
f 78 92 91
f 79 80 93
f 79 93 92
f 80 81 94
f 80 94 93
f 81 82 95
f 81 95 94
f 82 83 96
f 82 96 95
f 83 84 97
f 83 97 96
f 84 85 98
f 84 98 97
f 85 86 99
f 85 99 98
f 86 87 100
f 86 100 99
f 89 88 101
f 89 101 102
f 89 102 103
f 89 103 90
f 88 91 104
f 88 104 101
f 91 92 105
f 91 105 104
f 92 93 106
f 92 106 105
f 93 94 107
f 93 107 106
f 94 95 108
f 94 108 107
f 95 96 109
f 95 109 108
f 96 97 110
f 96 110 109
f 97 98 111
f 97 111 110
f 98 99 112
f 98 112 111
f 99 100 113
f 99 113 112
f 102 101 114
f 102 114 115
f 102 115 116
f 102 116 103
f 101 104 117
f 101 117 114
f 104 105 118
f 104 118 117
f 105 106 119
f 105 119 118
f 106 107 120
f 106 120 119
f 107 108 121
f 107 121 120
f 108 109 122
f 108 122 121
f 109 110 123
f 109 123 122
f 110 111 124
f 110 124 123
f 111 112 125
f 111 125 124
f 112 113 126
f 112 126 125
f 115 114 127
f 115 127 128
f 115 128 129
f 115 129 116
f 114 117 130
f 114 130 127
f 117 118 131
f 117 131 130
f 118 119 132
f 118 132 131
f 119 120 133
f 119 133 132
f 120 121 134
f 120 134 133
f 121 122 135
f 121 135 134
f 122 123 136
f 122 136 135
f 123 124 137
f 123 137 136
f 124 125 138
f 124 138 137
f 125 126 139
f 125 139 138
f 128 127 140
f 128 140 141
f 141 140 142
f 141 142 143
f 128 141 143
f 128 143 129
f 127 130 144
f 127 144 140
f 140 144 145
f 140 145 142
f 130 131 146
f 130 146 144
f 144 146 147
f 144 147 145
f 131 132 148
f 131 148 146
f 146 148 149
f 146 149 147
f 132 133 150
f 132 150 148
f 148 150 151
f 148 151 149
f 133 134 152
f 133 152 150
f 150 152 153
f 150 153 151
f 134 135 154
f 134 154 152
f 152 154 155
f 152 155 153
f 135 136 156
f 135 156 154
f 154 156 157
f 154 157 155
f 136 137 158
f 136 158 156
f 156 158 159
f 156 159 157
f 137 138 160
f 137 160 158
f 158 160 161
f 158 161 159
f 138 139 161
f 138 161 160
f 5 162 163
f 5 163 6
f 5 7 164
f 5 164 162
f 6 163 165
f 6 165 10
f 10 165 166
f 10 166 13
f 13 166 167
f 13 167 16
f 16 167 168
f 16 168 19
f 19 168 169
f 19 169 22
f 22 169 170
f 22 170 25
f 25 170 171
f 25 171 28
f 28 171 172
f 28 172 31
f 31 172 173
f 31 173 34
f 34 173 174
f 34 174 35
f 7 38 175
f 7 175 164
f 35 174 176
f 35 176 48
f 38 51 177
f 38 177 175
f 48 176 178
f 48 178 61
f 51 64 179
f 51 179 177
f 61 178 180
f 61 180 74
f 64 77 181
f 64 181 179
f 74 180 182
f 74 182 87
f 77 90 183
f 77 183 181
f 87 182 184
f 87 184 100
f 90 103 185
f 90 185 183
f 100 184 186
f 100 186 113
f 103 116 187
f 103 187 185
f 113 186 188
f 113 188 126
f 116 129 189
f 116 189 187
f 126 188 190
f 126 190 139
f 143 142 191
f 143 191 192
f 129 143 192
f 129 192 189
f 142 145 193
f 142 193 191
f 145 147 194
f 145 194 193
f 147 149 195
f 147 195 194
f 149 151 196
f 149 196 195
f 151 153 197
f 151 197 196
f 153 155 198
f 153 198 197
f 155 157 199
f 155 199 198
f 157 159 200
f 157 200 199
f 159 161 201
f 159 201 200
f 139 190 201
f 139 201 161
f 162 202 203
f 162 203 163
f 162 164 204
f 162 204 202
f 163 203 205
f 163 205 165
f 165 205 206
f 165 206 166
f 166 206 207
f 166 207 167
f 167 207 208
f 167 208 168
f 168 208 209
f 168 209 169
f 169 209 210
f 169 210 170
f 170 210 211
f 170 211 171
f 171 211 212
f 171 212 172
f 172 212 213
f 172 213 173
f 173 213 214
f 173 214 174
f 164 175 215
f 164 215 204
f 174 214 216
f 174 216 176
f 175 177 217
f 175 217 215
f 176 216 218
f 176 218 178
f 177 179 219
f 177 219 217
f 178 218 220
f 178 220 180
f 179 181 221
f 179 221 219
f 180 220 222
f 180 222 182
f 181 183 223
f 181 223 221
f 182 222 224
f 182 224 184
f 183 185 225
f 183 225 223
f 184 224 226
f 184 226 186
f 185 187 227
f 185 227 225
f 186 226 228
f 186 228 188
f 187 189 229
f 187 229 227
f 188 228 230
f 188 230 190
f 192 191 231
f 192 231 232
f 189 192 232
f 189 232 229
f 191 193 233
f 191 233 231
f 193 194 234
f 193 234 233
f 194 195 235
f 194 235 234
f 195 196 236
f 195 236 235
f 196 197 237
f 196 237 236
f 197 198 238
f 197 238 237
f 198 199 239
f 198 239 238
f 199 200 240
f 199 240 239
f 200 201 241
f 200 241 240
f 190 230 241
f 190 241 201
f 202 242 243
f 202 243 203
f 202 204 244
f 202 244 242
f 203 243 245
f 203 245 205
f 205 245 246
f 205 246 206
f 206 246 247
f 206 247 207
f 207 247 248
f 207 248 208
f 208 248 249
f 208 249 209
f 209 249 250
f 209 250 210
f 210 250 251
f 210 251 211
f 211 251 252
f 211 252 212
f 212 252 253
f 212 253 213
f 213 253 254
f 213 254 214
f 204 215 255
f 204 255 244
f 214 254 256
f 214 256 216
f 215 217 257
f 215 257 255
f 216 256 258
f 216 258 218
f 217 219 259
f 217 259 257
f 218 258 260
f 218 260 220
f 219 221 261
f 219 261 259
f 220 260 262
f 220 262 222
f 221 223 263
f 221 263 261
f 222 262 264
f 222 264 224
f 223 225 265
f 223 265 263
f 224 264 266
f 224 266 226
f 225 227 267
f 225 267 265
f 226 266 268
f 226 268 228
f 227 229 269
f 227 269 267
f 228 268 270
f 228 270 230
f 232 231 271
f 232 271 272
f 229 232 272
f 229 272 269
f 231 233 273
f 231 273 271
f 233 234 274
f 233 274 273
f 234 235 275
f 234 275 274
f 235 236 276
f 235 276 275
f 236 237 277
f 236 277 276
f 237 238 278
f 237 278 277
f 238 239 279
f 238 279 278
f 239 240 280
f 239 280 279
f 240 241 281
f 240 281 280
f 230 270 281
f 230 281 241
f 242 282 283
f 242 283 243
f 242 244 284
f 242 284 282
f 243 283 285
f 243 285 245
f 245 285 286
f 245 286 246
f 246 286 287
f 246 287 247
f 247 287 288
f 247 288 248
f 248 288 289
f 248 289 249
f 249 289 290
f 249 290 250
f 250 290 291
f 250 291 251
f 251 291 292
f 251 292 252
f 252 292 293
f 252 293 253
f 253 293 294
f 253 294 254
f 244 255 295
f 244 295 284
f 254 294 296
f 254 296 256
f 255 257 297
f 255 297 295
f 256 296 298
f 256 298 258
f 257 259 299
f 257 299 297
f 258 298 300
f 258 300 260
f 259 261 301
f 259 301 299
f 260 300 302
f 260 302 262
f 261 263 303
f 261 303 301
f 262 302 304
f 262 304 264
f 263 265 305
f 263 305 303
f 264 304 306
f 264 306 266
f 265 267 307
f 265 307 305
f 266 306 308
f 266 308 268
f 267 269 309
f 267 309 307
f 268 308 310
f 268 310 270
f 272 271 311
f 272 311 312
f 269 272 312
f 269 312 309
f 271 273 313
f 271 313 311
f 273 274 314
f 273 314 313
f 274 275 315
f 274 315 314
f 275 276 316
f 275 316 315
f 276 277 317
f 276 317 316
f 277 278 318
f 277 318 317
f 278 279 319
f 278 319 318
f 279 280 320
f 279 320 319
f 280 281 321
f 280 321 320
f 270 310 321
f 270 321 281
f 282 322 323
f 282 323 283
f 282 284 324
f 282 324 322
f 283 323 325
f 283 325 285
f 285 325 326
f 285 326 286
f 286 326 327
f 286 327 287
f 287 327 328
f 287 328 288
f 288 328 329
f 288 329 289
f 289 329 330
f 289 330 290
f 290 330 331
f 290 331 291
f 291 331 332
f 291 332 292
f 292 332 333
f 292 333 293
f 293 333 334
f 293 334 294
f 284 295 335
f 284 335 324
f 294 334 336
f 294 336 296
f 295 297 337
f 295 337 335
f 296 336 338
f 296 338 298
f 297 299 339
f 297 339 337
f 298 338 340
f 298 340 300
f 299 301 341
f 299 341 339
f 300 340 342
f 300 342 302
f 301 303 343
f 301 343 341
f 302 342 344
f 302 344 304
f 303 305 345
f 303 345 343
f 304 344 346
f 304 346 306
f 305 307 347
f 305 347 345
f 306 346 348
f 306 348 308
f 307 309 349
f 307 349 347
f 308 348 350
f 308 350 310
f 312 311 351
f 312 351 352
f 309 312 352
f 309 352 349
f 311 313 353
f 311 353 351
f 313 314 354
f 313 354 353
f 314 315 355
f 314 355 354
f 315 316 356
f 315 356 355
f 316 317 357
f 316 357 356
f 317 318 358
f 317 358 357
f 318 319 359
f 318 359 358
f 319 320 360
f 319 360 359
f 320 321 361
f 320 361 360
f 310 350 361
f 310 361 321
f 322 362 363
f 322 363 323
f 322 324 364
f 322 364 362
f 323 363 365
f 323 365 325
f 325 365 366
f 325 366 326
f 326 366 367
f 326 367 327
f 327 367 368
f 327 368 328
f 328 368 369
f 328 369 329
f 329 369 370
f 329 370 330
f 330 370 371
f 330 371 331
f 331 371 372
f 331 372 332
f 332 372 373
f 332 373 333
f 333 373 374
f 333 374 334
f 324 335 375
f 324 375 364
f 334 374 376
f 334 376 336
f 335 337 377
f 335 377 375
f 336 376 378
f 336 378 338
f 337 339 379
f 337 379 377
f 338 378 380
f 338 380 340
f 339 341 381
f 339 381 379
f 340 380 382
f 340 382 342
f 341 343 383
f 341 383 381
f 342 382 384
f 342 384 344
f 343 345 385
f 343 385 383
f 344 384 386
f 344 386 346
f 345 347 387
f 345 387 385
f 346 386 388
f 346 388 348
f 347 349 389
f 347 389 387
f 348 388 390
f 348 390 350
f 352 351 391
f 352 391 392
f 349 352 392
f 349 392 389
f 351 353 393
f 351 393 391
f 353 354 394
f 353 394 393
f 354 355 395
f 354 395 394
f 355 356 396
f 355 396 395
f 356 357 397
f 356 397 396
f 357 358 398
f 357 398 397
f 358 359 399
f 358 399 398
f 359 360 400
f 359 400 399
f 360 361 401
f 360 401 400
f 350 390 401
f 350 401 361
f 362 402 403
f 362 403 363
f 362 364 404
f 362 404 402
f 363 403 405
f 363 405 365
f 365 405 406
f 365 406 366
f 366 406 407
f 366 407 367
f 367 407 408
f 367 408 368
f 368 408 409
f 368 409 369
f 369 409 410
f 369 410 370
f 370 410 411
f 370 411 371
f 371 411 412
f 371 412 372
f 372 412 413
f 372 413 373
f 373 413 414
f 373 414 374
f 364 375 415
f 364 415 404
f 374 414 416
f 374 416 376
f 375 377 417
f 375 417 415
f 376 416 418
f 376 418 378
f 377 379 419
f 377 419 417
f 378 418 420
f 378 420 380
f 379 381 421
f 379 421 419
f 380 420 422
f 380 422 382
f 381 383 423
f 381 423 421
f 382 422 424
f 382 424 384
f 383 385 425
f 383 425 423
f 384 424 426
f 384 426 386
f 385 387 427
f 385 427 425
f 386 426 428
f 386 428 388
f 387 389 429
f 387 429 427
f 388 428 430
f 388 430 390
f 392 391 431
f 392 431 432
f 389 392 432
f 389 432 429
f 391 393 433
f 391 433 431
f 393 394 434
f 393 434 433
f 394 395 435
f 394 435 434
f 395 396 436
f 395 436 435
f 396 397 437
f 396 437 436
f 397 398 438
f 397 438 437
f 398 399 439
f 398 439 438
f 399 400 440
f 399 440 439
f 400 401 441
f 400 441 440
f 390 430 441
f 390 441 401
f 402 442 443
f 402 443 403
f 402 404 444
f 402 444 442
f 403 443 445
f 403 445 405
f 405 445 446
f 405 446 406
f 406 446 447
f 406 447 407
f 407 447 448
f 407 448 408
f 408 448 449
f 408 449 409
f 409 449 450
f 409 450 410
f 410 450 451
f 410 451 411
f 411 451 452
f 411 452 412
f 412 452 453
f 412 453 413
f 413 453 454
f 413 454 414
f 404 415 455
f 404 455 444
f 414 454 456
f 414 456 416
f 415 417 457
f 415 457 455
f 416 456 458
f 416 458 418
f 417 419 459
f 417 459 457
f 418 458 460
f 418 460 420
f 419 421 461
f 419 461 459
f 420 460 462
f 420 462 422
f 421 423 463
f 421 463 461
f 422 462 464
f 422 464 424
f 423 425 465
f 423 465 463
f 424 464 466
f 424 466 426
f 425 427 467
f 425 467 465
f 426 466 468
f 426 468 428
f 427 429 469
f 427 469 467
f 428 468 470
f 428 470 430
f 432 431 471
f 432 471 472
f 429 432 472
f 429 472 469
f 431 433 473
f 431 473 471
f 433 434 474
f 433 474 473
f 434 435 475
f 434 475 474
f 435 436 476
f 435 476 475
f 436 437 477
f 436 477 476
f 437 438 478
f 437 478 477
f 438 439 479
f 438 479 478
f 439 440 480
f 439 480 479
f 440 441 481
f 440 481 480
f 430 470 481
f 430 481 441
f 482 483 484
f 482 484 485
f 442 482 485
f 442 485 443
f 442 444 483
f 442 483 482
f 485 484 486
f 485 486 487
f 443 485 487
f 443 487 445
f 487 486 488
f 487 488 489
f 445 487 489
f 445 489 446
f 489 488 490
f 489 490 491
f 446 489 491
f 446 491 447
f 491 490 492
f 491 492 493
f 447 491 493
f 447 493 448
f 493 492 494
f 493 494 495
f 448 493 495
f 448 495 449
f 495 494 496
f 495 496 497
f 449 495 497
f 449 497 450
f 497 496 498
f 497 498 499
f 450 497 499
f 450 499 451
f 499 498 500
f 499 500 501
f 451 499 501
f 451 501 452
f 501 500 502
f 501 502 503
f 452 501 503
f 452 503 453
f 453 503 502
f 453 502 454
f 483 504 505
f 483 505 484
f 444 455 504
f 444 504 483
f 484 505 506
f 484 506 486
f 486 506 507
f 486 507 488
f 488 507 508
f 488 508 490
f 490 508 509
f 490 509 492
f 492 509 510
f 492 510 494
f 494 510 511
f 494 511 496
f 496 511 512
f 496 512 498
f 498 512 513
f 498 513 500
f 500 513 514
f 500 514 502
f 454 502 514
f 454 514 456
f 504 515 516
f 504 516 505
f 455 457 515
f 455 515 504
f 505 516 517
f 505 517 506
f 506 517 518
f 506 518 507
f 507 518 519
f 507 519 508
f 508 519 520
f 508 520 509
f 509 520 521
f 509 521 510
f 510 521 522
f 510 522 511
f 511 522 523
f 511 523 512
f 512 523 524
f 512 524 513
f 513 524 525
f 513 525 514
f 456 514 525
f 456 525 458
f 515 526 527
f 515 527 516
f 457 459 526
f 457 526 515
f 516 527 528
f 516 528 517
f 517 528 529
f 517 529 518
f 518 529 530
f 518 530 519
f 519 530 531
f 519 531 520
f 520 531 532
f 520 532 521
f 521 532 533
f 521 533 522
f 522 533 534
f 522 534 523
f 523 534 535
f 523 535 524
f 524 535 536
f 524 536 525
f 458 525 536
f 458 536 460
f 526 537 538
f 526 538 527
f 459 461 537
f 459 537 526
f 527 538 539
f 527 539 528
f 528 539 540
f 528 540 529
f 529 540 541
f 529 541 530
f 531 542 543
f 531 543 532
f 532 543 544
f 532 544 533
f 533 544 545
f 533 545 534
f 534 545 546
f 534 546 535
f 535 546 547
f 535 547 536
f 460 536 547
f 460 547 462
f 537 548 549
f 537 549 538
f 461 463 548
f 461 548 537
f 538 549 550
f 538 550 539
f 539 550 551
f 539 551 540
f 540 551 552
f 540 552 541
f 541 552 553
f 541 553 542
f 542 553 554
f 542 554 543
f 543 554 555
f 543 555 544
f 544 555 556
f 544 556 545
f 545 556 557
f 545 557 546
f 546 557 558
f 546 558 547
f 462 547 558
f 462 558 464
f 548 559 560
f 548 560 549
f 463 465 559
f 463 559 548
f 549 560 561
f 549 561 550
f 550 561 562
f 550 562 551
f 551 562 563
f 551 563 552
f 552 563 564
f 552 564 553
f 553 564 565
f 553 565 554
f 554 565 566
f 554 566 555
f 555 566 567
f 555 567 556
f 556 567 568
f 556 568 557
f 557 568 569
f 557 569 558
f 464 558 569
f 464 569 466
f 559 570 571
f 559 571 560
f 465 467 570
f 465 570 559
f 560 571 572
f 560 572 561
f 561 572 573
f 561 573 562
f 562 573 574
f 562 574 563
f 563 574 575
f 563 575 564
f 564 575 576
f 564 576 565
f 565 576 577
f 565 577 566
f 566 577 578
f 566 578 567
f 567 578 579
f 567 579 568
f 568 579 580
f 568 580 569
f 466 569 580
f 466 580 468
f 570 581 582
f 570 582 571
f 467 469 581
f 467 581 570
f 571 582 583
f 571 583 572
f 572 583 584
f 572 584 573
f 573 584 585
f 573 585 574
f 574 585 586
f 574 586 575
f 575 586 587
f 575 587 576
f 576 587 588
f 576 588 577
f 577 588 589
f 577 589 578
f 578 589 590
f 578 590 579
f 579 590 591
f 579 591 580
f 468 580 591
f 468 591 470
f 581 592 593
f 581 593 582
f 472 471 593
f 472 593 592
f 469 472 592
f 469 592 581
f 582 593 594
f 582 594 583
f 471 473 594
f 471 594 593
f 583 594 595
f 583 595 584
f 473 474 595
f 473 595 594
f 584 595 596
f 584 596 585
f 474 475 596
f 474 596 595
f 585 596 597
f 585 597 586
f 475 476 597
f 475 597 596
f 586 597 598
f 586 598 587
f 476 477 598
f 476 598 597
f 587 598 599
f 587 599 588
f 477 478 599
f 477 599 598
f 588 599 600
f 588 600 589
f 478 479 600
f 478 600 599
f 589 600 601
f 589 601 590
f 479 480 601
f 479 601 600
f 590 601 602
f 590 602 591
f 480 481 602
f 480 602 601
f 470 591 602
f 470 602 481
f 530 603 604
f 530 604 531
f 541 542 605
f 541 605 606
f 530 541 606
f 530 606 603
f 531 604 605
f 531 605 542
f 603 607 608
f 603 608 604
f 606 605 609
f 606 609 610
f 603 606 610
f 603 610 607
f 604 608 609
f 604 609 605
f 607 611 612
f 607 612 608
f 610 609 613
f 610 613 614
f 607 610 614
f 607 614 611
f 608 612 613
f 608 613 609
f 611 615 616
f 611 616 612
f 614 613 617
f 614 617 618
f 611 614 618
f 611 618 615
f 612 616 617
f 612 617 613
f 619 620 615
f 619 615 621
f 619 622 623
f 619 623 620
f 619 621 624
f 619 624 622
f 620 625 616
f 620 616 615
f 620 623 626
f 620 626 625
f 625 627 628
f 625 628 616
f 625 626 629
f 625 629 627
f 627 629 630
f 627 630 628
f 621 615 618
f 621 618 631
f 621 631 632
f 621 632 624
f 616 628 633
f 616 633 617
f 628 630 634
f 628 634 633
f 631 618 635
f 631 635 636
f 636 635 637
f 636 637 638
f 631 636 638
f 631 638 632
f 618 617 639
f 618 639 635
f 635 639 640
f 635 640 637
f 617 633 641
f 617 641 639
f 639 641 642
f 639 642 640
f 633 634 642
f 633 642 641
f 622 643 644
f 622 644 623
f 622 624 645
f 622 645 643
f 623 644 646
f 623 646 626
f 626 646 647
f 626 647 629
f 629 647 648
f 629 648 630
f 624 632 649
f 624 649 645
f 630 648 650
f 630 650 634
f 638 637 651
f 638 651 652
f 632 638 652
f 632 652 649
f 637 640 653
f 637 653 651
f 640 642 654
f 640 654 653
f 634 650 654
f 634 654 642
f 655 656 657
f 655 657 658
f 643 655 658
f 643 658 644
f 643 645 656
f 643 656 655
f 658 657 659
f 658 659 660
f 644 658 660
f 644 660 646
f 660 659 661
f 660 661 662
f 646 660 662
f 646 662 647
f 647 662 661
f 647 661 648
f 656 663 664
f 656 664 657
f 645 649 663
f 645 663 656
f 657 664 665
f 657 665 659
f 659 665 666
f 659 666 661
f 648 661 666
f 648 666 650
f 663 667 668
f 663 668 664
f 652 651 668
f 652 668 667
f 649 652 667
f 649 667 663
f 664 668 669
f 664 669 665
f 651 653 669
f 651 669 668
f 665 669 670
f 665 670 666
f 653 654 670
f 653 670 669
f 650 666 670
f 650 670 654
